<?xml version="1.0" encoding="UTF-8"?>
<!DOCTYPE svg PUBLIC "-//W3C//DTD SVG 1.1//EN" "http://www.w3.org/Graphics/SVG/1.1/DTD/svg11.dtd">
<!-- Creator: CorelDRAW -->
<svg xmlns="http://www.w3.org/2000/svg" xml:space="preserve" width="213.859mm" height="103.654mm" style="shape-rendering:geometricPrecision; text-rendering:geometricPrecision; image-rendering:optimizeQuality; fill-rule:evenodd; clip-rule:evenodd"
viewBox="0 0 252.088 122.183"
 xmlns:xlink="http://www.w3.org/1999/xlink">
 <defs>
  <style type="text/css">
   <![CDATA[
    .fil3 {fill:#0A0B0C}
    .fil1 {fill:#DA251D}
    .fil0 {fill:#0A0B0C;fill-rule:nonzero}
    .fil2 {fill:white;fill-rule:nonzero}
   ]]>
  </style>
 </defs>
 <g id="Camada_x0020_1">
  <metadata id="CorelCorpID_0Corel-Layer"/>
  <g id="_114541992">
   <path id="_114541440" class="fil0" d="M201.119 62.744l2.34136 0.0134378 1.34036 4.86331 1.49018 -4.84716 2.07744 0.0119054 -2.73153 7.66898 -0.0322979 5.62443 -2.12836 -0.0121412 0.0322979 -5.62443 -2.38946 -7.69834zm12.4871 8.4551c-0.0196852,3.42122 -0.997935,5.12629 -2.93734,5.11521 -1.94448,-0.0110803 -2.90552,-1.72735 -2.88595,-5.14857 0.0195673,-3.4112 1.00017,-5.11285 2.94465,-5.10177 1.93952,0.0111982 2.89821,1.72393 2.87864,5.13513zm-2.0653 -0.0119054c0.00707253,-1.25125 -0.0485647,-2.10019 -0.17198,-2.54364 -0.123298,-0.443212 -0.339953,-0.664229 -0.652323,-0.665997 -0.302704,-0.00176813 -0.521835,0.206754 -0.657392,0.62533 -0.133199,0.418458 -0.205811,1.27683 -0.213237,2.57464 -0.00695466,1.20481 0.0463251,2.04043 0.1576,2.5071 0.108563,0.469852 0.334767,0.704189 0.676252,0.706193 0.326751,0.00188601 0.548475,-0.226557 0.669887,-0.691812 0.121294,-0.465373 0.18424,-1.30029 0.191194,-2.51181zm3.15883 -4.9041l1.99999 0.0115518 -0.0361878 6.31648c-0.00365414,0.639121 0.035009,1.06524 0.12094,1.27871 0.0835738,0.216891 0.266988,0.324394 0.550243,0.326044 0.261566,0.00153238 0.458064,-0.0839274 0.594682,-0.25968 0.13426,-0.175517 0.217952,-0.417869 0.248835,-0.723992 0.0307655,-0.309306 0.046443,-0.945008 0.0519831,-1.90676l0.0287616 -5.02197 2.00247 0.0115518 -0.0563445 9.84756 -1.88153 -0.0107267 0.00777979 -1.34449c-0.287027,0.667294 -0.572875,1.09165 -0.854716,1.26976 -0.281958,0.181411 -0.614132,0.272646 -0.999113,0.270524 -0.513466,-0.00294689 -0.909646,-0.151824 -1.18158,-0.446277 -0.271939,-0.294335 -0.446631,-0.668119 -0.526314,-1.1144 -0.0773264,-0.449931 -0.1121,-1.14905 -0.106677,-2.09748l0.0367772 -6.40642z"/>
   <path id="_114542064" class="fil1" d="M227.091 59.5237l17.4739 0.100194c4.86944,0.0251075 7.00428,0.651616 7.05026,8.29667l-0.0193316 3.38244c-0.0048329,6.85093 -1.03035,8.89501 -6.47384,9.01312l-17.1679 -0.0984261c-5.66333,-0.0715505 -6.43459,-2.59008 -6.40241,-9.46541l0.0133199 -2.32097c0.210408,-3.5266 -0.0981904,-8.89807 5.52601,-8.90762z"/>
   <path id="_114541344" class="fil2" d="M224.282 62.829l5.87586 0.0337124 -0.0143808 2.52678 -1.92797 -0.0110803 -0.0627098 10.9464 -2.06942 -0.0117876 0.0627098 -10.9464 -1.87858 -0.0108446 0.0144987 -2.52678zm5.92678 3.53792l1.94683 0.0111982 -0.0366593 6.39463c-0.00365414,0.646901 0.034066,1.07844 0.117522,1.29451 0.0812163,0.219366 0.259798,0.328401 0.535627,0.329934 0.254375,0.00141451 0.446041,-0.0849883 0.579005,-0.262863 0.130488,-0.177874 0.212176,-0.423291 0.242116,-0.733186 0.0300583,-0.313078 0.0455,-0.956678 0.051158,-1.93021l0.0291153 -5.08409 1.94931 0.0110803 -0.0571697 9.96944 -1.83143 -0.0104909 0.00789766 -1.36123c-0.279601,0.675663 -0.557905,1.10532 -0.832319,1.28579 -0.274532,0.183768 -0.597865,0.276065 -0.972709,0.273943 -0.499792,-0.00282901 -0.885481,-0.15312 -1.15011,-0.451228 -0.264749,-0.298107 -0.434489,-0.67637 -0.512052,-1.12831 -0.0752046,-0.455235 -0.108799,-1.16296 -0.103377,-2.12317l0.0372487 -6.48575zm6.86248 -3.4646l1.91159 0.0109624 -0.0254611 4.44049c0.38121,-0.715505 0.866503,-1.06984 1.45576,-1.06642 0.645722,0.00365414 1.1784,0.421169 1.60264,1.25243 0.424116,0.831259 0.631459,2.10608 0.621558,3.82424 -0.00943005,1.65085 -0.226675,2.93675 -0.651498,3.8609 -0.424824,0.920726 -1.04025,1.38209 -1.84393,1.37749 -0.792124,-0.00459715 -1.33376,-0.512995 -1.62256,-1.52213 -0.133907,0.343018 -0.259091,0.776918 -0.37284,1.30182l-1.15247 -0.00660103 0.0772085 -13.4732zm1.85807 9.34683c-0.00518653,0.916365 0.0524546,1.54688 0.168326,1.89791 0.117993,0.347615 0.329109,0.524075 0.633228,0.525843 0.334649,0.00188601 0.567217,-0.242706 0.694994,-0.740612 0.127777,-0.494606 0.193787,-1.33317 0.200506,-2.5124 0.00660103,-1.13526 -0.0476217,-1.97123 -0.16479,-2.49743 -0.117168,-0.526432 -0.33736,-0.790356 -0.657746,-0.792242 -0.568042,-0.00330052 -0.854362,0.604937 -0.861317,1.82106l-0.0132021 2.29787zm10.201 -0.32569l-3.66039 -0.0209819 -0.00318264 0.552601c-0.00506865,0.896208 0.0761476,1.49643 0.246596,1.79725 0.167973,0.304237 0.390993,0.457121 0.666822,0.458654 0.593857,0.00341839 0.929449,-0.564035 1.01137,-1.70248l1.73159 0.168444c-0.321918,2.31626 -1.25031,3.46979 -2.78941,3.46094 -0.947602,-0.00542228 -1.66617,-0.46773 -2.15347,-1.38692 -0.487533,-0.915893 -0.725642,-2.14027 -0.716801,-3.67666 0.00990155,-1.72829 0.279129,-3.04756 0.805326,-3.95755 0.528436,-0.906699 1.23109,-1.36099 2.11021,-1.35592 0.792006,0.00447927 1.45199,0.412565 1.98007,1.22084 0.525725,0.811691 0.783519,2.29233 0.77126,4.44179zm-1.82695 -1.61749c0.00542228,-0.121412 0.00836917,-0.212294 0.00872279,-0.2763 0.00742616,-1.28355 -0.293039,-1.9288 -0.901159,-1.93233 -0.598808,-0.00341839 -0.904577,0.729296 -0.917779,2.19826l1.81022 0.0103731z"/>
  </g>
  <path class="fil3" d="M4.59444 0l9.23614 0c0.635703,0 1.2028,0.523839 1.15494,1.15483l-1.66405 21.7531c-0.0472681,0.629691 -0.52325,1.15494 -1.15494,1.15494l-5.90804 0c-0.631577,0 -1.10685,-0.521246 -1.15483,-1.15494l-1.66405 -21.7531c-0.0478575,-0.633699 0.519242,-1.15483 1.15483,-1.15483zm14.2956 67.6356l14.7281 -25.5078c0.955264,-2.08876 0.245653,-4.56485 -3.48381,-4.49495l-11.0825 0 0 -4.99745 0 -0.863321c0,-0.923202 -0.603051,-1.67808 -1.3393,-1.67808l-1.0709 0 -0.0220427 0 -0.0239287 0 -0.0219249 0 -0.0186243 0 -0.0160311 0 -0.0119054 0 -0.00943005 0 -0.00589378 0 -0.00200388 0 -0.000707253 0 -0.00330052 0 -0.0053044 0 -0.00872279 0 -0.00990155 0 -0.0133199 0 -0.0147344 0 -0.0179171 0 -0.0186243 0 -0.0220427 0 -0.0232215 0 -0.0266399 0 -0.0273471 0 -0.0305298 0 -0.0319443 0 -0.0346554 0 -0.0352448 0 -0.0372487 0 -0.0393704 0 -0.0425531 0 -0.0425531 0 -0.0452642 0 -0.0472681 0 -0.0499792 0 -0.0498614 0 -0.0525725 0 -0.0532798 0 -0.0226321 0 -0.0339482 0 -0.0565803 0 -0.0592914 0 -0.060588 0 -0.0624741 0 -0.0625919 0 -0.0645958 0 -0.0658924 0 -0.0686036 0 -0.0684857 0 -0.0706075 0 -0.0719041 0 -0.0737901 0 -0.0733186 0 -0.075794 0 -0.0766191 0 -0.0785051 0 -0.0792124 0 -0.080509 0 -0.0812163 0 -0.0332409 0 -1.49301 0c-0.766191,0 -1.20881,-0.204278 -1.46908,-0.503211 -0.0998406,-0.127777 -0.183061,-0.274886 -0.246949,-0.436611 -0.105852,-0.301526 -0.125773,-0.637 -0.1398,-0.941236l0 -1.4184 0 -0.0299404c-0.0212176,-0.646312 -0.715505,-1.16685 -1.55879,-1.16685l-0.780808 0c-0.856602,0 -1.38445,0.536452 -1.38445,1.19679l0 1.32787c-0.148523,0.999113 -0.0620026,2.19131 0,3.1105l0 0.511816 0 0.0140272 0.000589378 0c0.000707253,0.129074 0.0286438,0.256262 0.073908,0.37673 0.331466,1.64472 2.51405,1.46767 2.51405,1.46767 0,0 1.91571,-0.0339482 3.99975,0 1.57081,0.0253432 1.84369,1.31726 1.88236,1.95096l0 0.343489 0 1.73525 -0.235633 0 0 16.094c0,0.605055 -0.391347,1.09895 -0.87004,1.09895l-0.579005 0c-0.478575,0 -0.87004,-0.493899 -0.87004,-1.09895l0 -16.094 -9.24545 0c-3.07184,0.00200388 -5.03211,2.01815 -3.1929,5.25772l14.3241 24.8116c1.28532,2.0554 2.57063,2.03347 3.85595,-0.0665997z"/>
  <path class="fil0" d="M52.2849 58.3488l0 -2.26969c0,-0.469498 -0.110803,-0.958682 -0.332527,-1.46743 -0.221842,-0.508633 -0.508751,-0.971766 -0.860963,-1.38916 -0.352212,-0.417397 -0.76961,-0.763009 -1.25219,-1.03695 -0.482583,-0.273943 -0.971766,-0.410914 -1.46743,-0.410914l-14.9873 0c-0.521717,0 -1.01738,0.136971 -1.487,0.410914 -0.469616,0.273943 -0.880531,0.619554 -1.23262,1.03695 -0.352212,0.417397 -0.639121,0.880531 -0.860963,1.38916 -0.221724,0.508751 -0.332527,0.997935 -0.332527,1.46743l0 8.84373c0,0.469616 0.110803,0.958682 0.332527,1.46743 0.221842,0.508751 0.508751,0.971766 0.860963,1.38916 0.352094,0.417397 0.763009,0.763009 1.23262,1.03695 0.469616,0.273943 0.965283,0.410914 1.487,0.410914l18.3918 0 0 -4.30446 -14.4787 0 0 -8.84373 7.16106 0 0 2.26969 -5.00889 0 0 4.30446 8.922 0c0.495667,0 0.98485,-0.136971 1.46743,-0.410914 0.482583,-0.273943 0.89998,-0.619554 1.25219,-1.03695 0.352212,-0.417397 0.639121,-0.880531 0.860963,-1.38916 0.221724,-0.508751 0.332527,-0.997935 0.332527,-1.46743z"/>
  <path id="1" class="fil0" d="M81.5552 69.2273l7.82635 0 0 -13.1482c0,-0.469498 -0.110921,-0.958682 -0.332645,-1.46743 -0.221724,-0.508633 -0.508751,-0.971766 -0.860845,-1.38916 -0.352212,-0.417397 -0.76961,-0.763009 -1.25219,-1.03695 -0.4827,-0.273943 -0.971766,-0.410914 -1.46743,-0.410914l-9.58717 0c-0.208758,0 -0.463133,0.0457357 -0.763126,0.136971 -0.299993,0.0913536 -0.606588,0.202274 -0.919547,0.332645 -0.313078,0.130488 -0.600105,0.260859 -0.860963,0.391347 -0.260859,0.13037 -0.443448,0.247774 -0.547768,0.352212 -0.104438,-0.104438 -0.280426,-0.221842 -0.528318,-0.352212 -0.247774,-0.130488 -0.528318,-0.260859 -0.841278,-0.391347 -0.313078,-0.13037 -0.626155,-0.241291 -0.939233,-0.332645 -0.31296,-0.0912357 -0.573936,-0.136971 -0.782576,-0.136971l-13.5003 0 0 17.4527 7.82623 0 0 -13.1482 5.63492 0 0 13.1482 6.26096 0 0 -13.1482 5.63492 0 0 13.1482z"/>
  <path class="fil0" d="M95.5023 66.0736l1.47026 0.192962c-0.158896,1.01326 -0.570518,1.80798 -1.23463,2.38132 -0.661282,0.573347 -1.47592,0.859902 -2.44097,0.859902 -1.20622,0 -2.17976,-0.394412 -2.912,-1.18347 -0.735072,-0.789059 -1.10414,-1.92149 -1.10414,-3.39741 0,-0.953731 0.159014,-1.78817 0.473978,-2.50332 0.31791,-0.715269 0.797664,-1.25172 1.44468,-1.60936 0.644308,-0.357634 1.34826,-0.536452 2.10608,-0.536452 0.959271,0 1.7455,0.24412 2.35291,0.729414 0.610242,0.485412 1.00182,1.17227 1.17498,2.06636l-1.456 0.224199c-0.139093,-0.593268 -0.383213,-1.03884 -0.735072,-1.33966 -0.351976,-0.298107 -0.777743,-0.448517 -1.2773,-0.448517 -0.754993,0 -1.36806,0.269699 -1.83921,0.811809 -0.471149,0.539281 -0.706664,1.39353 -0.706664,2.56297 0,1.1863 0.227028,2.04915 0.684032,2.58843 0.454057,0.536452 1.04732,0.806151 1.77957,0.806151 0.587492,0 1.07573,-0.181764 1.47026,-0.54211 0.39453,-0.360464 0.644308,-0.914007 0.749217,-1.66322z"/>
  <path id="1" class="fil0" d="M97.6965 64.8929c0,-1.63482 0.454057,-2.84681 1.36512,-3.63304 0.757822,-0.652795 1.68315,-0.982021 2.77585,-0.982021 1.21483,0 2.20816,0.397359 2.97742,1.1949 0.771967,0.794717 1.15506,1.8932 1.15506,3.29521 0,1.13821 -0.170212,2.03229 -0.510873,2.68226 -0.340543,0.652795 -0.83727,1.15801 -1.48724,1.51847 -0.652795,0.360464 -1.36229,0.539163 -2.13437,0.539163 -1.23463,0 -2.23374,-0.394412 -2.99722,-1.18913 -0.76348,-0.791888 -1.14375,-1.93292 -1.14375,-3.42582zm1.53828 0c0,1.13243 0.246949,1.97831 0.740848,2.54022 0.493781,0.56486 1.11546,0.845875 1.86184,0.845875 0.743677,0 1.36241,-0.283844 1.85619,-0.848704 0.49107,-0.56486 0.738019,-1.42759 0.738019,-2.5856 0,-1.09282 -0.246949,-1.92161 -0.743677,-2.48352 -0.49661,-0.562031 -1.11251,-0.842928 -1.85053,-0.842928 -0.746388,0 -1.36806,0.280897 -1.86184,0.840099 -0.493899,0.559084 -0.740848,1.40496 -0.740848,2.53456z"/>
  <path id="12" class="fil0" d="M107.727 69.3092l0 -8.82982 1.33683 0 0 1.23746c0.278186,-0.431425 0.647137,-0.780572 1.10697,-1.04167 0.459715,-0.263923 0.98485,-0.397359 1.57234,-0.397359 0.652795,0 1.18925,0.136264 1.60653,0.408792 0.419991,0.27241 0.715151,0.649848 0.885481,1.13809 0.701006,-1.03035 1.60936,-1.54688 2.72764,-1.54688 0.876994,0 1.54959,0.24412 2.02074,0.729414 0.471149,0.485412 0.706782,1.2318 0.706782,2.2394l0 6.06258 -1.48724 0 0 -5.56302c0,-0.598808 -0.048329,-1.03023 -0.144751,-1.29427 -0.0993691,-0.261094 -0.275357,-0.473978 -0.527965,-0.635703 -0.255436,-0.159014 -0.556255,-0.241291 -0.899744,-0.241291 -0.621558,0 -1.13526,0.207225 -1.54676,0.621558 -0.408792,0.411622 -0.6159,1.0729 -0.6159,1.98113l0 5.1316 -1.49584 0 0 -5.73618c0,-0.66694 -0.122001,-1.1665 -0.366122,-1.49855 -0.24412,-0.332055 -0.641479,-0.499557 -1.19773,-0.499557 -0.420109,0 -0.808862,0.110685 -1.1665,0.334885 -0.357634,0.22137 -0.618729,0.544939 -0.777743,0.970705 -0.161725,0.428596 -0.241291,1.0445 -0.241291,1.8477l0 4.581 -1.49572 0z"/>
  <path class="fil3" d="M113.546 68.1782c2.48505,0 4.87309,0.404313 7.10613,1.15388l-13.1727 13.1216c-0.585488,0.581598 -0.592089,1.52024 -0.0196852,2.09653l11.8311 11.8717c0.574997,0.584309 1.51364,0.586902 2.08604,0.017092l13.2805 -13.2213c0.788941,2.28431 1.22213,4.73919 1.22213,7.29131 0,12.3326 -10.0009,22.3335 -22.3334,22.3335 -3.65756,0 -7.10495,-0.884774 -10.152,-2.44439l0.653738 -0.651145c0.417515,-0.409618 0.417515,-1.10284 0,-1.51765l-8.60669 -8.64087c-0.414922,-0.42671 -1.10013,-0.420109 -1.52024,-0.00919429l-0.535627 0.532915c-1.38905,-2.90917 -2.17009,-6.1636 -2.17009,-9.60321 0,-12.3299 10.0009,-22.3308 22.3309,-22.3308z"/>
  <polygon class="fil0" points="160.168,100.712 139.468,100.712 139.468,96.4071 150.111,87.5634 139.468,87.5634 139.468,83.2589 160.168,83.2589 160.168,87.5634 149.29,96.4071 160.168,96.4071 "/>
  <path id="1" class="fil0" d="M171.868 80.9502l5.08704 0 2.8566 -3.71744 -6.02615 0 -1.91748 3.71744zm15.0264 8.88287l0 -2.26969c0,-0.469498 -0.110803,-0.958682 -0.332527,-1.46743 -0.221842,-0.508633 -0.508751,-0.971766 -0.860963,-1.38916 -0.352212,-0.417397 -0.76961,-0.763009 -1.25219,-1.03695 -0.482583,-0.273943 -0.971766,-0.410914 -1.46743,-0.410914l-14.9873 0c-0.521717,0 -1.01738,0.136971 -1.487,0.410914 -0.469616,0.273943 -0.880531,0.619554 -1.23262,1.03695 -0.352212,0.417397 -0.639121,0.880531 -0.860963,1.38916 -0.221724,0.508751 -0.332527,0.997935 -0.332527,1.46743l0 8.84373c0,0.469616 0.110803,0.958682 0.332527,1.46743 0.221842,0.508751 0.508751,0.971766 0.860963,1.38916 0.352094,0.417397 0.763009,0.763009 1.23262,1.03695 0.469616,0.273943 0.965283,0.410914 1.487,0.410914l18.3918 0 0 -4.30446 -14.4787 0 0 -8.84373 7.16106 0 0 2.26969 -5.00889 0 0 4.30446 8.922 0c0.495667,0 0.98485,-0.136971 1.46743,-0.410914 0.482583,-0.273943 0.89998,-0.619554 1.25219,-1.03695 0.352212,-0.417397 0.639121,-0.880531 0.860963,-1.38916 0.221724,-0.508751 0.332527,-0.997935 0.332527,-1.46743z"/>
  <path id="12" class="fil0" d="M190.808 83.2981l7.82623 0 0 17.4135 -7.82623 0 0 -17.4135zm0 -1.52602l0 -3.75669 7.82623 0 0 3.75669 -7.82623 0z"/>
  <path id="123" class="fil0" d="M202.548 94.1376c0,-0.469616 0.110803,-0.9588 0.332527,-1.46743 0.221842,-0.508751 0.508751,-0.971766 0.860963,-1.38916 0.352094,-0.417397 0.763009,-0.763126 1.23262,-1.03707 0.469616,-0.273825 0.965283,-0.410796 1.487,-0.410796l8.92188 0 0 4.30446 -5.00877 0 0 2.26958 7.16106 0 0 -8.84373 -14.4787 0 0 -4.30446 18.3918 0c0.495667,0 0.98485,0.136971 1.46743,0.410914 0.482583,0.273943 0.89998,0.619554 1.25219,1.03695 0.352212,0.417397 0.639121,0.880531 0.860963,1.38916 0.221724,0.508751 0.332527,0.997935 0.332527,1.46743l0 13.1482 -18.9004 0c-0.521717,0 -1.01738,-0.136971 -1.487,-0.410914 -0.469616,-0.273943 -0.880531,-0.619554 -1.23262,-1.03695 -0.352212,-0.417397 -0.639121,-0.880413 -0.860963,-1.38916 -0.221724,-0.508751 -0.332527,-0.997817 -0.332527,-1.46743l0 -2.26958z"/>
  <path id="1234" class="fil0" d="M252.088 94.1376c0,-0.469616 -0.110803,-0.9588 -0.332527,-1.46743 -0.221842,-0.508751 -0.508751,-0.971766 -0.860963,-1.38916 -0.352212,-0.417397 -0.76961,-0.763126 -1.25219,-1.03707 -0.482583,-0.273825 -0.971766,-0.410796 -1.46743,-0.410796l-11.0742 0 0 -2.26969 14.9873 0 0 -4.30446 -18.9004 0c-0.521717,0 -1.01738,0.136971 -1.487,0.410914 -0.469616,0.273943 -0.880531,0.619554 -1.23262,1.03695 -0.352212,0.417397 -0.639121,0.880531 -0.860963,1.38916 -0.221724,0.508751 -0.332527,0.997935 -0.332527,1.46743l0 2.26969c0,0.469498 0.110803,0.958682 0.332527,1.46743 0.221842,0.508633 0.508751,0.971766 0.860963,1.38916 0.352094,0.417397 0.763009,0.763009 1.23262,1.03695 0.469616,0.273943 0.965283,0.410914 1.487,0.410914l11.0742 0 0 2.26958 -14.9873 0 0 4.30446 18.9004 0c0.495667,0 0.98485,-0.136971 1.46743,-0.410914 0.482583,-0.273943 0.89998,-0.619554 1.25219,-1.03695 0.352212,-0.417397 0.639121,-0.880413 0.860963,-1.38916 0.221724,-0.508751 0.332527,-0.997817 0.332527,-1.46743l0 -2.26958z"/>
  <path class="fil0" d="M139.877 118.409l0 -9.99986 1.52354 0 0 1.42075c0.736133,-1.09931 1.7969,-1.64896 3.18229,-1.64896 0.60423,0 1.15718,0.109271 1.66181,0.324629 0.507808,0.218541 0.883949,0.501443 1.13467,0.854952 0.253904,0.350444 0.427535,0.768313 0.530322,1.25042 0.0610595,0.314964 0.0932396,0.864617 0.0932396,1.64896l0 6.1491 -1.69717 0 0 -6.08486c0,-0.687804 -0.0642422,-1.20528 -0.196027,-1.54924 -0.131903,-0.340778 -0.366475,-0.614014 -0.70077,-0.816524 -0.337478,-0.205693 -0.72965,-0.30848 -1.18288,-0.30848 -0.723285,0 -1.34366,0.23139 -1.8708,0.687804 -0.523957,0.459715 -0.784344,1.32751 -0.784344,2.61012l0 5.46118 -1.69387 0z"/>
  <path id="1" class="fil0" d="M157.129 117.175c-0.630045,0.533505 -1.23428,0.909646 -1.81293,1.13137 -0.581834,0.218659 -1.2054,0.32793 -1.87069,0.32793 -1.09943,0 -1.94153,-0.266752 -2.53303,-0.803558 -0.588199,-0.536805 -0.883949,-1.22473 -0.883949,-2.05728 0,-0.491777 0.109389,-0.938525 0.334295,-1.34355 0.221842,-0.40502 0.514291,-0.72965 0.874401,-0.974006 0.363175,-0.244238 0.768195,-0.430717 1.22143,-0.556019 0.331112,-0.0868743 0.832555,-0.173631 1.50433,-0.254022 1.36936,-0.163847 2.37861,-0.356691 3.02469,-0.585016 0.00648316,-0.23139 0.0096658,-0.379206 0.0096658,-0.440265 0,-0.691105 -0.160664,-1.1797 -0.482111,-1.45942 -0.430717,-0.385689 -1.07691,-0.575351 -1.92868,-0.575351 -0.797193,0 -1.38539,0.138268 -1.7679,0.417869 -0.379324,0.279719 -0.658924,0.774678 -0.842103,1.485l-1.65544 -0.228207c0.151116,-0.707136 0.398537,-1.28249 0.742498,-1.71639 0.343961,-0.437201 0.845404,-0.774678 1.49796,-1.00937 0.652441,-0.23469 1.40779,-0.353509 2.26934,-0.353509 0.854952,0 1.54606,0.102788 2.07968,0.302115 0.533505,0.20251 0.925677,0.453232 1.17958,0.758529 0.250721,0.305416 0.424352,0.687922 0.527257,1.154 0.0545764,0.289267 0.0835738,0.810041 0.0835738,1.56221l0 2.25967c0,1.57824 0.0353627,2.57476 0.109271,2.98932 0.0707253,0.417869 0.215359,0.819707 0.427535,1.20221l-1.7712 0c-0.173513,-0.350326 -0.289267,-0.76183 -0.337478,-1.23428zm-0.141451 -3.78652c-0.617197,0.253904 -1.53969,0.46608 -2.7676,0.642776 -0.69747,0.0997227 -1.19243,0.212176 -1.47851,0.337596 -0.289385,0.125302 -0.514291,0.30848 -0.66859,0.552836 -0.1576,0.241056 -0.237873,0.507808 -0.237873,0.803558 0,0.453232 0.173513,0.829373 0.514291,1.13149 0.34066,0.298932 0.842103,0.450049 1.50103,0.450049 0.652559,0 1.23439,-0.141451 1.7422,-0.427535 0.507926,-0.286084 0.883949,-0.678256 1.12182,-1.17322 0.183297,-0.382506 0.273236,-0.948309 0.273236,-1.69399l0 -0.623562z"/>
  <path id="12" class="fil0" d="M173.213 114.745l1.66499 0.218541c-0.179996,1.14764 -0.646076,2.04762 -1.39824,2.69688 -0.748864,0.649377 -1.67148,0.974006 -2.7643,0.974006 -1.36618,0 -2.46867,-0.446866 -3.29792,-1.34036 -0.832555,-0.893615 -1.25042,-2.17622 -1.25042,-3.84769 0,-1.07998 0.179996,-2.02498 0.536805,-2.83503 0.359992,-0.810041 0.903281,-1.41757 1.63611,-1.82259 0.72965,-0.40502 1.52684,-0.607413 2.38509,-0.607413 1.08646,0 1.97677,0.276418 2.6647,0.826072 0.691105,0.549654 1.13467,1.32751 1.3307,2.34007l-1.64896 0.253904c-0.157482,-0.671773 -0.4339,-1.17652 -0.832555,-1.51718 -0.398537,-0.337478 -0.880648,-0.507926 -1.44645,-0.507926 -0.854952,0 -1.54924,0.305416 -2.08286,0.919312 -0.533623,0.610713 -0.800375,1.57824 -0.800375,2.90257 0,1.34366 0.257087,2.32085 0.774678,2.93157 0.514291,0.607531 1.18606,0.912828 2.01544,0.912828 0.66529,0 1.21824,-0.205693 1.66499,-0.613896 0.446748,-0.408203 0.72965,-1.03507 0.848586,-1.88365z"/>
  <path id="123" class="fil0" d="M175.698 113.408c0,-1.85147 0.514291,-3.22401 1.54606,-4.11433 0.858252,-0.739316 1.90617,-1.11216 3.14362,-1.11216 1.37573,0 2.50085,0.449931 3.37195,1.35321 0.874283,0.89998 1.30818,2.14392 1.30818,3.73182 0,1.28897 -0.192844,2.30152 -0.578533,3.03765 -0.385807,0.739316 -0.948309,1.31148 -1.68432,1.71969 -0.739316,0.408203 -1.54299,0.610713 -2.41727,0.610713 -1.39824,0 -2.52973,-0.446866 -3.39435,-1.34685 -0.864617,-0.896797 -1.29533,-2.18895 -1.29533,-3.87976zm1.74208 0c0,1.2826 0.279719,2.24046 0.839038,2.87687 0.55932,0.639711 1.26315,0.957857 2.10856,0.957857 0.842221,0 1.54287,-0.321447 2.10219,-0.96104 0.556137,-0.639711 0.835738,-1.6169 0.835738,-2.92827 0,-1.23758 -0.279601,-2.17622 -0.842103,-2.81263 -0.562502,-0.63641 -1.26009,-0.954674 -2.09583,-0.954674 -0.845404,0 -1.54924,0.318264 -2.10856,0.951492 -0.55932,0.633228 -0.839038,1.59108 -0.839038,2.87039z"/>
  <path id="1234" class="fil0" d="M187.058 118.409l0 -9.99986 1.52354 0 0 1.42075c0.736133,-1.09931 1.7969,-1.64896 3.18229,-1.64896 0.60423,0 1.15718,0.109271 1.66181,0.324629 0.507808,0.218541 0.883949,0.501443 1.13467,0.854952 0.253904,0.350444 0.427535,0.768313 0.530322,1.25042 0.0610595,0.314964 0.0932396,0.864617 0.0932396,1.64896l0 6.1491 -1.69717 0 0 -6.08486c0,-0.687804 -0.0642422,-1.20528 -0.196027,-1.54924 -0.131903,-0.340778 -0.366475,-0.614014 -0.70077,-0.816524 -0.337478,-0.205693 -0.72965,-0.30848 -1.18288,-0.30848 -0.723285,0 -1.34366,0.23139 -1.8708,0.687804 -0.523957,0.459715 -0.784344,1.32751 -0.784344,2.61012l0 5.46118 -1.69387 0z"/>
  <path id="12345" class="fil0" d="M201.484 116.892l0.244356 1.49784c-0.475746,0.0997227 -0.903281,0.151116 -1.2793,0.151116 -0.617197,0 -1.09294,-0.0964222 -1.4336,-0.292449 -0.337596,-0.192962 -0.575469,-0.450049 -0.713619,-0.768313 -0.138268,-0.314964 -0.208993,-0.983554 -0.208993,-1.99929l0 -5.75374 -1.24394 0 0 -1.31785 1.24394 0 0 -2.47833 1.68762 -1.01573 0 3.49407 1.70354 0 0 1.31785 -1.70354 0 0 5.84698c0,0.485294 0.0288795,0.793892 0.0867564,0.93216 0.0610595,0.13815 0.157482,0.247421 0.292567,0.330995 0.134968,0.0803911 0.327812,0.122237 0.578533,0.122237 0.189662,0 0.437201,-0.0225142 0.745681,-0.0675427z"/>
  <path id="123456" class="fil0" d="M203.123 118.409l0 -9.99986 1.52366 0 0 1.51388c0.388872,-0.707136 0.748864,-1.1764 1.07998,-1.40142 0.327812,-0.225024 0.691105,-0.34066 1.08646,-0.34066 0.572168,0 1.1507,0.183179 1.7422,0.546353l-0.585016 1.57505c-0.411504,-0.247539 -0.826072,-0.369658 -1.24076,-0.369658 -0.37284,0 -0.703953,0.112571 -0.999703,0.334295 -0.295632,0.225024 -0.504625,0.533623 -0.629927,0.928977 -0.189662,0.601048 -0.282901,1.26009 -0.282901,1.97689l0 5.23615 -1.69399 0z"/>
  <path id="1234567" class="fil0" d="M216.119 118.409l0 -1.46897c-0.781044,1.13149 -1.83862,1.69399 -3.1758,1.69399 -0.588199,0 -1.14104,-0.112571 -1.65214,-0.337478 -0.511108,-0.225024 -0.890314,-0.511108 -1.13785,-0.851887 -0.250721,-0.343961 -0.424352,-0.76183 -0.523957,-1.25679 -0.0675427,-0.334295 -0.102905,-0.861435 -0.102905,-1.58472l0 -6.19401 1.69399 0 0 5.54475c0,0.887132 0.0353627,1.48181 0.102905,1.79041 0.109271,0.446748 0.334295,0.793892 0.678256,1.0511 0.347144,0.253904 0.77456,0.379324 1.28249,0.379324 0.507926,0 0.983554,-0.128602 1.43042,-0.388989 0.446748,-0.260387 0.76183,-0.617197 0.945008,-1.06394 0.186479,-0.450049 0.279601,-1.10249 0.279601,-1.95438l0 -5.35827 1.69399 0 0 9.99986 -1.51399 0z"/>
  <path id="12345678" class="fil0" d="M226.816 114.745l1.66499 0.218541c-0.179996,1.14764 -0.646076,2.04762 -1.39824,2.69688 -0.748864,0.649377 -1.67148,0.974006 -2.7643,0.974006 -1.36618,0 -2.46867,-0.446866 -3.29792,-1.34036 -0.832555,-0.893615 -1.25042,-2.17622 -1.25042,-3.84769 0,-1.07998 0.179996,-2.02498 0.536805,-2.83503 0.359992,-0.810041 0.903281,-1.41757 1.63611,-1.82259 0.72965,-0.40502 1.52684,-0.607413 2.38509,-0.607413 1.08646,0 1.97677,0.276418 2.6647,0.826072 0.691105,0.549654 1.13467,1.32751 1.3307,2.34007l-1.64896 0.253904c-0.157482,-0.671773 -0.4339,-1.17652 -0.832555,-1.51718 -0.398537,-0.337478 -0.880648,-0.507926 -1.44645,-0.507926 -0.854952,0 -1.54924,0.305416 -2.08286,0.919312 -0.533623,0.610713 -0.800375,1.57824 -0.800375,2.90257 0,1.34366 0.257087,2.32085 0.774678,2.93157 0.514291,0.607531 1.18606,0.912828 2.01544,0.912828 0.66529,0 1.21824,-0.205693 1.66499,-0.613896 0.446748,-0.408203 0.72965,-1.03507 0.848586,-1.88365zm-3.92797 4.92449l0.488594 -1.66511 1.26327 0 -0.311781 1.00607c0.533505,0.0643601 0.935343,0.228207 1.2054,0.495077 0.269935,0.266752 0.40502,0.562502 0.40502,0.890314 0,0.469381 -0.225024,0.887249 -0.678256,1.24724 -0.453232,0.359992 -1.13149,0.539988 -2.04432,0.539988 -0.514409,0 -0.96434,-0.0353627 -1.35651,-0.112453l0.106088 -1.10261c0.40172,0.0256969 0.69747,0.0385453 0.883949,0.0385453 0.591382,0 1.00607,-0.0802733 1.24394,-0.244238 0.179996,-0.125302 0.273236,-0.279601 0.273236,-0.462897 0,-0.112453 -0.0353627,-0.212058 -0.109271,-0.298932 -0.0707253,-0.0899391 -0.205693,-0.163847 -0.398655,-0.228207 -0.196027,-0.0610595 -0.520656,-0.0964222 -0.970705,-0.102788z"/>
  <path id="123456789" class="fil0" d="M236.459 117.175c-0.630045,0.533505 -1.23428,0.909646 -1.81293,1.13137 -0.581834,0.218659 -1.2054,0.32793 -1.87069,0.32793 -1.09943,0 -1.94153,-0.266752 -2.53303,-0.803558 -0.588199,-0.536805 -0.883949,-1.22473 -0.883949,-2.05728 0,-0.491777 0.109389,-0.938525 0.334295,-1.34355 0.221842,-0.40502 0.514291,-0.72965 0.874401,-0.974006 0.363175,-0.244238 0.768195,-0.430717 1.22143,-0.556019 0.331112,-0.0868743 0.832555,-0.173631 1.50433,-0.254022 1.36936,-0.163847 2.37861,-0.356691 3.02469,-0.585016 0.00648316,-0.23139 0.0096658,-0.379206 0.0096658,-0.440265 0,-0.691105 -0.160664,-1.1797 -0.482111,-1.45942 -0.430717,-0.385689 -1.07691,-0.575351 -1.92868,-0.575351 -0.797193,0 -1.38539,0.138268 -1.7679,0.417869 -0.379324,0.279719 -0.658924,0.774678 -0.842103,1.485l-1.65544 -0.228207c0.151116,-0.707136 0.398537,-1.28249 0.742498,-1.71639 0.343961,-0.437201 0.845404,-0.774678 1.49796,-1.00937 0.652441,-0.23469 1.40779,-0.353509 2.26934,-0.353509 0.854952,0 1.54606,0.102788 2.07968,0.302115 0.533505,0.20251 0.925677,0.453232 1.17958,0.758529 0.250721,0.305416 0.424352,0.687922 0.527257,1.154 0.0545764,0.289267 0.0835738,0.810041 0.0835738,1.56221l0 2.25967c0,1.57824 0.0353627,2.57476 0.109271,2.98932 0.0707253,0.417869 0.215359,0.819707 0.427535,1.20221l-1.7712 0c-0.173513,-0.350326 -0.289267,-0.76183 -0.337478,-1.23428zm-0.141451 -3.78652c-0.617197,0.253904 -1.53969,0.46608 -2.7676,0.642776 -0.69747,0.0997227 -1.19243,0.212176 -1.47851,0.337596 -0.289385,0.125302 -0.514291,0.30848 -0.66859,0.552836 -0.1576,0.241056 -0.237873,0.507808 -0.237873,0.803558 0,0.453232 0.173513,0.829373 0.514291,1.13149 0.34066,0.298932 0.842103,0.450049 1.50103,0.450049 0.652559,0 1.23439,-0.141451 1.7422,-0.427535 0.507926,-0.286084 0.883949,-0.678256 1.12182,-1.17322 0.183297,-0.382506 0.273236,-0.948309 0.273236,-1.69399l0 -0.623562zm-5.49972 -6.4577c-0.00648316,-0.652559 0.17033,-1.17652 0.536805,-1.56539 0.356691,-0.388989 0.813224,-0.581834 1.37243,-0.581834 0.388989,0 0.919312,0.167148 1.5912,0.507926 0.37284,0.189544 0.66529,0.282784 0.887132,0.282784 0.199328,0 0.353627,-0.0545764 0.459715,-0.163965 0.109271,-0.112453 0.183179,-0.327812 0.228207,-0.655624l1.22143 0c-0.0160311,0.716801 -0.199328,1.25361 -0.539988,1.6103 -0.340778,0.356809 -0.777861,0.536805 -1.30512,0.536805 -0.395355,0 -0.916011,-0.176695 -1.56209,-0.52714 -0.421169,-0.225024 -0.729768,-0.34066 -0.922612,-0.34066 -0.215359,0 -0.385689,0.0770906 -0.517474,0.228207 -0.138268,0.150999 -0.205693,0.37284 -0.199328,0.66859l-1.25031 0z"/>
  <path id="12345678910" class="fil0" d="M240.027 113.408c0,-1.85147 0.514291,-3.22401 1.54606,-4.11433 0.858252,-0.739316 1.90617,-1.11216 3.14362,-1.11216 1.37573,0 2.50085,0.449931 3.37195,1.35321 0.874283,0.89998 1.30818,2.14392 1.30818,3.73182 0,1.28897 -0.192844,2.30152 -0.578533,3.03765 -0.385807,0.739316 -0.948309,1.31148 -1.68432,1.71969 -0.739316,0.408203 -1.54299,0.610713 -2.41727,0.610713 -1.39824,0 -2.52973,-0.446866 -3.39435,-1.34685 -0.864617,-0.896797 -1.29533,-2.18895 -1.29533,-3.87976zm1.74208 0c0,1.2826 0.279719,2.24046 0.839038,2.87687 0.55932,0.639711 1.26315,0.957857 2.10856,0.957857 0.842221,0 1.54287,-0.321447 2.10219,-0.96104 0.556137,-0.639711 0.835738,-1.6169 0.835738,-2.92827 0,-1.23758 -0.279601,-2.17622 -0.842103,-2.81263 -0.562502,-0.63641 -1.26009,-0.954674 -2.09583,-0.954674 -0.845404,0 -1.54924,0.318264 -2.10856,0.951492 -0.55932,0.633228 -0.839038,1.59108 -0.839038,2.87039z"/>
  <g id="_115372656">
  </g>
  <g id="_115372464">
  </g>
  <g id="_115372488">
  </g>
  <g id="_115372440">
  </g>
  <g id="_115372944">
  </g>
  <g id="_115372896">
  </g>
  <g id="_115372320">
  </g>
  <g id="_115372824">
  </g>
  <g id="_115371528">
  </g>
  <g id="_115371888">
  </g>
  <g id="_115372104">
  </g>
  <g id="_115372128">
  </g>
  <g id="_115372032">
  </g>
  <g id="_115372008">
  </g>
  <g id="_115371816">
  </g>
 </g>
</svg>
