<?xml version="1.0" encoding="UTF-8"?>
<!DOCTYPE svg PUBLIC "-//W3C//DTD SVG 1.1//EN" "http://www.w3.org/Graphics/SVG/1.1/DTD/svg11.dtd">
<!-- Creator: CorelDRAW -->
<svg xmlns="http://www.w3.org/2000/svg" xml:space="preserve" width="260.427mm" height="79.9906mm" style="shape-rendering:geometricPrecision; text-rendering:geometricPrecision; image-rendering:optimizeQuality; fill-rule:evenodd; clip-rule:evenodd"
viewBox="0 0 261.253 80.2444"
 xmlns:xlink="http://www.w3.org/1999/xlink">
 <defs>
  <style type="text/css">
   <![CDATA[
    .fil0 {fill:#667AB3}
    .fil3 {fill:#1F194F}
    .fil1 {fill:#1F194F;fill-rule:nonzero}
    .fil2 {fill:#A82720;fill-rule:nonzero}
   ]]>
  </style>
 </defs>
 <g id="Camada_x0020_1">
  <metadata id="CorelCorpID_0Corel-Layer"/>
  <g id="_170809624">
   <path id="_170810080" class="fil0" d="M180.092 16.7359c2.15421,-1.86891 6.43666,-5.58758 8.59108,-7.44495 2.15421,-1.85738 2.18351,-1.865 2.18551,-1.78495 0.0023073,0.0799529 -0.00712253,0.24016 -0.0115365,0.586856 -0.00421333,0.346897 -0.00401269,0.880485 0.0052165,1.24263 0.00902856,0.362146 -0.0121384,0.560272 -0.0098311,0.651561 0.00240762,0.0915897 0.0281892,0.0839656 0.0281892,0.0839656 0.0260825,-0.0075238 0.0260825,-0.0075238 0.182778,-0.0187593 0.130513,-0.0075238 0.378698,-0.0223708 1.09767,-0.0482526 0.718573,-0.0259822 1.94044,-0.0850691 3.06419,-0.129811 1.12416,-0.0444406 2.18591,-0.0811567 2.85272,-0.103026 0.666408,-0.0221701 0.905163,-0.033506 1.0746,-0.0408292 0.170038,-0.00732317 0.287911,-0.00712253 0.340176,-0.00712253 0.052165,-0.0114362 0.0391238,-0.00371174 0.0505599,0.975787 0.0116368,0.979498 0.0346095,2.9385 0.0456444,3.90706 0.0114362,0.967761 0.0110349,0.952814 -3.59126,2.05761 -3.6025,1.10479 -10.8198,3.33334 -14.4088,4.4573 -3.61463,1.13168 -3.61373,1.16579 -3.61995,0.921816 -0.00581841,-0.232536 -0.00491555,-0.720479 -0.00210666,-1.12436 0.00310984,-0.404078 0.00802539,-0.728003 -0.000200635,-1.0445 0.0180571,-0.327737 0.0228724,-0.659486 0.00511618,-0.845976 -0.0177562,-0.187092 -0.0319009,-0.225112 -0.0330044,-0.267045 -0.000802539,-0.042033 -0.00170539,-0.0725294 -0.00260825,-0.106838 -0.000802539,-0.0340076 -0.00130413,-0.0495568 2.15582,-1.91817z"/>
   <path id="_170809240" class="fil0" d="M181.539 23.3009c3.62236,-0.311686 10.8795,-0.95472 14.488,-1.29339 3.6349,-0.331248 3.60841,-0.346396 3.61012,-0.28149 -0.0245777,0.0608926 -0.0212673,0.201838 -0.0132419,0.510816 0.00762412,0.308476 -0.00682158,0.785083 -0.0101321,1.68473 -0.00361142,0.895533 0.0029092,2.20668 -0.00310984,3.00691 -0.00611936,0.800733 -0.0117371,1.08614 -0.0212673,1.23511 -0.00932951,0.14867 -0.0221701,0.159806 -3.62306,-0.244373 -3.60109,-0.397056 -10.8163,-1.21384 -14.4308,-1.62976 -3.61433,-0.416116 -3.60159,-0.435177 -3.6036,-0.503794 -0.00150476,-0.0686171 -0.00451428,-0.194415 0.0161511,-0.403878 -0.00491555,-0.198528 -0.0254806,-0.488244 -0.0176559,-0.709043 0.00742348,-0.2212 0.0165524,-0.373682 0.0122387,-0.549037 -0.00441396,-0.16763 -0.00902856,-0.362045 -0.0111352,-0.441898 -0.00210666,-0.083765 -0.014847,-0.0688177 3.60751,-0.380905z"/>
   <path id="_170809864" class="fil0" d="M181.505 28.2256c3.61162,0.823906 10.8741,2.47934 14.4724,3.29161 3.59818,0.81237 3.5714,0.789397 3.54772,1.40705 -0.0236749,0.617553 -0.0313993,1.87904 -0.0922919,3.61323 -0.0349104,1.7378 -0.110048,3.95621 -0.134225,5.08448 0.00250793,1.13569 0.016452,1.17391 -3.55906,-0.823906 -3.57531,-1.99782 -10.741,-6.03138 -14.3302,-8.04836 -3.58925,-2.01678 -3.58905,-2.00916 -3.57671,-2.56572 0.0121384,-0.55626 0.0365155,-1.66186 0.0490552,-2.2144 0.0120381,-0.55636 0.0116368,-0.567796 3.62336,0.25601z"/>
   <path id="_170809576" class="fil1" d="M73.2426 44.2594c0.177963,-4.38306 0.275572,-7.91604 0.313692,-10.569 0.0581841,-3.94107 0.0792507,-9.34195 0.0635009,-16.2218 -0.0158501,-6.88749 -0.0539707,-11.5301 -0.113459,-13.9009 -0.0296939,-1.18525 -0.0595885,-2.371 -0.0896837,-3.56769 4.06305,0.0468482 7.86388,0.0705231 11.4024,0.0746361 3.53859,0.00441396 6.94627,-0.0105333 10.196,-0.0484533 -0.0843669,4.97002 -0.10744,8.21759 -0.0688177,9.76118 -0.605917,-0.0350107 -1.20872,-0.0699212 -1.78475,-0.10122 -0.474401,-0.00822602 -0.945691,-0.0203644 -1.41728,-0.0361142 -0.47109,-0.0081257 -0.945391,-0.0163517 -1.41698,-0.0359136 -1.33753,-0.00170539 -2.67175,-0.00331047 -4.00948,-0.00501587 -0.47089,-0.000501587 -1.80792,0.0244774 -4.06024,0.0638018 -0.0149473,2.51937 -0.0046146,5.03523 0.00652063,7.54697 0.968865,0.035412 1.96712,0.0672126 2.96207,0.102524 1.10229,0.00140444 2.20106,0.00270857 3.30325,0.00411301 0.941879,0.00120381 2.38344,-0.0316 4.34735,-0.0937967 -0.0544723,4.08191 -0.0523656,7.29508 0.00581841,9.60869 -2.17749,-0.109145 -3.80453,-0.172245 -4.87723,-0.173449 -1.78254,-0.00210666 -3.72027,0.0566793 -5.84338,0.161009 0.0190603,3.89131 0.0383212,7.77901 0.0833637,11.6631 0.010433,1.45219 0.0471491,2.90449 0.0832634,4.34896 0.0118374,0.476307 0.0237752,0.952914 0.0355123,1.42932 -1.46875,-0.0207657 -2.9082,-0.0454438 -4.35126,-0.0737332 -0.340076,-0.000300952 -1.93863,0.0243771 -4.77009,0.0627986zm25.2419 0.0305968c0.0886805,-4.80259 0.177261,-9.60127 0.266042,-14.4037 -0.016753,-2.75602 -0.00742348,-5.50782 0.00190603,-8.26344 -0.0371174,-1.4864 -0.0758399,-3.01504 -0.114763,-4.56624 -0.0393244,-1.57037 -0.0887808,-3.53358 -0.173549,-5.86987 1.62655,0.0438387 2.9387,0.0681155 3.90997,0.0695199 1.12506,0.00130413 2.40972,-0.0198628 3.87716,-0.0602907 0.0046146,1.22738 0.00902856,2.44694 0.0135428,3.66289 0.49948,-0.948199 0.900047,-1.66065 1.22849,-2.12532 0.331749,-0.460858 0.713758,-0.883394 1.14914,-1.26029 0.409194,-0.37288 0.872761,-0.665806 1.34255,-0.840559 0.466476,-0.182477 0.961241,-0.273465 1.48761,-0.272663 0.47099,0.000501587 1.02334,0.108042 1.63026,0.318106 0.0592875,2.36338 0.160508,4.30733 0.251596,5.85121 0.0679148,1.66196 0.162012,3.32391 0.25912,4.98577 -0.744254,-0.343988 -1.4554,-0.519945 -2.11268,-0.520848 -0.811166,-0.00110349 -1.51238,0.192609 -2.08199,0.565388 -0.592374,0.376591 -1.10118,0.95151 -1.53004,1.70961 -0.425345,0.776958 -0.767628,1.72947 -1.00036,2.88021 -0.25922,1.13559 -0.396956,2.95334 -0.442399,5.44232 -0.0423339,2.47744 -0.0231733,5.32474 0.0570806,8.52266 0.0283898,1.12847 0.0895834,2.52358 0.183681,4.18514 -1.33532,-0.0435377 -2.65089,-0.0716266 -3.98541,-0.073332 -1.30473,-0.00130413 -2.72331,0.0234743 -4.21694,0.0637015zm29.1839 -33.9103c1.67761,0.00180571 3.31328,0.411903 4.88094,1.24072 1.56776,0.829123 2.92194,2.00845 4.02042,3.55354 1.10168,1.55251 1.94485,3.35632 2.51997,5.41142 0.552046,2.07055 0.86945,4.28536 0.929239,6.66378 0.0579834,2.31372 -0.122187,4.51649 -0.518039,6.59336 -0.418424,2.09603 -1.12807,4.04289 -2.15823,5.86726 -1.05293,1.82818 -2.40852,3.20243 -4.03737,4.10378 -1.65122,0.912888 -3.42594,1.35669 -5.28682,1.35438 -1.73007,-0.00200635 -3.39163,-0.404179 -5.01075,-1.19919 -1.59374,-0.813674 -2.95705,-1.97394 -4.07168,-3.51131 -1.08513,-1.53746 -1.94555,-3.37558 -2.52278,-5.52217 -0.603308,-2.13907 -0.924825,-4.38427 -0.983611,-6.74012 -0.0590869,-2.35174 0.149172,-4.60798 0.619058,-6.7342 0.469385,-2.14529 1.23521,-4.06546 2.34371,-5.77557 1.08533,-1.71011 2.44223,-3.02708 4.09355,-3.94367 1.65463,-0.916599 3.37367,-1.36442 5.18239,-1.36201zm0.0818589 9.52493c-0.863431,-0.000902856 -1.61611,0.356327 -2.27861,1.07219 -0.662395,0.711952 -1.16288,1.75194 -1.46845,3.12368 -0.305767,1.36793 -0.451027,2.8772 -0.410599,4.4895 0.0597891,2.37862 0.497875,4.20079 1.26239,5.47111 0.767528,1.25878 1.72536,1.8964 2.85383,1.8977 0.863431,0.00110349 1.61611,-0.363951 2.27831,-1.08343 0.664903,-0.723288 1.13569,-1.79387 1.46624,-3.21136 0.304664,-1.40996 0.42354,-2.93448 0.38261,-4.55812 -0.0334057,-1.33402 -0.194816,-2.54646 -0.48353,-3.63289 -0.314595,-1.06788 -0.781472,-1.94505 -1.40294,-2.58959 -0.617854,-0.652765 -1.3587,-0.977592 -2.19926,-0.978796zm15.7624 24.4397c0.0554755,-5.21018 0.10754,-10.4206 0.186189,-15.6309 0.00280889,-4.06315 0.0052165,-8.13764 0.00722285,-12.2121 -0.0438387,-1.75335 -0.0615948,-3.50669 -0.0797523,-5.26004 1.49563,0.0438387 2.80457,0.0680152 3.95892,0.0695199 1.28567,0.00160508 2.54064,-0.0196622 3.74665,-0.0601904 -0.0160508,1.44447 -0.0325028,2.8777 -0.0226717,4.31465 0.397257,-0.857011 0.713858,-1.53516 0.999863,-1.9922 0.292425,-0.46477 0.631297,-0.902555 1.03889,-1.3292 0.408392,-0.422336 0.848083,-0.757195 1.28687,-0.996853 0.438286,-0.258718 0.930142,-0.460156 1.47938,-0.600399 0.571608,-0.15178 1.14552,-0.231031 1.75044,-0.230529 0.706435,0.00100317 1.33673,0.0930945 1.91997,0.276776 0.606318,0.176157 1.10911,0.409395 1.50917,0.703224 0.454839,0.27507 0.832834,0.610933 1.15235,0.969667 0.323323,0.362246 0.595684,0.79351 0.845976,1.26239 0.247182,0.457748 0.552046,1.1366 0.862027,2.02119 0.566893,-1.38669 1.17191,-2.43791 1.834,-3.15388 0.636513,-0.700416 1.38528,-1.22538 2.2139,-1.56746 0.858315,-0.334358 1.71783,-0.497273 2.61056,-0.49627 1.17722,0.00160508 2.28613,0.269653 3.34629,0.812169 1.06346,0.542516 1.94074,1.48881 2.64115,2.81611 0.700717,1.33121 1.09687,3.04293 1.15014,5.16965 0.0251797,0.995248 0.0101321,2.48917 -0.0174552,4.50916 -0.0539707,2.01247 -0.0721282,5.45797 -0.106336,10.352 -0.0342082,4.89418 -0.0264838,8.32443 -0.00310984,10.2951 -1.234,-0.0434374 -2.4644,-0.0716266 -3.61875,-0.073031 -1.41628,-0.00180571 -2.91021,0.0232736 -4.47907,0.0631999 0.0617955,-2.74819 0.132519,-6.18587 0.159204,-10.329 0.0529676,-4.13929 0.0336063,-7.00576 -0.00672126,-8.60652 -0.0351111,-1.39511 -0.166025,-2.44724 -0.366359,-3.1299 -0.226918,-0.701519 -0.503493,-1.1705 -0.823906,-1.4227 -0.320313,-0.247884 -0.689481,-0.374284 -1.05594,-0.374786 -0.418624,-0.000300952 -0.759101,0.121183 -1.06698,0.35713 -0.307272,0.258919 -0.58495,0.666207 -0.806852,1.20732 -0.322119,0.719977 -0.564686,1.61922 -0.720178,2.71308 -0.161611,0.853299 -0.260023,2.14549 -0.294833,3.88348 -0.0601904,1.76849 -0.0801535,4.10488 -0.0593879,7.01318 0.0205651,2.89676 0.0408292,5.79343 0.0610933,8.68277 -1.44347,-0.0437384 -2.75542,-0.0720278 -3.93274,-0.0734323 -1.18073,-0.00150476 -2.59651,0.0235746 -4.22085,0.0634006 0.0857713,-1.9286 0.161611,-5.16042 0.204748,-9.69256 0.0429358,-4.54307 0.0455441,-7.57316 0.00702221,-9.10962 -0.0328038,-1.2957 -0.13583,-2.27169 -0.309078,-2.92375 -0.172847,-0.640626 -0.421533,-1.16298 -0.722485,-1.55211 -0.29413,-0.385219 -0.694898,-0.583947 -1.19197,-0.584549 -0.526666,-0.000702221 -0.965354,0.238956 -1.37114,0.741646 -0.35402,0.491254 -0.676038,1.21474 -0.943785,2.14087 -0.238254,0.929641 -0.415715,2.20628 -0.479116,3.84145 -0.0899846,1.62755 -0.119277,4.12023 -0.1265,7.47053 -0.00411301,3.3503 -0.0180571,6.57089 0.0336063,9.66257 -1.62675,-0.0443403 -2.96518,-0.0725294 -3.98561,-0.0736329 -1.12817,-0.00160508 -2.51746,0.0233739 -4.19407,0.0634006z"/>
   <path id="_170809840" class="fil2" d="M199.16 44.4117c0.208259,-5.25201 0.35733,-10.7746 0.395451,-16.5492 0.0346095,-5.77437 0.0432368,-11.8272 -0.0371174,-18.1505 -2.90439,0.122086 -5.786,0.236749 -8.66431,0.351512 -0.00401269,-1.19679 -0.00792507,-2.39748 0.0143454,-3.59788 0.00381206,-1.9288 -0.0229727,-4.03276 -0.0280889,-6.3234 3.85359,0.0464469 8.33487,0.0785485 13.4466,0.0845675 1.67761,-0.00531682 3.35541,-0.0110349 5.03252,-0.0280889 1.62544,0.00190603 3.24767,0.00391238 4.8991,0.00601904 0.866541,-0.00662094 1.75585,-0.0132419 2.64828,-0.0309981 -0.0254806,1.06326 -0.0512622,2.12282 -0.0511618,3.17484 -0.00922919,1.71151 -0.0263835,3.11395 0.00150476,4.21564 0.00180571,1.11673 0.023073,1.96291 0.037318,2.53101 -2.91663,-0.239859 -5.33026,-0.368767 -7.19135,-0.371074 -0.500182,-0.000401269 -0.970971,-0.00110349 -1.44206,-0.00160508 -0.113158,3.8266 -0.181675,7.34845 -0.204948,10.5882 -0.014546,4.63476 -0.0324025,9.13219 -0.00431365,13.5081 0.0313993,4.37564 0.0678145,7.90531 0.135629,10.6039 -2.20237,-0.0444406 -3.64513,-0.0732317 -4.2992,-0.0738336 -0.57542,-0.000802539 -2.1481,0.0240762 -4.68823,0.0627986zm39.932 -9.74723c-0.150677,1.2955 -0.411903,4.44356 -0.78398,9.40956 -1.56084,0.48985 -2.86426,0.816081 -3.93274,0.978796 -1.07179,0.166326 -2.1494,0.241564 -3.24486,0.239859 -1.62193,-0.00210666 -3.12428,-0.179167 -4.49723,-0.538905 -1.34325,-0.359939 -2.53371,-1.01331 -3.53077,-1.91004 -1.0104,-0.912286 -1.87262,-2.03022 -2.57715,-3.3841 -0.697607,-1.34245 -1.21555,-2.95916 -1.61551,-4.81985 -0.399965,-1.86018 -0.618055,-3.77404 -0.66701,-5.73314 -0.0695199,-2.76384 0.20234,-5.47703 0.819292,-8.1251 0.640025,-2.64467 1.4548,-4.71321 2.51636,-6.19851 1.06467,-1.49282 2.29376,-2.55117 3.69429,-3.17805 1.423,-0.635009 2.86416,-0.938067 4.35538,-0.936161 1.54037,0.00150476 3.04563,0.293228 4.45018,0.874366 1.43002,0.558166 2.63283,1.56967 3.64011,3.00009 1.02996,1.43053 1.75375,3.03259 2.21751,4.82817 0.463667,1.79568 0.721583,3.73241 0.773748,5.81349 0.0307974,1.22768 -0.0393244,2.59571 -0.158301,4.11251 -4.76788,0.0134425 -9.53938,0.0153486 -14.2848,0.0170539 0.00872761,0.342985 -0.00963046,0.651762 -0.00210666,0.94519 0.0581841,2.32144 0.627886,4.04108 1.70198,5.14377 1.07751,1.09516 2.37993,1.65724 3.86814,1.65895 0.889614,0.00110349 1.90904,-0.165323 3.05516,-0.49938 1.14582,-0.341681 2.54465,-0.896436 4.20229,-1.69857zm-12.7897 -10.5088c2.22725,0.00270857 4.48057,0.00541714 6.7341,0.00832634 -0.00912888,-0.358434 -0.0173549,-0.686271 -0.0236749,-0.934055 -0.0282895,-1.13569 -0.170038,-2.09252 -0.438587,-2.88954 -0.26544,-0.793309 -0.636714,-1.38819 -1.12024,-1.75475 -0.480018,-0.370171 -1.00809,-0.553752 -1.58351,-0.554554 -0.421935,-0.000702221 -0.811768,0.101922 -1.17281,0.307272 -0.387526,0.201538 -0.716667,0.517336 -1.00107,0.902254 -0.297341,0.403577 -0.553752,0.868246 -0.750374,1.37495 -0.170038,0.518039 -0.314595,1.02875 -0.406787,1.51279 -0.0661091,0.491655 -0.154087,1.16579 -0.23705,2.02731zm34.6359 9.99381c-0.0564787,0.869049 -0.173649,2.45446 -0.377494,4.76026 -0.139742,1.73419 -0.279183,3.46446 -0.392742,5.19092 -2.10546,0.816884 -4.19146,1.22237 -6.20944,1.21966 -1.46834,-0.00170539 -2.7825,-0.235846 -3.89663,-0.713457 -1.35198,-0.569602 -2.55408,-1.56595 -3.63981,-2.99297 -1.08363,-1.47256 -1.91536,-3.20765 -2.46279,-5.22071 -0.635009,-2.35645 -0.992339,-4.9943 -1.06557,-7.91062 -0.0671123,-2.67917 0.159003,-5.26716 0.646244,-7.7439 0.513123,-2.48817 1.30202,-4.54187 2.38675,-6.14514 1.06186,-1.60708 2.26727,-2.69192 3.61453,-3.23172 1.34967,-0.558567 2.83768,-0.823706 4.489,-0.821599 0.94208,0.00120381 1.91496,0.0746361 2.91332,0.236047 0.975586,0.168934 2.18772,0.513424 3.64363,1.05604 0.00642031,0.251797 0.01264,0.503593 0.0449422,0.743552 0.0719275,0.785184 0.117873,1.57057 0.164721,2.39778 0.0463466,0.800432 0.104731,2.07737 0.226717,3.82299 0.0505599,0.968363 0.127102,1.9292 0.229626,2.88974 -1.9923,-1.0738 -3.73602,-1.61691 -5.22744,-1.61882 -1.076,-0.00120381 -2.00946,0.333154 -2.7816,0.9799 -0.794212,0.662395 -1.37545,1.6109 -1.73669,2.85674 -0.33516,1.23451 -0.507806,2.6865 -0.466877,4.32177 0.041732,1.66948 0.260123,3.06479 0.628388,4.18574 0.368064,1.12486 0.942381,1.97184 1.71503,2.53682 0.773045,0.561175 1.62404,0.847982 2.53642,0.849186 0.444807,0.000601904 0.995349,-0.0826615 1.61982,-0.223206 0.627084,-0.158903 1.17261,-0.318407 1.63858,-0.508408 0.466676,-0.174853 1.06397,-0.482627 1.75937,-0.916599z"/>
   <path id="_170809792" class="fil1" d="M73.7954 72.5189c0.0372177,-2.6873 0.0591872,-4.9321 0.0661091,-6.74654 -0.0193612,-1.81053 -0.0272863,-4.21553 -0.0504596,-7.21904 -0.0233739,-3.00721 -0.0469485,-4.99309 -0.0713256,-5.96908 -0.0378196,-0.461058 -0.0493561,-0.918505 -0.0608926,-1.37966 0.997957,0.0279885 2.20518,0.0368165 3.59166,0.0386222 1.31145,0.00160508 2.43962,-0.00451428 3.43346,-0.0299949 -0.0218692,0.175254 -0.0175555,0.350609 -0.0132419,0.518239 0.00331047,0.125698 0.0144457,0.575621 0.0081257,1.3605 -0.0121384,0.568197 0.00210666,1.13599 0.016452,1.70399 -0.0171543,0.358033 -0.00782475,0.724191 0.00150476,1.10148 -0.813172,-0.0847681 -1.47166,-0.127303 -2.02109,-0.127905 -0.601804,-0.00110349 -1.02023,0.00631999 -1.2328,0.00591872 -0.209061,0.00722285 -0.548736,0.0258819 -0.99274,0.0674132 0.00421333,1.19267 0.00792507,2.38585 0.0115365,3.57892 0.498076,0.0350107 1.0743,0.0547733 1.73158,0.0556761 0.235545,0 0.862428,-0.0412304 1.88416,-0.115967 -0.0187593,1.33402 -0.0311987,2.92325 -0.0113359,4.76086 -0.710146,-0.0203644 -1.28597,-0.0362146 -1.67851,-0.0367161 -0.575621,-0.000601904 -1.20561,0.0406285 -1.93673,0.112255 0.00581841,1.26891 0.0113359,2.5306 0.0430361,3.7924 0.235545,0.000501587 0.47099,0.000501587 0.706435,0.000702221 0.209262,0.000401269 0.657279,-0.00682158 1.33653,-0.0479517 0.417721,-0.0260825 0.835844,-0.0485536 1.28316,-0.0745358 0.183079,-0.00722285 0.522252,-0.0489549 0.964952,-0.124694 -0.0135428,1.54388 -0.0258819,3.14073 -0.0106336,4.78343 -1.02404,-0.0163517 -2.12342,-0.0368165 -3.35632,-0.0383212 -0.915496,0.0102324 -1.8344,0.0169536 -2.7501,0.0159505 -0.313793,0.00702221 -0.604613,0.0143454 -0.892523,0.0140444zm12.9482 7.32246c-0.0154489,-1.66206 -0.00481523,-3.32381 0.00571809,-4.98577 0.00762412,-0.735326 0.0250793,-2.12673 -0.000401269,-4.18113 -0.172145,0.442098 -0.320514,0.773447 -0.419427,1.00187 -0.125196,0.232335 -0.269954,0.453234 -0.428656,0.647448 -0.168032,0.209563 -0.357431,0.350308 -0.567395,0.460557 -0.180571,0.0989129 -0.388429,0.159806 -0.597691,0.159505 -0.575721,-0.000802539 -1.08142,-0.352114 -1.49513,-1.06517 -0.43628,-0.702221 -0.773045,-1.60979 -0.984715,-2.74579 -0.237551,-1.12847 -0.37298,-2.34833 -0.405683,-3.65948 -0.02528,-0.998659 0.00240762,-1.98578 0.0828621,-2.94602 0.106838,-0.960438 0.241363,-1.85216 0.455942,-2.67917 0.188597,-0.826916 0.485034,-1.52773 0.840358,-2.09543 0.378196,-0.567395 0.816282,-0.963147 1.33011,-1.20642 0.494564,-0.235645 1.04049,-0.360841 1.59003,-0.36044 0.866742,0.00100317 1.89319,0.238755 3.03309,0.70503 -0.0128406,2.61487 -0.0306971,5.0275 -0.0538704,7.23037 0.00341079,2.21471 0.00611936,4.40995 0.0351111,6.6056 0.0291923,2.19544 0.0791504,5.24098 0.150376,9.11744 -0.395953,-0.0197625 -0.815179,-0.0353117 -1.25979,-0.0359136 -0.366459,-0.000300952 -0.813975,0.0143454 -1.31085,0.0329041zm-0.108042 -18.894c-0.238354,-0.110951 -0.475103,-0.168332 -0.6323,-0.168633 -0.392441,-0.000501587 -0.724191,0.201237 -0.98301,0.566492 -0.271459,0.38873 -0.447315,0.952613 -0.585151,1.70329 -0.111954,0.750875 -0.170138,1.57017 -0.147767,2.46239 0.0139441,0.552448 0.0917904,1.0443 0.168633,1.50175 0.0734323,0.449723 0.203945,0.815781 0.367462,1.08664 0.160407,0.266944 0.350007,0.400768 0.56258,0.401069 0.157097,0.000100317 0.286205,-0.0722285 0.439089,-0.232134 0.152783,-0.16753 0.277779,-0.399765 0.374384,-0.716065 0.12329,-0.308576 0.217689,-0.712454 0.283998,-1.19638 0.0664101,-0.484131 0.102926,-1.11673 0.135328,-1.90192 0.00652063,-0.785083 0.0294933,-1.95508 0.016753,-3.50649zm11.038 11.6003c-0.471491,-0.0157498 -0.890718,-0.0353117 -1.20471,-0.035713 -0.395752,-0.000401269 -0.787491,0.0179568 -1.17963,0.0326031 -0.0180571,-0.708642 -0.035713,-1.41758 -0.0537701,-2.13816 -0.145159,0.468783 -0.267245,0.819191 -0.366158,1.05153 -0.0986119,0.236247 -0.198026,0.445911 -0.327737,0.620864 -0.1263,0.175254 -0.253502,0.323824 -0.407088,0.457046 -0.153686,0.133322 -0.308075,0.232034 -0.515631,0.30035 -0.181273,0.0761409 -0.389733,0.117773 -0.598995,0.117472 -0.343386,-0.000200635 -0.636915,-0.0998157 -0.952413,-0.294532 -0.292425,-0.18338 -0.562379,-0.519042 -0.809461,-0.97679 -0.220798,-0.46146 -0.394147,-0.98 -0.487141,-1.56324 -0.0932951,-0.579232 -0.162414,-1.25417 -0.181976,-2.02791 -0.00451428,-0.183179 0.0139441,-0.484332 0.00411301,-0.876773 -0.00331047,-1.17773 -0.00672126,-2.35555 0.0158501,-3.5409 -0.00652063,-1.30362 -0.0133422,-2.74809 -0.0269854,-4.32598 0.00190603,-0.968464 -0.0210666,-1.88677 -0.0426349,-2.74438 0.523556,0.0156495 0.968865,0.0353117 1.33522,0.0358133 0.366158,0.000401269 0.761609,-0.0181574 1.20591,-0.0327034 -0.0285904,1.98578 -0.031299,3.96384 -0.0338069,5.9419 -0.0296939,0.903157 -0.0141447,1.52854 -0.00591872,1.85627 0.00832634,0.324025 0.0137435,0.541312 0.0169536,0.66711 0.027186,1.08634 0.123992,1.81815 0.317103,2.21119 0.192509,0.385018 0.406887,0.575922 0.642332,0.576223 0.104631,0.000200635 0.20876,-0.0303962 0.311084,-0.11396 0.0767428,-0.0687174 0.181976,-0.175154 0.283396,-0.308375 0.075238,-0.125798 0.149974,-0.27818 0.197324,-0.468683 0.0739339,-0.190503 0.12008,-0.434274 0.165323,-0.716366 0.0702221,-0.342885 0.112857,-0.712554 0.129008,-1.11262 0.0386222,-0.548936 0.0438387,-1.24634 0.0523656,-2.0849 0.00421333,-0.609829 0.0100317,-1.68112 -0.00180571,-3.19019 -0.0270857,-1.08654 -0.0281892,-2.16916 -0.0292927,-3.2554 0.523656,0.0160508 0.971975,0.0356127 1.31225,0.0358133 0.392441,0.000702221 0.784482,-0.0178565 1.17652,-0.0327034 -0.0384215,2.63754 -0.0272863,5.16083 -0.0198628,7.53925 0.0106336,2.37832 0.0254806,5.1835 0.0802539,8.39686zm1.30583 -17.924c-0.00481523,-1.23501 -0.00341079,-2.21842 -0.0213676,-2.92746 -0.00511618,-0.209463 -0.0122387,-0.495467 -0.0210666,-0.846076 0.497574,0.0195619 0.919709,0.0276876 1.25979,0.0281892 0.47099,0.000601904 0.889413,-0.00652063 1.25868,-0.0253803 -0.0181574,0.327937 -0.0116368,0.587258 -0.00591872,0.812069 -0.0131416,0.651962 -0.0231733,1.29209 -0.00712253,1.93643 0.00742348,0.293328 0.0159505,0.632601 0.0258819,1.02514 -0.419126,-0.0233739 -0.811668,-0.0238755 -1.20401,-0.0241765 -0.392542,-0.000501587 -0.814376,-0.00110349 -1.28486,0.0212673zm0.0577828 17.9256c0.0466476,-1.26911 0.0460457,-2.32114 0.0519644,-3.13672 0.00531682,-0.819593 0.0314996,-1.87142 0.0253803,-3.15588 -0.00581841,-1.27704 -0.0150476,-2.69111 -0.0541714,-4.24232 -0.0127403,-1.55131 -0.0314996,-3.34689 -0.0833637,-5.40119 0.549839,0.0160508 0.998358,0.0356127 1.31235,0.0360139 0.28761,0.000300952 0.732116,-0.0181574 1.28446,-0.0329041 -0.0325028,1.96291 -0.0414311,3.68957 -0.0301955,5.1837 0.0113359,1.4866 0.0248787,3.06459 0.0663098,4.72645 0.0479517,2.95394 0.0987123,4.96651 0.125397,6.02596 -0.497474,-0.0154489 -0.942782,-0.035412 -1.28306,-0.035713 -0.369368,-0.000300952 -0.839756,0.0180571 -1.41508,0.0326031zm4.06215 7.31173c0.0251797,-2.13074 0.0240762,-4.25767 0.0226717,-6.38811 0.0136432,-3.63239 0.0158501,-6.67782 -0.0203644,-9.14011 -0.0352114,-2.45477 -0.0703224,-4.90191 -0.131014,-7.31454 0.832433,-0.315398 1.50737,-0.531782 1.97565,-0.64173 0.471391,-0.106236 0.966758,-0.166527 1.43795,-0.166025 0.601804,0.000802539 1.15856,0.16131 1.66316,0.47099 0.531281,0.309278 0.940776,0.870052 1.27473,1.65544 0.333856,0.79341 0.593076,1.73519 0.777459,2.82935 0.1582,1.09416 0.26554,2.23768 0.295836,3.44209 0.027186,1.08644 0.00130413,2.14599 -0.103628,3.17113 -0.105434,1.01742 -0.264938,1.95117 -0.506101,2.77026 -0.237752,0.819191 -0.516835,1.42892 -0.846779,1.82868 -0.330245,0.39204 -0.691588,0.593778 -1.11021,0.592976 -0.209262,0.000100317 -0.423239,-0.0537701 -0.635009,-0.153185 -0.21177,-0.0990132 -0.424844,-0.240561 -0.63852,-0.427452 -0.187995,-0.191004 -0.375989,-0.373883 -0.511618,-0.576323 -0.135629,-0.190603 -0.299648,-0.465171 -0.495367,-0.835242 0.0105333,1.45219 0.0207657,2.9082 0.0309981,4.36069 0.0239758,1.99331 0.0363149,3.51402 0.0614945,4.52411 -0.471191,-0.0195619 -0.890417,-0.035412 -1.25678,-0.0358133 -0.28771,-0.000501587 -0.735426,0.014546 -1.28456,0.0328038zm2.41103 -18.8566c-0.0144457,0.465171 -0.0308977,0.849989 -0.0496571,1.15104 0.00742348,0.293529 0.00431365,0.697506 0.00401269,1.2008 0.0029092,0.502991 -0.00341079,0.903157 0.00411301,1.20431 0.0216685,0.857713 0.0918907,1.57037 0.211168,2.15381 0.118976,0.575621 0.287008,1.01812 0.478514,1.34606 0.217087,0.316501 0.403978,0.465472 0.639523,0.465773 0.209262,0.000300952 0.440895,-0.155592 0.619159,-0.483229 0.174753,-0.331549 0.309379,-0.830627 0.40779,-1.47466 0.101321,-0.651661 0.148068,-1.39491 0.127202,-2.22203 -0.0277879,-1.10921 -0.184283,-2.00504 -0.433471,-2.68008 -0.252599,-0.682459 -0.604412,-1.01832 -1.04912,-1.01892 -0.287911,-0.000100317 -0.598995,0.11386 -0.959234,0.35713zm6.31919 0.164219c0.0527669,-1.02574 0.0873764,-1.73439 0.103628,-2.12693 0.0162514,-0.392642 0.0272863,-1.00257 0.0585853,-1.83731 1.19047,-0.650157 2.20568,-0.984314 3.06901,-0.983411 0.493963,0.000601904 0.971774,0.146062 1.37425,0.421032 0.425446,0.267647 0.750775,0.717369 1.00167,1.33542 0.250693,0.61003 0.377394,1.4868 0.406486,2.64176 0.0144457,0.583245 0.0214679,1.89429 -0.00621967,3.92973 -0.000902856,2.03915 0.0140444,4.71853 0.070824,8.02338 -0.418725,-0.0157498 -0.814978,-0.0353117 -1.2333,-0.0358133 -0.389532,-0.000401269 -0.811066,0.0180571 -1.25537,0.0327034 0.0497574,-1.14342 0.0425345,-3.50669 0.0310984,-7.08561 -0.152181,0.182678 -0.276174,0.323624 -0.356026,0.399765 -0.0958031,0.0953015 -0.256511,0.217087 -0.464971,0.37298 -0.231131,0.175054 -0.410699,0.308275 -0.538905,0.418624 -0.127604,0.125497 -0.228623,0.266443 -0.302657,0.441898 -0.100217,0.182878 -0.174151,0.358033 -0.195819,0.548535 -0.047751,0.186791 -0.0422336,0.392642 -0.0364152,0.628889 0.00872761,0.350609 0.0720278,0.651661 0.179568,0.899746 0.111051,0.247784 0.29714,0.370071 0.558567,0.370271 0.0786488,0.000200635 0.182979,-0.0187593 0.260424,-0.0492558 0.100518,-0.0415314 0.232435,-0.125296 0.415314,-0.277678 -0.11065,0.811768 -0.215582,1.97796 -0.333655,3.52535 -0.362848,0.140645 -0.700817,0.216384 -1.01481,0.216284 -0.523356,-0.000902856 -0.976088,-0.188095 -1.32509,-0.54693 -0.349104,-0.358634 -0.625278,-0.934857 -0.828721,-1.74663 -0.203143,-0.793008 -0.328038,-1.60167 -0.348001,-2.39407 -0.01264,-0.491756 0.00140444,-0.979498 0.0686171,-1.43705 0.0663098,-0.468482 0.159906,-0.925829 0.279183,-1.37545 0.145661,-0.453334 0.319511,-0.827016 0.494464,-1.15445 0.201237,-0.316 0.455541,-0.609127 0.788494,-0.891019 0.336364,-0.285403 0.748367,-0.551745 1.2654,-0.798827 0.232736,-0.102625 0.413207,-0.216685 0.593176,-0.334659 0.183581,-0.117773 0.311987,-0.216786 0.388027,-0.308375 0.0762412,-0.0912888 0.126099,-0.190402 0.175054,-0.315799 0.0496571,-0.118274 0.0728304,-0.236448 0.0956024,-0.36977 0.0226717,-0.133422 0.0194616,-0.266844 0.0157498,-0.415514 -0.00993142,-0.392542 -0.0700215,-0.693795 -0.206252,-0.911082 -0.13583,-0.209864 -0.347901,-0.316902 -0.612738,-0.317203 -0.706435,-0.000702221 -1.58331,0.504897 -2.63423,1.50647zm7.52069 11.4054c-0.0105333,-2.50432 -0.0213676,-5.00844 -0.0319009,-7.52049 -0.023073,-1.96271 -0.0463466,-3.92562 -0.0433371,-5.88883 -0.0210666,-0.842264 -0.0422336,-1.68463 -0.0374184,-2.52689 0.445309,0.0156495 0.867745,0.035412 1.20792,0.0358133 0.392341,0.000401269 0.784381,-0.0181574 1.15014,-0.0330044 -0.00862729,0.693694 0.00852697,1.38358 0.0260825,2.07727 0.120481,-0.415213 0.217087,-0.735326 0.293127,-0.959937 0.0992138,-0.225012 0.198127,-0.442199 0.324226,-0.640025 0.125397,-0.209563 0.252298,-0.369469 0.380203,-0.48373 0.127503,-0.125497 0.282193,-0.216986 0.463466,-0.292927 0.155291,-0.0683161 0.337367,-0.109948 0.520647,-0.109847 0.238755,0.000300952 0.422838,0.0424342 0.608224,0.134225 0.185386,0.0841662 0.345292,0.20244 0.479417,0.335862 0.134124,0.133623 0.252599,0.289817 0.352014,0.469485 0.0890818,0.167731 0.19281,0.385018 0.250693,0.609929 0.0840659,0.225012 0.17074,0.541413 0.285904,0.968464 0.170038,-0.659185 0.340377,-1.1698 0.54061,-1.52001 0.201136,-0.335361 0.430161,-0.582643 0.687776,-0.750173 0.257615,-0.159806 0.517136,-0.24327 0.808257,-0.24327 0.366259,0.000702221 0.709745,0.134526 1.03006,0.394147 0.320614,0.259722 0.596988,0.713357 0.822201,1.35428 0.225313,0.632802 0.351211,1.47537 0.376591,2.48927 0.0117371,0.472695 0.0399263,1.20451 0.0282895,2.16896 -0.014847,0.971674 -0.0125397,2.62972 -0.00571809,4.98527 0.00702221,2.35545 0.0223708,4.01751 0.0460457,4.95899 -0.36987,-0.0157498 -0.762913,-0.0355123 -1.10299,-0.0358133 -0.444707,-0.000401269 -0.915195,0.0180571 -1.38919,0.0326031 0.0193612,-1.31877 0.00351111,-2.98053 0.00611936,-4.97393 0.00240762,-1.98949 -0.0324025,-3.37327 -0.0516634,-4.14311 -0.0170539,-0.674835 -0.0557764,-1.17793 -0.116468,-1.50958 -0.0869751,-0.335662 -0.161511,-0.57211 -0.2529,-0.686471 -0.0978094,-0.122086 -0.213776,-0.175555 -0.344389,-0.175756 -0.130814,-0.000100317 -0.23394,0.0608926 -0.30968,0.167329 -0.101521,0.125698 -0.175154,0.323824 -0.246981,0.582844 -0.0960037,0.350609 -0.163517,0.784983 -0.228824,1.31085 -0.0419326,0.411602 -0.0525663,1.02916 -0.0576825,1.87142 -0.00481523,0.849989 -0.00250793,1.97816 0.00310984,3.37337 0.00882793,1.39491 0.0175555,2.78621 0.0525663,4.18123 -0.445108,-0.0156495 -0.838151,-0.0352114 -1.20401,-0.0358133 -0.36656,-0.000401269 -0.788093,0.0182578 -1.28486,0.0328038 0.0029092,-0.92623 0.029393,-2.47744 0.0136432,-4.66516 -0.01896,-2.18431 -0.0393244,-3.64784 -0.0577828,-4.38357 -0.0156495,-0.624977 -0.0536698,-1.10168 -0.0876773,-1.41026 -0.0599898,-0.308777 -0.138438,-0.568097 -0.227921,-0.743552 -0.100016,-0.198428 -0.216585,-0.286105 -0.373682,-0.286105 -0.156896,-0.000200635 -0.310883,0.117472 -0.435578,0.357531 -0.0988126,0.236348 -0.194616,0.586656 -0.265239,1.02885 -0.0673129,0.449622 -0.130413,1.05945 -0.136733,1.85226 -0.0325028,0.784983 -0.0285904,1.98197 -0.0141447,3.59818 0.0172546,1.6122 0.0270857,3.16351 0.0644037,4.64991 -0.497574,-0.0157498 -0.916499,-0.035412 -1.23049,-0.0358133 -0.343487,-0.000401269 -0.787993,0.0183581 -1.28446,0.0329041zm18.0459 -4.69315c-0.0368165,0.625278 -0.103327,2.13425 -0.200133,4.53174 -0.468281,0.24327 -0.883194,0.391438 -1.22156,0.467378 -0.311686,0.083464 -0.650759,0.125096 -0.994044,0.124694 -0.496972,-0.000802539 -0.943986,-0.08537 -1.36722,-0.261026 -0.426048,-0.175756 -0.806652,-0.473598 -1.12506,-0.92001 -0.301855,-0.427051 -0.577326,-0.98 -0.799629,-1.62855 -0.225413,-0.64805 -0.392341,-1.42972 -0.532484,-2.32174 -0.136833,-0.891821 -0.202842,-1.82216 -0.226216,-2.75592 -0.0336063,-1.33783 0.0383212,-2.63764 0.267948,-3.91428 0.154087,-1.28035 0.390937,-2.27108 0.713156,-2.99126 0.321617,-0.72379 0.701619,-1.23009 1.11613,-1.52312 0.433872,-0.311987 0.877977,-0.460156 1.34887,-0.459554 0.4742,0.000601904 0.922518,0.14225 1.37445,0.420932 0.451729,0.27497 0.829825,0.751979 1.1383,1.44597 0.304764,0.682659 0.559971,1.46042 0.712353,2.31823 0.1263,0.869049 0.228423,1.80692 0.253602,2.80568 0.014847,0.586957 0.00491555,1.24624 -0.0287911,1.98197 -1.46824,0.00571809 -2.93659,0.0115365 -4.40172,0.0098311 0.00421333,0.167731 0.00792507,0.308777 0.0116368,0.449723 0.0279885,1.12064 0.205651,1.94806 0.533086,2.48205 0.327335,0.526365 0.726297,0.793711 1.2004,0.794212 0.28781,0.000401269 0.599797,-0.0832634 0.93586,-0.242969 0.362346,-0.155592 0.774149,-0.433471 1.29108,-0.813975zm-3.97969 -5.0589c0.680252,0.000702221 1.3605,0.00160508 2.07035,0.00260825 -0.00451428,-0.175254 -0.00852697,-0.331549 -0.0117371,-0.449823 -0.0131416,-0.541312 -0.0512622,-1.01391 -0.13924,-1.39521 -0.0848685,-0.381106 -0.226015,-0.667211 -0.361443,-0.842866 -0.164621,-0.175355 -0.323925,-0.267145 -0.507004,-0.267245 -0.104631,-0.000100317 -0.234341,0.0492558 -0.336765,0.148169 -0.127905,0.102825 -0.228924,0.243671 -0.328539,0.44561 -0.0740342,0.182678 -0.146764,0.407589 -0.219193,0.659085 -0.0457447,0.247683 -0.091991,0.491555 -0.112355,0.72399 -0.0201638,0.236247 -0.0383212,0.560373 -0.054071,0.975686zm5.43238 9.77552c0.0486539,-2.36318 0.087577,-4.97393 0.0685167,-7.82114 0.00652063,-2.86266 -0.0351111,-5.56862 -0.0731313,-8.11487 0.497775,0.0158501 0.942883,0.035412 1.30914,0.0359136 0.421935,0.000401269 0.813975,-0.0181574 1.20601,-0.0327034 -0.00842666,0.708842 -0.0166527,1.41778 0.000702221,2.119 0.121284,-0.384717 0.221601,-0.693293 0.317504,-0.91058 0.0990132,-0.220899 0.23083,-0.437885 0.375688,-0.658985 0.13262,-0.197926 0.277979,-0.388328 0.435177,-0.514026 0.173348,-0.140846 0.360039,-0.24347 0.567495,-0.327034 0.181173,-0.0760405 0.389332,-0.117572 0.598794,-0.117371 0.313993,0.000401269 0.607221,0.0845675 0.899044,0.244975 0.291923,0.167931 0.532986,0.393244 0.723589,0.686973 0.216585,0.297541 0.383012,0.667512 0.52486,1.10971 0.14536,0.4425 0.235645,0.919007 0.300751,1.42591 0.0390234,0.510816 0.0784482,1.0446 0.091991,1.57809 0.00993142,0.392742 0.00511618,1.24644 0.0119378,2.55759 -0.00491555,1.88677 0.0162514,3.77344 0.0375187,5.6602 0.00160508,1.10921 0.0276876,2.14589 0.0512622,3.08747 -0.422236,-0.0159505 -0.815078,-0.0353117 -1.18144,-0.0356127 -0.497072,-0.000601904 -0.970971,0.0177562 -1.36301,0.0325028 0.00250793,-0.941478 0.0195619,-2.35174 -0.00130413,-4.22326 0.0052165,-1.87132 -0.00160508,-3.18257 -0.0204647,-3.94127 -0.0297942,-1.17752 -0.15479,-1.99341 -0.349706,-2.46249 -0.194716,-0.46146 -0.409997,-0.694096 -0.697807,-0.694698 -0.235545,0 -0.468984,0.201638 -0.668515,0.593879 -0.19923,0.400166 -0.368165,0.967661 -0.453735,1.72616 -0.111854,0.750574 -0.159404,1.9931 -0.168132,3.72368 -0.00892824,1.72666 0.00912888,3.48763 0.054071,5.27509 -0.419025,-0.0156495 -0.841462,-0.0349104 -1.2338,-0.035713 -0.418825,-0.000501587 -0.86303,0.0180571 -1.36301,0.0326031zm13.3593 -4.56534c-0.0563783,0.869149 -0.11376,1.71884 -0.145059,2.55368 -0.0364152,0.632601 -0.0728304,1.26911 -0.0831631,1.90172 -0.416116,0.228222 -0.726197,0.376692 -0.960338,0.433471 -0.23384,0.0683161 -0.442199,0.102424 -0.677744,0.102023 -0.340076,-0.000401269 -0.659185,-0.0769434 -0.951008,-0.229626 -0.265339,-0.156696 -0.507706,-0.435277 -0.701018,-0.835844 -0.190001,-0.400066 -0.351913,-0.857914 -0.427051,-1.37605 -0.0785485,-0.522453 -0.105333,-1.06748 -0.12008,-1.65463 -0.00280889,-0.106738 -0.00722285,-0.289616 -0.0138438,-0.548836 -0.00672126,-0.266844 -0.0216685,-0.861525 -0.0183581,-1.78013 0.00702221,-1.79518 0.0141447,-3.59798 0.021167,-5.40078 -0.343386,-0.000401269 -0.683462,-0.000802539 -0.997455,-0.00130413 0.00802539,-0.716366 0.010433,-1.66958 0.00712253,-2.83958 -0.0119378,-0.484031 -0.0240762,-0.968263 -0.0363149,-1.45219 0.340176,0.000501587 0.683462,0.000902856 1.05002,0.00140444 0.0138438,-0.484131 0.0136432,-1.52864 0.0257816,-3.13702 0.335662,-0.175054 0.697105,-0.361042 1.05905,-0.54382 0.180471,-0.0987123 0.596387,-0.342383 1.21484,-0.715162 0.00792507,1.3609 0.0446412,2.82062 0.0581841,4.39871 0.47089,0.000501587 0.94509,0.00130413 1.44216,0.00180571 0.00200635,2.16104 0.0380203,3.59788 0.0553752,4.29178 -0.497072,-0.000501587 -0.971272,-0.00120381 -1.44226,-0.00180571 0.00682158,1.30372 0.0132419,2.60334 0.0194616,3.89933 -0.0113359,0.583145 -0.00190603,0.960438 0.00240762,1.12807 0.012339,0.49948 0.0491555,0.918706 0.109747,1.25036 0.0607923,0.335561 0.125497,0.572009 0.253502,0.72068 0.111352,0.133522 0.240862,0.213877 0.371776,0.213676 0.104631,0.000501587 0.208861,-0.014546 0.312689,-0.0489549 0.106537,-0.0418323 0.287309,-0.148269 0.570404,-0.330947zm4.2375 -11.761c0.526666,0.000702221 1.02875,0.203143 1.50947,0.596587 0.481122,0.400667 0.90737,0.969065 1.24965,1.71282 0.345994,0.747464 0.616049,1.6129 0.798225,2.60414 0.181875,0.995048 0.287309,2.06242 0.3161,3.21738 0.0280889,1.10921 0.00210666,2.16876 -0.12961,3.17103 -0.105634,1.00237 -0.317504,1.94355 -0.635611,2.81982 -0.317906,0.887708 -0.729909,1.53897 -1.23551,1.98046 -0.489549,0.43006 -1.03317,0.658182 -1.60889,0.65748 -0.549438,-0.000802539 -1.05153,-0.195719 -1.56144,-0.58164 -0.480921,-0.392742 -0.913289,-0.949704 -1.27222,-1.69346 -0.335662,-0.736028 -0.593277,-1.62063 -0.802539,-2.65761 -0.182678,-1.02554 -0.288412,-2.10436 -0.316902,-3.24015 -0.0281892,-1.13579 0.023073,-2.21832 0.153887,-3.24747 0.131315,-1.03267 0.36987,-1.95097 0.69219,-2.78531 0.31931,-0.819091 0.748468,-1.45119 1.26049,-1.8964 0.489047,-0.441798 1.03337,-0.658282 1.58271,-0.65768zm0.0630996 4.59293c-0.261527,-0.000401269 -0.492959,0.167129 -0.693393,0.517537 -0.200735,0.342885 -0.345192,0.841662 -0.433271,1.50105 -0.0880786,0.659486 -0.125698,1.38749 -0.105835,2.16505 0.0285904,1.14352 0.158501,2.02019 0.409194,2.63032 0.250793,0.606619 0.546429,0.915596 0.886504,0.915998 0.261628,0.000300952 0.492558,-0.182377 0.696503,-0.525061 0.200434,-0.350609 0.344991,-0.857312 0.432167,-1.54318 0.087577,-0.682258 0.121284,-1.41778 0.101722,-2.19524 -0.0158501,-0.640526 -0.0567796,-1.22748 -0.174652,-1.75365 -0.0911885,-0.507104 -0.232837,-0.934255 -0.42354,-1.24313 -0.220497,-0.308877 -0.433772,-0.469284 -0.6954,-0.469686zm4.90231 11.4594c-0.0378196,-0.457246 -0.0758399,-0.933653 -0.0890818,-1.44457 -0.0384215,-0.499179 -0.0819593,-1.19297 -0.130312,-2.07727 -0.0356127,-0.377394 -0.071125,-0.751076 -0.0805548,-1.12837 0.402072,0.393144 0.776155,0.694597 1.06878,0.889514 0.292325,0.190703 0.55646,0.282694 0.821298,0.282995 0.183179,0.000200635 0.365356,-0.0415314 0.493862,-0.13292 0.128507,-0.0913891 0.203644,-0.22441 0.251395,-0.407589 0.0742348,-0.175154 0.0957027,-0.362045 0.0909878,-0.544924 -0.00421333,-0.16763 -0.0347098,-0.331749 -0.0907872,-0.491856 -0.0301955,-0.16763 -0.140545,-0.384918 -0.304764,-0.667411 -0.355324,-0.617654 -0.683663,-1.18615 -0.961542,-1.70479 -0.274669,-0.511016 -0.472093,-0.961241 -0.609428,-1.35408 -0.141046,-0.396253 -0.256511,-0.827217 -0.346596,-1.28456 -0.0635009,-0.453735 -0.127704,-0.92623 -0.140244,-1.4221 -0.0214679,-0.857412 0.062899,-1.66928 0.253101,-2.41995 0.16452,-0.74275 0.438989,-1.28386 0.822903,-1.62634 0.386924,-0.33516 0.8536,-0.509813 1.40304,-0.509211 0.578831,0.000802539 1.34235,0.19592 2.24139,0.563081 0.0630996,1.47115 0.125898,2.93117 0.217889,4.39109 -0.512722,-0.499881 -1.01621,-0.752079 -1.4871,-0.752681 -0.313993,-0.000300952 -0.550542,0.0832634 -0.703425,0.250693 -0.152783,0.16753 -0.224711,0.42675 -0.216184,0.765823 0.0029092,0.11065 0.0316,0.217388 0.0344088,0.327937 0.0286908,0.0990132 0.0577828,0.217388 0.112656,0.324226 0.029393,0.118073 0.110851,0.236348 0.166025,0.35081 0.081558,0.125898 0.219294,0.400366 0.495166,0.835443 0.272663,0.442299 0.464971,0.804746 0.628689,1.07921 0.246981,0.457848 0.414612,0.884699 0.555557,1.27744 0.140444,0.385219 0.229325,0.800532 0.318808,1.24293 0.0636012,0.442299 0.127704,0.915095 0.139943,1.40294 0.0183581,0.731815 -0.0428355,1.4218 -0.184283,2.03905 -0.115465,0.617253 -0.321517,1.12787 -0.615046,1.5506 -0.284299,0.407389 -0.584248,0.700616 -0.923321,0.867845 -0.336063,0.159505 -0.674333,0.243169 -1.04059,0.242668 -0.235344,-0.000300952 -0.550943,-0.0616952 -0.896737,-0.16131 -0.369168,-0.110851 -0.818188,-0.286807 -1.2959,-0.554354zm16.5463 0.321417c-0.448519,-0.0158501 -0.841361,-0.0352114 -1.12917,-0.0359136 -0.340076,-0.000100317 -0.732116,0.0183581 -1.20591,0.0331047 -0.0166527,-0.659386 -0.0331047,-1.31887 -0.0235746,-1.97816 -0.147366,0.392241 -0.296137,0.708341 -0.394648,0.952212 -0.124795,0.251496 -0.275973,0.48373 -0.453133,0.708441 -0.177361,0.232435 -0.382209,0.407489 -0.614644,0.532886 -0.209262,0.125497 -0.443102,0.194014 -0.652364,0.193813 -0.418725,-0.000702221 -0.789698,-0.188095 -1.16509,-0.554253 -0.352515,-0.358735 -0.653467,-0.8851 -0.931848,-1.55251 -0.252097,-0.671023 -0.468482,-1.46403 -0.609628,-2.39036 -0.137334,-0.914994 -0.230429,-1.87945 -0.254806,-2.86326 -0.0353117,-1.40234 0.0609929,-2.7819 0.236348,-4.12334 0.201939,-1.34526 0.463366,-2.39708 0.78388,-3.17434 0.350308,-0.765622 0.729207,-1.30623 1.19217,-1.62584 0.436782,-0.315899 0.906969,-0.475905 1.43032,-0.474802 0.339975,0.000401269 0.760907,0.0847681 1.23882,0.237752 -0.00481523,-1.23501 -0.0223708,-2.973 -0.0784482,-5.20286 0.524058,0.0272863 0.942983,0.0355123 1.25688,0.0359136 0.444707,0.000300952 0.866441,-0.00652063 1.28416,-0.0328038 -0.0266844,3.0989 -0.0527669,6.87595 -0.029393,11.3203 0.0203644,4.45931 0.0649053,7.79084 0.12008,9.99401zm-2.5592 -12.0515c-0.212372,-0.122086 -0.423439,-0.191004 -0.632802,-0.191305 -0.392441,-0.000401269 -0.72409,0.205149 -1.00528,0.593477 -0.27517,0.380704 -0.475705,0.990433 -0.611735,1.81745 -0.136131,0.826815 -0.194114,1.64621 -0.174051,2.44674 0.0151479,0.602205 0.0809561,1.14352 0.171743,1.62765 0.0904862,0.484232 0.234241,0.86935 0.421433,1.15164 0.190001,0.282092 0.379902,0.419928 0.615347,0.420129 0.209362,0 0.440694,-0.159806 0.615647,-0.483429 0.175254,-0.3162 0.320414,-0.792507 0.435478,-1.42099 0.0889815,-0.625077 0.14867,-1.36843 0.179568,-2.22594 0.0305968,-0.861425 0.0256812,-2.09623 -0.0153486,-3.73542zm10.0675 7.34554c-0.0367161,0.625077 -0.103327,2.13455 -0.200233,4.53194 -0.494063,0.243069 -0.882993,0.391338 -1.22116,0.467278 -0.338069,0.0833637 -0.650959,0.124694 -0.994446,0.124293 -0.496972,-0.000300952 -0.969968,-0.0849688 -1.39311,-0.260725 -0.426248,-0.175856 -0.774049,-0.481122 -1.09908,-0.919709 -0.321417,-0.435177 -0.577226,-0.980201 -0.799629,-1.62855 -0.225513,-0.648251 -0.408592,-1.43012 -0.532183,-2.32205 -0.127202,-0.892022 -0.203042,-1.82216 -0.226216,-2.75612 -0.0338069,-1.33743 0.0385219,-2.63744 0.218692,-3.91408 0.17706,-1.28015 0.440092,-2.27118 0.762211,-2.99096 0.321818,-0.72399 0.678948,-1.22267 1.11603,-1.52322 0.440493,-0.304563 0.878078,-0.460156 1.34897,-0.459754 0.4743,0.000702221 0.922618,0.14235 1.37445,0.421032 0.425446,0.27497 0.803843,0.759402 1.1385,1.44587 0.304864,0.68276 0.533789,1.46042 0.686271,2.32967 0.152382,0.857813 0.254405,1.79558 0.279584,2.79414 0.0146463,0.587157 -0.021167,1.24644 -0.0549739,1.98207 -1.46834,0.00571809 -2.93649,0.0115365 -4.40162,0.0100317 0.00411301,0.16763 0.0075238,0.316301 0.0114362,0.449723 0.0282895,1.12064 0.20555,1.94776 0.559169,2.48215 0.327335,0.526064 0.726498,0.79351 1.2007,0.794012 0.261628,0.000401269 0.573715,-0.0754386 0.93586,-0.231532 0.336063,-0.167229 0.776958,-0.444807 1.29078,-0.825511zm-4.00567 -5.0588c0.680352,0.000802539 1.3605,0.00150476 2.07015,0.00250793 0.0218692,-0.175455 0.0178565,-0.331448 0.0149473,-0.449823 -0.0136432,-0.541112 -0.0780469,-1.01391 -0.165925,-1.39521 -0.0848685,-0.381306 -0.199932,-0.667211 -0.361243,-0.842666 -0.135228,-0.175555 -0.297742,-0.267346 -0.481323,-0.267546 -0.130413,-0.000200635 -0.23394,0.0493561 -0.362146,0.148369 -0.102123,0.102725 -0.199732,0.247383 -0.302557,0.445409 -0.093897,0.182979 -0.172947,0.40779 -0.219294,0.659285 -0.0460457,0.247683 -0.0921916,0.491455 -0.112556,0.72399 -0.0199631,0.236348 -0.0643034,0.560172 -0.0800532,0.975686zm10.7009 9.78194c0.0822602,-5.0577 0.0766424,-10.6266 -0.0235746,-16.7061 -0.89152,0.0599898 -1.77973,0.116067 -2.67145,0.16452 -0.0142451,-0.57542 -0.0286908,-1.15104 -0.0169536,-1.72646 -0.0231733,-0.92633 -0.0228724,-1.94776 -0.0504596,-3.04945 1.20772,0.0281892 2.57153,0.0374184 4.16758,0.0393244 0.500383,0.000702221 1.02344,-0.00631999 1.54649,-0.0133422 0.500483,0.000702221 0.997556,0.00120381 1.49463,0.00170539 0.261828,0.000200635 0.523055,-0.0106336 0.813875,-0.0181574 -0.016452,0.510916 -0.00391238,1.01772 0.00882793,1.52843 -0.00531682,0.827217 0.0214679,1.50566 0.0250793,2.03564 0.000300952,0.5375 -0.00270857,0.937666 0.00431365,1.21203 -0.892323,-0.107841 -1.62634,-0.169637 -2.20518,-0.170439 -0.156896,0 -0.313993,-0.000300952 -0.444907,-0.000501587 -0.00601904,1.83721 -0.0157498,3.5409 -0.00310984,5.09231 0.00411301,2.23738 0.00601904,4.40223 0.0327034,6.50628 0.0529676,2.11158 0.0697205,3.81537 0.102123,5.10756 -0.680553,-0.0161511 -1.12917,-0.0355123 -1.33853,-0.0359136 -0.183079,-0.000200635 -0.653467,0.0181574 -1.44146,0.0326031zm12.28 -4.69997c-0.0366158,0.624977 -0.103126,2.13425 -0.200133,4.53153 -0.490853,0.24337 -0.882993,0.391539 -1.22116,0.467479 -0.311987,0.0835643 -0.650859,0.124594 -0.991035,0.124494 -0.500383,-0.000601904 -0.97358,-0.0849688 -1.39632,-0.260925 -0.423139,-0.175656 -0.780669,-0.473598 -1.09918,-0.919609 -0.304965,-0.427252 -0.577427,-0.980401 -0.79973,-1.62885 -0.225513,-0.64815 -0.405382,-1.42972 -0.529274,-2.32174 -0.127002,-0.892022 -0.202641,-1.82206 -0.226316,-2.75612 -0.0333054,-1.33773 0.0385219,-2.63734 0.215682,-3.91418 0.177261,-1.28045 0.440192,-2.27118 0.762311,-2.99106 0.321918,-0.72379 0.682358,-1.22267 1.11603,-1.52322 0.437384,-0.304463 0.878278,-0.460156 1.35238,-0.459554 0.47109,0.000501587 0.919107,0.142049 1.37114,0.421132 0.428756,0.274769 0.807153,0.759302 1.1383,1.44567 0.304864,0.682659 0.559771,1.46062 0.686471,2.32967 0.152482,0.857813 0.254405,1.79568 0.279384,2.79414 0.0149473,0.587157 0.00561777,1.24644 -0.0285904,1.98217 -1.46493,0.00561777 -2.93328,0.0115365 -4.40162,0.0098311 0.00401269,0.167831 -0.0183581,0.316401 -0.0149473,0.449723 0.0281892,1.12075 0.231934,1.94796 0.55957,2.48205 0.326734,0.526265 0.729407,0.79351 1.2004,0.794212 0.261628,0.000300952 0.573815,-0.0754386 0.93586,-0.231532 0.339273,-0.167129 0.777259,-0.444907 1.29078,-0.825311zm-3.97969 -5.0589c0.680352,0.000702221 1.36391,0.00150476 2.07035,0.00250793 -0.00421333,-0.175355 -0.0081257,-0.331649 -0.0111352,-0.449823 -0.0135428,-0.541212 -0.0907872,-1.0103 -0.166025,-1.39541 -0.0714259,-0.377293 -0.199832,-0.66711 -0.334859,-0.842766 -0.16131,-0.175355 -0.320715,-0.266944 -0.503994,-0.267245 -0.130713,-0.000100317 -0.237551,0.0492558 -0.365857,0.148068 -0.102023,0.102825 -0.203143,0.243771 -0.302557,0.44571 -0.0740342,0.183079 -0.146965,0.407589 -0.219093,0.659085 -0.0460457,0.247784 -0.0922919,0.491555 -0.112656,0.724191 -0.0199631,0.236147 -0.0381206,0.560072 -0.0541714,0.975686zm10.7104 4.80781c-0.0154489,0.415414 -0.0485536,1.18545 -0.0995148,2.28673 -0.0313993,0.834741 -0.0626983,1.66948 -0.0939973,2.50402 -0.647649,0.39194 -1.27042,0.593076 -1.89841,0.592474 -0.4742,-0.000702221 -0.869651,-0.119177 -1.21524,-0.34459 -0.425646,-0.278882 -0.781071,-0.751878 -1.1385,-1.44597 -0.331749,-0.70182 -0.614444,-1.54449 -0.769635,-2.51265 -0.211469,-1.12857 -0.348001,-2.40541 -0.383112,-3.80092 -0.0326031,-1.2957 0.0406285,-2.54565 0.167831,-3.731 0.152884,-1.20431 0.389833,-2.19494 0.710447,-2.96478 0.320715,-0.776958 0.703525,-1.29088 1.11533,-1.55713 0.411803,-0.270355 0.856509,-0.403276 1.37986,-0.402373 0.2845,0.000200635 0.576825,0.0423339 0.892423,0.119077 0.290118,0.0841662 0.663599,0.252198 1.11523,0.51202 0.0029092,0.114362 0.00581841,0.232536 0.0350107,0.350709 0.00942983,0.381106 0.0450425,0.7586 0.0548736,1.15124 0.0098311,0.392441 0.0513625,1.00247 0.0988126,1.84504 0.0116368,0.468883 0.0232736,0.933653 0.0610933,1.39491 -0.614845,-0.519042 -1.14813,-0.778964 -1.61892,-0.779566 -0.313993,-0.000300952 -0.59759,0.159404 -0.851293,0.475504 -0.23083,0.316 -0.402373,0.776958 -0.51834,1.36783 -0.0895834,0.601904 -0.150677,1.2956 -0.130814,2.08841 0.0201638,0.800432 0.0894831,1.47898 0.23384,2.01277 0.118174,0.541312 0.285503,0.949504 0.52787,1.22819 0.245577,0.266944 0.510314,0.400567 0.798225,0.401069 0.130814,0.000100317 0.286707,-0.041732 0.494364,-0.109948 0.181574,-0.064504 0.362547,-0.148369 0.490953,-0.239558 0.158,-0.0912888 0.337768,-0.232235 0.541613,-0.441497z"/>
   <path id="_170809216" class="fil1" d="M212.395 72.6041c0.0451428,-2.36348 0.0842666,-4.97434 0.0651059,-7.82154 0.0101321,-2.86245 -0.0317003,-5.56862 -0.0694196,-8.11477 0.497273,0.0156495 0.942582,0.0356127 1.28256,0.0358133 0.444707,0.000501587 0.840158,-0.0180571 1.2324,-0.0329041 -0.00842666,0.708842 -0.0169536,1.41799 -0.0253803,2.1192 0.147266,-0.384717 0.244574,-0.685769 0.343487,-0.91058 0.0959034,-0.224711 0.213977,-0.453334 0.349706,-0.658884 0.138639,-0.213275 0.304463,-0.388529 0.461259,-0.514126 0.176157,-0.140645 0.360139,-0.24337 0.541312,-0.326934 0.207456,-0.0762412 0.415715,-0.117773 0.624877,-0.117472 0.314194,0.000300952 0.60391,0.0845675 0.898944,0.244975 0.292024,0.168032 0.533187,0.393144 0.72379,0.687073 0.216685,0.297341 0.382711,0.667311 0.524961,1.10971 0.141648,0.442299 0.232235,0.918907 0.297341,1.42591 0.0389231,0.510515 0.0785485,1.0444 0.0920913,1.57799 0.00973078,0.392642 0.00501587,1.24634 0.0117371,2.55769 -0.00481523,1.88657 0.0162514,3.77344 0.037619,5.6602 0.00160508,1.10911 0.0276876,2.14579 0.0512622,3.08727 -0.419025,-0.0157498 -0.812069,-0.035412 -1.17833,-0.0358133 -0.500483,-0.000601904 -0.970771,0.0180571 -1.36281,0.0327034 0.00250793,-0.941378 0.0193612,-2.35154 -0.00130413,-4.22306 0.00531682,-1.864 -0.00170539,-3.18277 -0.0204647,-3.94127 -0.0297942,-1.17773 -0.15499,-1.99331 -0.349706,-2.46259 -0.194816,-0.46166 -0.436079,-0.694196 -0.697807,-0.694597 -0.238655,-0.000300952 -0.468984,0.201538 -0.668615,0.593778 -0.225413,0.399965 -0.368165,0.967661 -0.453635,1.72606 -0.111854,0.758399 -0.159505,1.99321 -0.168232,3.72378 -0.00872761,1.72656 0.00912888,3.48733 0.0279885,5.27509 -0.422236,-0.0157498 -0.815379,-0.0352114 -1.20782,-0.0358133 -0.418725,-0.000401269 -0.888912,0.0180571 -1.36291,0.0331047zm12.1188 -16.3334c0.523255,0.000601904 1.02855,0.203243 1.50937,0.596387 0.481022,0.400868 0.90406,0.969266 1.24975,1.71292 0.345794,0.747464 0.616149,1.613 0.798024,2.60414 0.182477,1.00267 0.287309,2.06242 0.3161,3.21738 0.0280889,1.10931 0.0023073,2.16886 -0.12951,3.17113 -0.105734,1.00237 -0.317504,1.94345 -0.63551,2.81972 -0.321216,0.887608 -0.723188,1.54649 -1.23571,1.98067 -0.485937,0.441396 -1.03317,0.657981 -1.60879,0.657279 -0.549538,-0.000501587 -1.05464,-0.195819 -1.56144,-0.581239 -0.480821,-0.393244 -0.913389,-0.950105 -1.27202,-1.69376 -0.335963,-0.736028 -0.593477,-1.62083 -0.802639,-2.65771 -0.182778,-1.02554 -0.288513,-2.10426 -0.317003,-3.24015 -0.0283898,-1.13589 0.022772,-2.21842 0.153887,-3.24737 0.131215,-1.03267 0.36987,-1.95107 0.692089,-2.78531 0.319611,-0.819091 0.75539,-1.43624 1.26089,-1.88526 0.495969,-0.441396 1.03297,-0.669518 1.58251,-0.668816zm0.0630996 4.59293c-0.261728,-0.000300952 -0.49306,0.167129 -0.693494,0.517637 -0.200735,0.342684 -0.345493,0.841863 -0.436681,1.50105 -0.0879783,0.659486 -0.122287,1.38749 -0.102524,2.16495 0.0287911,1.14352 0.155392,2.02039 0.409596,2.63804 0.250292,0.598794 0.546128,0.907872 0.886203,0.908273 0.261628,0.000100317 0.492658,-0.174753 0.693193,-0.525161 0.203544,-0.350308 0.348302,-0.857212 0.435377,-1.54328 0.0877777,-0.682058 0.121785,-1.41397 0.101922,-2.19524 -0.0159505,-0.636413 -0.0569802,-1.22748 -0.174652,-1.75355 -0.0914894,-0.507004 -0.232937,-0.934055 -0.427051,-1.24303 -0.190904,-0.308877 -0.430361,-0.469385 -0.691889,-0.469686zm4.93541 11.7457c-0.00190603,-1.12075 0.0223708,-2.23748 0.0464469,-3.35812 -0.0188597,-3.88037 -0.0381206,-7.77168 -0.0572812,-11.6632 -0.0262831,-2.085 -0.0528672,-4.18153 -0.0791504,-6.27786 0.576223,0.0273866 0.994847,0.0356127 1.31235,0.0361142 0.366158,0.000200635 0.784582,-0.00712253 1.25497,-0.0329041 -0.0120381,1.60458 -0.0244774,3.19792 -0.0368165,4.79106 0.0202641,3.93344 0.0409295,7.86709 0.060692,11.7968 0.0136432,1.57037 0.0266844,3.14073 0.0661091,4.7109 -0.444907,-0.00802539 -0.83775,-0.0198628 -1.20732,-0.0202641 -0.470589,0.0109346 -0.915195,0.0176559 -1.36,0.0174552zm7.32126 -16.3239c0.523356,0.000902856 1.02564,0.203444 1.50937,0.596788 0.481423,0.400768 0.923622,0.957629 1.27293,1.71272 0.338872,0.736028 0.593277,1.6132 0.775052,2.60424 0.181976,1.00277 0.287209,2.06252 0.3162,3.21738 0.0276876,1.10911 0.00220698,2.16886 -0.12961,3.17103 -0.105534,1.00989 -0.320715,1.94355 -0.638921,2.81982 -0.317906,0.887708 -0.726699,1.53897 -1.2322,1.98026 -0.492759,0.430261 -1.03317,0.658082 -1.60889,0.65758 -0.526465,-0.000802539 -1.05464,-0.195518 -1.56144,-0.581239 -0.480721,-0.393344 -0.9167,-0.950105 -1.24935,-1.69356 -0.358634,-0.736229 -0.616149,-1.62093 -0.825411,-2.65781 -0.182878,-1.02564 -0.288412,-2.10416 -0.316702,-3.24005 -0.0285904,-1.13599 0.0224711,-2.21842 0.153686,-3.24777 0.131115,-1.03247 0.369669,-1.95077 0.688779,-2.78511 0.345694,-0.819191 0.7587,-1.43985 1.2643,-1.88506 0.489348,-0.434073 1.02966,-0.669718 1.5822,-0.669217zm0.0629993 4.59303c-0.261728,-0.000200635 -0.49627,0.167229 -0.696604,0.517738 -0.201136,0.342684 -0.344791,0.841863 -0.433371,1.50115 -0.0877777,0.659285 -0.121986,1.38739 -0.102524,2.16485 0.0286908,1.14342 0.155392,2.02019 0.406386,2.63815 0.250191,0.598694 0.549438,0.907671 0.889614,0.908173 0.261427,0.000401269 0.492759,-0.174652 0.692992,-0.525262 0.200434,-0.350308 0.344991,-0.857011 0.432267,-1.54298 0.0876773,-0.682258 0.121484,-1.41026 0.101722,-2.19534 -0.0158501,-0.640426 -0.0569802,-1.22748 -0.14847,-1.75355 -0.117572,-0.507004 -0.258819,-0.934255 -0.449823,-1.24313 -0.191004,-0.308877 -0.430462,-0.469284 -0.69219,-0.469786zm5.50832 13.7094c0.560674,0.450425 1.03969,0.775052 1.43674,0.958432 0.426349,0.175756 0.795115,0.271559 1.08293,0.27196 0.235445,0.000100317 0.416919,-0.0605917 0.597089,-0.186089 0.18027,-0.114161 0.333254,-0.266443 0.433672,-0.441597 0.103527,-0.175154 0.179568,-0.400066 0.248285,-0.666709 0.0714259,-0.270756 0.142451,-0.57542 0.160407,-0.910881 0.0437384,-0.331448 0.0600901,-0.716366 0.075539,-1.15074 -0.0112355,-0.442299 -0.000100317,-1.0445 -0.0193612,-1.81063 -0.148068,0.357932 -0.271158,0.651461 -0.396554,0.876172 -0.0993142,0.217087 -0.264336,0.415213 -0.432368,0.624074 -0.158602,0.194816 -0.357431,0.358233 -0.563984,0.468683 -0.206553,0.106437 -0.414511,0.163216 -0.650056,0.162915 -0.526465,-0.000501587 -0.998759,-0.321316 -1.43935,-0.927835 -0.450425,-0.618155 -0.798626,-1.46855 -1.03588,-2.57033 -0.236849,-1.10168 -0.371475,-2.29867 -0.403577,-3.57551 -0.03792,-1.50958 0.0586856,-2.87028 0.23715,-4.08964 0.20856,-1.21946 0.49637,-2.25202 0.894128,-3.08997 0.397257,-0.841963 0.8535,-1.43213 1.34586,-1.75184 0.488846,-0.323323 1.06055,-0.482627 1.69165,-0.481924 0.366459,0.000501587 0.786689,0.0618958 1.234,0.169135 0.476808,0.110951 1.11061,0.344289 1.93101,0.71125 -0.00892824,1.72295 -0.0183581,3.44189 -0.0276876,5.1532 -0.00491555,1.88657 -0.0100317,3.77344 0.0113359,5.65248 0.0100317,0.400266 0.0185587,0.743351 0.024979,1.00267 0.0163517,1.69225 0.0330044,3.38842 0.075238,5.07315 -0.0100317,0.644138 -0.0210666,1.25387 -0.0582844,1.84464 -0.0394247,0.526064 -0.0923923,1.01782 -0.198729,1.47868 -0.102825,0.453434 -0.213576,0.861224 -0.361845,1.21173 -0.17385,0.365757 -0.349405,0.666508 -0.556561,0.883495 -0.229827,0.224611 -0.486639,0.418825 -0.770738,0.559369 -0.336665,0.140645 -0.675236,0.20866 -1.01862,0.208359 -0.209162,-0.000100317 -0.471191,-0.0119378 -0.760305,-0.0618958 -0.289115,-0.0497574 -0.578329,-0.114964 -0.894931,-0.218291 -0.31941,-0.0920913 -0.583646,-0.191205 -0.795617,-0.29072 -0.238254,-0.11075 -0.529475,-0.252097 -0.874767,-0.454538 -0.0432368,-0.682358 -0.0865739,-1.36843 -0.104129,-2.06212 -0.00963046,-0.392542 -0.0571809,-1.25036 -0.116669,-2.56913zm3.95792 -13.5149c-0.238555,-0.114462 -0.475504,-0.18338 -0.684866,-0.183882 -0.369569,-0.000300952 -0.705231,0.182377 -0.95783,0.532785 -0.278782,0.361544 -0.474902,0.895031 -0.613842,1.6113 -0.112957,0.708943 -0.172746,1.45219 -0.153586,2.22193 0.0144457,0.568097 0.0567796,1.08272 0.143955,1.55903 0.0905865,0.48042 0.23093,0.861927 0.420932,1.1365 0.190101,0.278481 0.403075,0.419828 0.612337,0.420029 0.28781,0.000300952 0.542616,-0.277678 0.767628,-0.818589 0.222103,-0.540811 0.376692,-1.27644 0.441798,-2.20999 0.0679148,-0.933954 0.071125,-2.36308 0.0234743,-4.2691zm3.87606 -6.34908c-0.0046146,-1.23491 -0.0291923,-2.21069 -0.0472495,-2.92746 -0.00511618,-0.209463 -0.012339,-0.495367 -0.0210666,-0.845976 0.497474,0.0197625 0.919609,0.0275873 1.28577,0.0282895 0.471191,0.000501587 0.863331,-0.00672126 1.22919,-0.0253803 0.00802539,0.327937 -0.0113359,0.587157 -0.00581841,0.811868 -0.00973078,0.651862 0.00621967,1.29229 0.0223708,1.93643 -0.0187593,0.293328 -0.0103327,0.632701 -0.000401269,1.02494 -0.419025,-0.0154489 -0.811768,-0.0235746 -1.17803,-0.0240762 -0.392441,-0.000300952 -0.840258,0.00662094 -1.28476,0.0213676zm0.0576825 17.9257c0.0206654,-1.26932 0.0465472,-2.31332 0.052165,-3.13672 0.00551745,-0.819593 0.00541714,-1.87152 -0.000702221,-3.15608 -0.00601904,-1.27674 -0.0152482,-2.69081 -0.0280889,-4.24212 -0.0128406,-1.55131 -0.0578831,-3.34659 -0.0831631,-5.40098 0.523556,0.0156495 0.971874,0.0353117 1.28597,0.035713 0.313893,0.000401269 0.732216,-0.0182578 1.28115,-0.0328038 -0.00280889,1.96291 -0.0117371,3.68957 -0.0265841,5.1836 0.0110349,1.4865 0.0244774,3.06459 0.0661091,4.72645 0.0745358,2.95404 0.0987123,4.96651 0.125196,6.02636 -0.497474,-0.0160508 -0.916599,-0.035713 -1.28296,-0.0360139 -0.343286,-0.000401269 -0.813574,0.0179568 -1.38909,0.0326031zm4.35146 -11.3911c0.0528672,-1.02514 0.0872761,-1.73419 0.0775453,-2.12683 0.0163517,-0.392642 0.027186,-1.00237 0.0616952,-1.83711 1.18726,-0.650257 2.22865,-0.984514 3.09188,-0.983411 0.497173,0.000601904 0.948902,0.146062 1.37445,0.420932 0.399363,0.27497 0.724391,0.71747 0.975285,1.33512 0.254304,0.610331 0.380805,1.4871 0.409796,2.64196 0.0147466,0.583145 0.0215682,1.89429 0.0202641,3.92953 -0.0274869,2.03935 -0.0122387,4.71883 0.0445409,8.02358 -0.396253,-0.0156495 -0.815279,-0.0352114 -1.234,-0.0358133 -0.392441,-0.000401269 -0.787692,0.0180571 -1.232,0.0328038 0.0235746,-1.14342 0.016452,-3.50659 0.0052165,-7.08571 -0.152482,0.182979 -0.276475,0.323724 -0.356227,0.399865 -0.0957027,0.0952011 -0.256311,0.216986 -0.46166,0.37298 -0.231031,0.175154 -0.4109,0.308175 -0.538503,0.426349 -0.105133,0.117973 -0.232435,0.258819 -0.306469,0.433872 -0.100016,0.182979 -0.148068,0.358133 -0.195418,0.548736 -0.0216685,0.186691 -0.0427352,0.392542 -0.0366158,0.628889 0.00872761,0.350609 0.0686171,0.651962 0.179568,0.899646 0.137134,0.251797 0.323122,0.377895 0.561877,0.378196 0.0784482,-0.000100317 0.18649,-0.0075238 0.286607,-0.0492558 0.0779466,-0.0302958 0.232435,-0.133021 0.385419,-0.285403 -0.0841662,0.811868 -0.21187,1.97786 -0.330044,3.52525 -0.362647,0.140645 -0.704228,0.216384 -1.01822,0.215983 -0.523255,-0.000601904 -0.946695,-0.187995 -1.32509,-0.546629 -0.349205,-0.358735 -0.625278,-0.934456 -0.828621,-1.73529 -0.203243,-0.804344 -0.328038,-1.6126 -0.348001,-2.40551 -0.0124393,-0.491655 0.0280889,-0.968163 0.0685167,-1.43695 0.066711,-0.468382 0.159906,-0.925829 0.305567,-1.37555 0.119578,-0.44581 0.293228,-0.826615 0.468081,-1.15425 0.204848,-0.308476 0.458851,-0.609227 0.792005,-0.891119 0.332753,-0.285202 0.771039,-0.551545 1.29138,-0.798727 0.206654,-0.102524 0.413107,-0.216786 0.567194,-0.334759 0.179969,-0.117873 0.308375,-0.216786 0.384617,-0.308175 0.0763415,-0.0913891 0.152282,-0.190302 0.201437,-0.3162 0.0231733,-0.117873 0.0726297,-0.236147 0.0953015,-0.369469 -0.00331047,-0.133522 0.0192609,-0.266844 0.0158501,-0.415414 -0.0098311,-0.392642 -0.0957027,-0.693795 -0.232335,-0.911283 -0.13603,-0.209864 -0.348001,-0.316702 -0.609528,-0.317203 -0.709845,-0.000702221 -1.58672,0.505098 -2.61136,1.50637z"/>
   <path id="_170809696" class="fil3" d="M31.7014 6.38791c9.01702,-0.00842666 17.3121,3.67292 23.3715,9.61441 6.05927,5.9417 10.0146,15.3363 10.2434,23.2471 0.229024,7.91082 -1.66617,13.0174 -4.95708,18.232 -3.2874,5.21439 -8.0611,9.38418 -13.7406,11.936 -0.02528,-3.65165 0.000702221,-7.3973 0.049958,-11.2588 0.0277879,-2.74358 0.129008,-5.73464 0.250091,-8.97298 0.509813,-0.000401269 1.04992,-0.00110349 1.58672,-0.00160508 2.06965,-0.00190603 4.70589,0.0989129 7.91203,0.296337 -0.0139441,-0.482326 0.00571809,-1.19638 -0.00822602,-2.14228 -0.0171543,-0.936161 -0.00802539,-2.12633 0.00371174,-3.5734 0.00110349,-0.892523 0.0288914,-1.79157 0.0564787,-2.69031 -0.965655,0.016753 -1.93492,0.0238755 -2.90088,0.0309981 -1.8011,0.00180571 -3.6027,0.00351111 -5.40399,0.0052165 -1.85477,0.0143454 -3.70943,0.0256812 -5.53772,0.0336063 -5.64566,0.00531682 -10.6209,-0.0119378 -14.8688,-0.0485536 0.0294933,1.94806 0.0273866,3.73321 0.0207657,5.35875 -0.0240762,1.02073 -0.0215682,2.03554 -0.01896,3.05346 3.17063,-0.100217 6.36433,-0.206654 9.56155,-0.313191 0.0371174,4.06205 0.0403276,7.99248 0.0192609,11.7853 -0.0244774,3.7926 -0.106136,7.46311 -0.218391,11.0055 -1.15375,0.123089 1.58893,0.189499 -3.51662,0.194214 -5.10565,0.00501587 -17.3389,-3.66941 -23.398,-9.60789 -6.05927,-5.94149 -9.93061,-14.1745 -10.1936,-23.2596 -0.263032,-9.08514 3.13201,-17.3127 8.84719,-23.2654 5.71508,-5.94972 13.8233,-9.65023 22.8402,-9.65885zm-16.139 48.105c0.21508,-3.81477 0.340577,-6.89672 0.40779,-9.20793 0.0887808,-3.42935 0.113459,-8.13674 0.127804,-14.1308 -0.0129409,-6.00389 -0.0493561,-10.0439 -0.108945,-12.114 -0.0299949,-1.03668 -0.0599898,-2.07316 -0.0899846,-3.10984 4.62694,0.0363149 8.92804,0.0539707 12.9065,0.0503593 4.00537,-0.00391238 7.84893,-0.0295936 11.5583,-0.0644037 -0.116368,4.32839 -0.168734,7.15965 -0.129911,8.49688 -0.671825,-0.0245777 -1.34676,-0.0520647 -2.01859,-0.0858716 -0.536999,-0.00571809 -1.07701,-0.0115365 -1.61441,-0.0265841 -0.536999,-0.00581841 -1.07711,-0.0115365 -1.58762,-0.0266844 -1.53295,0.00150476 -3.0357,0.00310984 -4.54207,0.00431365 -0.509913,0.000501587 -2.04206,0.0236749 -4.57046,0.0607923 -0.0169536,2.19544 -0.0339073,4.39089 -0.0241765,6.57991 1.10459,0.0334057 2.20578,0.0573815 3.33686,0.0845675 1.23782,-0.00130413 2.47232,-0.0023073 3.73712,-0.00351111 1.07681,-0.00110349 2.71268,-0.0372177 4.91846,-0.0925929 -0.0580837,3.55785 -0.0610933,6.35159 -0.00280889,8.36827 -2.47493,-0.0945992 -4.3314,-0.139943 -5.51224,-0.138739 -2.04286,0.00210666 -4.24884,0.0509612 -6.6378,0.150677 0.0174552,3.38852 0.0350107,6.77694 0.0526666,10.1595 0.0365155,1.26821 0.073031,2.5303 0.109547,3.7924 0.0124393,0.419627 0.0241765,0.829725 0.0359136,1.24323 -1.66747,-0.0139441 -3.30837,-0.0310984 -4.94926,-0.0516634 -0.402573,0.000401269 -2.20337,0.0242768 -5.40269,0.0616952z"/>
  </g>
 </g>
</svg>
