<?xml version="1.0" encoding="UTF-8"?>
<!DOCTYPE svg PUBLIC "-//W3C//DTD SVG 1.1//EN" "http://www.w3.org/Graphics/SVG/1.1/DTD/svg11.dtd">
<!-- Creator: CorelDRAW -->
<svg xmlns="http://www.w3.org/2000/svg" xml:space="preserve" width="203.404mm" height="50.6197mm" style="shape-rendering:geometricPrecision; text-rendering:geometricPrecision; image-rendering:optimizeQuality; fill-rule:evenodd; clip-rule:evenodd"
viewBox="0 0 589.226 146.637"
 xmlns:xlink="http://www.w3.org/1999/xlink">
 <defs>
  <style type="text/css">
   <![CDATA[
    .str0 {stroke:#0A0B0C;stroke-width:0.220738}
    .fil0 {fill:#E77817}
    .fil2 {fill:#F5C491}
    .fil3 {fill:#0A0B0C;fill-rule:nonzero}
    .fil1 {fill:#44916C;fill-rule:nonzero}
   ]]>
  </style>
 </defs>
 <g id="Camada_x0020_1">
  <metadata id="CorelCorpID_0Corel-Layer"/>
  <g id="_168093040">
   <path id="_168092848" class="fil0" d="M276.162 56.5461c12.3486,-4.75949 9.10328,-19.2431 -0.993902,-19.6179 -6.77134,-0.250286 -14.941,2.64654 -14.6258,2.45014l7.30696 -4.49733c5.50745,-3.39653 13.5957,-5.96051 8.36285,-11.5097 -5.5454,-5.88143 -2.10252,-9.46162 -3.723,-15.7718 -6.54596,-25.4814 -37.3769,20.0666 -29.7565,34.0545 -0.873683,-0.408742 -1.6118,-0.713779 -2.2378,-0.919164l0.0260715 -0.011877c-4.57409,-12.1774 -4.30498,-21.4565 -4.23545,-30.7791 -0.348778,9.21626 -0.906997,18.4357 2.67754,30.4445 -0.656421,-0.0492461 -1.05792,0.106603 -1.27982,0.411639 -0.117322,0.0976231 -0.225663,0.230008 -0.3201,0.409612 -9.69974,-8.30926 -18.6092,-11.8973 -27.4254,-15.6605 8.78174,4.0431 17.6162,7.90255 27.0225,17.1061 -0.0747382,0.640778 -0.104865,1.45218 -0.0605437,2.45159 -9.81474,-12.6855 -66.6453,-6.83478 -45.5341,10.0135 5.23486,4.17056 10.0639,2.81717 13.5149,10.5117 3.07875,6.86114 8.91064,1.14338 14.5409,-2.05964l7.46831 -4.25052c0.318361,-0.185687 -6.02077,5.50658 -8.77971,11.4045 -4.70503,10.0795 10.8631,16.3752 19.8476,9.83763 5.10334,-3.71142 13.722,-2.12135 13.9471,-7.78638 0.0660477,-1.65901 -2.72244,-10.5572 -0.76708,-10.0639 0.0663374,0.0170913 5.61405,6.39359 5.92662,6.13664 0.379774,-0.152953 -4.04745,-6.58768 -4.07149,-7.07898 0.0107183,-0.0564882 0.0231746,-0.115294 0.0414246,-0.170623 0.394258,-1.89742 7.5109,4.51326 9.14384,5.09697 8.04971,2.88959 6.57725,-7.29653 13.9841,-10.1516z"/>
   <path id="_168093160" class="fil1" d="M22.4669 105.948l20.5649 0 23.3823 -50.8492 -22.044 0 -11.3396 34.0172 -10.7742 -34.0172 -22.2563 0 22.4669 50.8492zm45.5158 0l16.5441 0 0 -42.6622 -16.5441 0 0 42.6622zm25.7618 0l15.6 0 0 -24.995 17.9036 24.995 18.5539 0 0 -42.6622 -16.0137 0 0 24.5813 -16.485 -24.5813 -19.5588 0 0 42.6622zm61.3934 0l16.5441 0 0 -42.6622 -16.5441 0 0 42.6622zm25.8209 0l42.6031 0 0 -11.6988 -26.059 0 0 -30.9633 -16.5441 0 0 42.6622zm105.186 -50.8492l0 50.8492 32.6079 0c7.12475,-0.0121667 13.0766,-0.98666 17.8885,-2.92203 4.8012,-1.94899 8.41587,-4.80149 10.8576,-8.58127 2.42957,-3.76761 3.65087,-8.39182 3.65087,-13.8857 0,-5.49412 -1.23202,-10.1302 -3.67376,-13.91 -2.44145,-3.78007 -6.06828,-6.65488 -10.8698,-8.60416 -4.8012,-1.95941 -10.7513,-2.9342 -17.8534,-2.94607l-32.6079 0zm19.7193 12.6064l9.7907 0c3.28587,-0.0104286 5.97442,0.388175 8.08708,1.20943 2.11295,0.809374 3.67376,2.13699 4.69547,3.95562 1.01997,1.8082 1.52605,4.21344 1.51388,7.19601 0.0121667,3.02834 -0.504628,5.44546 -1.52605,7.26582 -1.03359,1.80646 -2.59469,3.1222 -4.70735,3.91941 -2.11295,0.798656 -4.80004,1.18654 -8.06303,1.17437l-9.7907 0 0 -24.7207zm51.5178 38.2428l46.6207 0 0 -10.9911 -30.0766 0 0 -5.61203 23.2218 0 0 -10.5181 -23.2218 0 0 -5.08191 28.658 0 0 -10.459 -45.2021 0 0 42.6622zm87.5097 -24.7586l18.9085 0c-0.206254,-4.06628 -1.40815,-7.51263 -3.61466,-10.3394 -2.21578,-2.83715 -5.37738,-4.98312 -9.50276,-6.4608 -4.12682,-1.47767 -9.16933,-2.21578 -15.1269,-2.22476 -9.52245,0.00898017 -16.6823,1.90959 -21.4881,5.68184 -4.81656,3.78123 -7.21861,9.3753 -7.22788,16.7715 0.00926985,7.39589 2.41132,12.9885 7.22788,16.7608 4.80584,3.78123 11.9656,5.68184 21.4881,5.69256 8.51899,-0.0196984 15.1663,-1.53677 19.9224,-4.56946 4.75717,-3.02371 7.57318,-7.47498 8.4402,-13.3341l-19.0858 0c-0.501731,2.30356 -1.54604,4.03731 -3.11148,5.18938 -1.55647,1.15178 -3.61466,1.72303 -6.16532,1.72303 -3.55557,-0.00898017 -6.26236,-0.994191 -8.12502,-2.9342 -1.86121,-1.95043 -2.79631,-4.79657 -2.80558,-8.52797 0.00926985,-3.74212 0.944366,-6.58826 2.80558,-8.55868 1.86266,-1.95941 4.56946,-2.9539 8.12502,-2.96432 2.78704,0.0104286 4.97414,0.700163 6.54886,2.07789 1.58514,1.36846 2.51126,3.37828 2.78704,6.01671zm22.6911 3.4284c0.00926985,7.39589 2.41132,12.9885 7.22788,16.7608 4.80584,3.78123 11.9656,5.68184 21.4881,5.69256 9.5239,-0.0107183 16.6834,-1.91133 21.4985,-5.69256 4.80584,-3.77225 7.20789,-9.36487 7.21861,-16.7608 -0.0107183,-7.39618 -2.41277,-12.9902 -7.21861,-16.7715 -4.81511,-3.77225 -11.9746,-5.67286 -21.4985,-5.68184 -9.52245,0.00898017 -16.6823,1.90959 -21.4881,5.68184 -4.81656,3.78123 -7.21861,9.3753 -7.22788,16.7715zm17.7854 0c0.00926985,-3.74212 0.944366,-6.58826 2.80558,-8.55868 1.86266,-1.95941 4.56946,-2.9539 8.12502,-2.96432 3.55557,0.0104286 6.26381,1.00491 8.12502,2.96432 1.86092,1.97042 2.79602,4.81656 2.80674,8.55868 -0.0107183,3.7314 -0.945814,6.57754 -2.80674,8.52797 -1.86121,1.94001 -4.56946,2.92522 -8.12502,2.9342 -3.55557,-0.00898017 -6.26236,-0.994191 -8.12502,-2.9342 -1.86121,-1.95043 -2.79631,-4.79657 -2.80558,-8.52797zm63.2818 -2.89625l0 -7.62185 9.21771 0c1.61556,-0.0199881 2.96461,0.0680755 4.0376,0.245361 1.07443,0.168306 1.88062,0.531858 2.4232,1.06401 0.541128,0.542576 0.807925,1.33978 0.807925,2.41277 0,1.01389 -0.25608,1.81255 -0.768529,2.37337 -0.503179,0.571255 -1.26997,0.974493 -2.28531,1.20189 -1.01389,0.225663 -2.28415,0.334873 -3.80122,0.324445l-9.63137 0zm15.7179 -18.4357l-32.4984 0 0 42.6622 16.7805 0 0 -12.9992 9.86776 0c1.34905,-0.0104286 2.44319,0.12746 3.27979,0.394258 0.836604,0.26506 1.46724,0.718124 1.88989,1.33805 0.424385,0.62137 0.689735,1.46869 0.798945,2.52198 0.0984922,0.906418 0.157587,1.76272 0.166568,2.59932 0.0196984,0.827334 0.0393969,1.60484 0.0590953,2.35367 0.0304167,0.73956 0.10921,1.42901 0.236381,2.0582 0.118191,0.641068 0.345592,1.21232 0.660767,1.73375l18.3766 0 0 -0.650338c-0.650338,-0.334873 -1.13382,-0.945525 -1.4293,-1.84122 -0.285048,-0.886719 -0.492461,-2.06718 -0.590953,-3.52544 -0.107762,-1.46695 -0.196984,-3.2204 -0.285048,-5.26962 -0.048377,-1.21087 -0.146869,-2.27488 -0.285048,-3.19926 -0.148318,-0.926116 -0.404397,-1.74302 -0.759259,-2.46288 -0.354572,-0.709433 -0.876001,-1.33833 -1.55502,-1.90061 -0.680465,-0.560826 -1.58659,-1.07299 -2.71896,-1.53677 1.48694,-0.580524 2.74793,-1.39743 3.79224,-2.45072 1.04402,-1.05474 1.85049,-2.28531 2.40205,-3.70388 0.551556,-1.42785 0.838052,-2.97359 0.838052,-4.65752 0,-2.07789 -0.424385,-3.91014 -1.25172,-5.48485 -0.836604,-1.57616 -2.04748,-2.83715 -3.65261,-3.79195 -1.35948,-0.816906 -3.21142,-1.38845 -5.55467,-1.71434 -2.34469,-0.324155 -5.19981,-0.481743 -8.56766,-0.472762z"/>
   <path id="_168093136" class="fil2" d="M226.896 112.959c-7.16009,3.84322 -4.07642,12.4199 2.10455,11.877 4.14478,-0.364711 8.90108,-2.75373 8.72409,-2.61033l-4.10857 3.29862c-3.09613,2.49011 -7.8281,4.67027 -4.21604,7.65168 3.82816,3.15986 2.00403,5.6042 3.4733,9.32518 5.93502,15.0253 21.2404,-15.082 15.5287,-23.0225 0.563433,0.1825 1.03649,0.311988 1.43364,0.389044l-0.0150635 0.00926985c3.71721,7.07029 4.2621,12.7443 4.93214,18.4299 -0.491592,-5.64186 -0.855723,-11.302 -3.95736,-18.345 0.403818,-0.0199881 0.636433,-0.14571 0.74854,-0.348488 0.0637302,-0.0683651 0.119929,-0.157587 0.163671,-0.27404 6.54451,4.32178 12.2472,5.82726 17.9065,7.44659 -5.65953,-1.79256 -11.3373,-3.46924 -17.7715,-8.35822 -0.00347619,-0.395996 -0.0469286,-0.892802 -0.150345,-1.49824 6.94891,6.97933 41.1283,-0.926985 26.9782,-9.57952 -3.50777,-2.14134 -6.34695,-0.947842 -9.03724,-5.37246 -2.40002,-3.94519 -5.51643,-0.0159326 -8.70236,2.36584l-4.2256 3.16044c-0.179893,0.13731 3.24763,-3.81512 4.47821,-7.61953 2.09672,-6.50077 -7.86981,-9.14731 -12.8445,-4.47763 -2.82586,2.65118 -8.1986,2.34093 -7.90284,5.80959 0.0863255,1.01592 2.4652,6.22442 1.23608,6.0732 -0.0417143,-0.00521429 -3.90898,-3.46663 -4.07989,-3.28616 -0.21958,0.122246 2.96925,3.70446 3.02168,4.00226 -0.00231746,0.0350516 -0.00550397,0.0718413 -0.0121667,0.106893 -0.0953057,1.18625 -4.92113,-2.1761 -5.9608,-2.40697 -5.12507,-1.14541 -3.44983,4.94807 -7.74496,7.25366z"/>
   <path id="_114561728" class="fil3 str0" d="M39.7509 133.251l0 1.971c-0.811981,0.473342 -1.69493,0.826755 -2.64973,1.06111 -0.953636,0.233195 -1.99505,0.348778 -3.11235,0.348778 -1.44697,0 -2.82586,-0.247679 -4.13899,-0.736663 -1.31806,-0.489854 -2.48229,-1.20103 -3.49908,-2.13322 -1.03649,-0.932199 -1.81892,-1.99649 -2.35831,-3.19317 -0.535624,-1.19668 -0.802421,-2.48229 -0.802421,-3.85336 0,-2.81774 1.05039,-5.17663 3.14596,-7.07087 2.10049,-1.89453 4.73023,-2.8444 7.89096,-2.8444 0.979707,0 1.91075,0.106603 2.79863,0.323286 0.881505,0.217552 1.7943,0.561985 2.72534,1.03446l0 2.02314c-0.921191,-0.638751 -1.82877,-1.09877 -2.72157,-1.38005 -0.886719,-0.276647 -1.90466,-0.417723 -3.04051,-0.417723 -2.47244,0 -4.55932,0.801263 -6.25918,2.40553 -1.70362,1.60571 -2.55297,3.58106 -2.55297,5.92662 0,2.34672 0.84935,4.32207 2.55297,5.92662 1.69986,1.60542 3.78673,2.40553 6.25918,2.40553 1.13585,0 2.17755,-0.148897 3.12597,-0.442346 0.946104,-0.294318 1.82413,-0.745354 2.63611,-1.35427zm3.87132 -6.53553c0,2.35454 0.869049,4.32989 2.60135,5.93097 1.73346,1.60108 3.86727,2.40118 6.3933,2.40118 2.51561,0 4.63493,-0.800104 6.35332,-2.40118 1.72361,-1.60108 2.58281,-3.57642 2.58281,-5.93097 0,-2.34556 -0.873973,-4.32091 -2.61989,-5.92662 -1.75345,-1.60426 -3.88233,-2.40553 -6.40315,-2.40553 -2.52459,0 -4.63869,0.796628 -6.34869,2.39336 -1.70478,1.59673 -2.55906,3.57671 -2.55906,5.93879zm-1.9852 0c0,-1.1877 0.204516,-2.32007 0.614997,-3.39334 0.411639,-1.07212 1.01679,-2.05211 1.81892,-2.94086 1.04518,-1.15902 2.29139,-2.04458 3.7372,-2.65668 1.45189,-0.617893 3.02805,-0.924378 4.72183,-0.924378 1.28938,0 2.52574,0.187714 3.71866,0.56662 1.19407,0.378905 2.2827,0.936545 3.26096,1.66423 1.29952,0.94118 2.28763,2.06891 2.9649,3.389 0.683072,1.31545 1.02171,2.74996 1.02171,4.29542 0,1.19668 -0.205964,2.3334 -0.620211,3.41102 -0.416564,1.07675 -1.02171,2.05211 -1.81399,2.92435 -1.06024,1.16684 -2.31109,2.0524 -3.74705,2.66566 -1.43828,0.608913 -2.99445,0.915398 -4.66969,0.915398 -1.49418,0 -2.91131,-0.250865 -4.25921,-0.749989 -1.3505,-0.497675 -2.53444,-1.21319 -3.55991,-2.14539 -1.04662,-0.927854 -1.83891,-1.9878 -2.3783,-3.17985 -0.539389,-1.18799 -0.810822,-2.47013 -0.810822,-3.84119zm24.4319 9.6053l0 -19.2097c2.16248,0.225663 3.973,0.838921 5.41997,1.83891 1.44957,1.00114 2.43913,2.31225 2.9733,3.93447 0.678437,-1.71232 1.68509,-3.04428 3.02197,-4.00226 1.33167,-0.957691 3.01676,-1.54546 5.06018,-1.77112l0 19.2097 -1.95681 0 0 -16.9407c-1.68132,0.532147 -2.96577,1.48984 -3.86234,2.87423 -0.892803,1.38787 -1.34152,3.1167 -1.34152,5.19778l0 0.647731 -1.71869 0c0,-0.0854564 0.00492461,-0.199881 0.0136151,-0.357758 0.00984922,-0.153242 0.0150635,-0.26448 0.0150635,-0.340957 0,-2.15466 -0.492461,-3.92549 -1.47449,-5.31336 -0.984342,-1.38787 -2.38815,-2.28994 -4.20706,-2.70767l0 16.9407 -1.94319 0zm19.8604 -6.02424l0 -13.1855 1.97274 0 0 13.5343c0,1.32906 0.338639,2.37105 1.02055,3.1167 0.678437,0.74883 1.60948,1.12455 2.78385,1.12455 1.23115,0 2.18595,-0.357758 2.87423,-1.07791 0.683072,-0.718703 1.02548,-1.73665 1.02548,-3.0521l0 -13.6455 1.97274 0 0 13.6455c0,1.79661 -0.52954,3.22214 -1.58601,4.28325 -1.06024,1.05995 -2.45883,1.5921 -4.19229,1.5921 -0.948422,0 -1.82268,-0.174389 -2.61989,-0.524326 -0.797497,-0.348778 -1.48926,-0.855433 -2.07703,-1.51997 -0.419171,-0.476818 -0.720441,-0.987818 -0.901493,-1.54111 -0.182211,-0.553294 -0.272881,-1.34558 -0.272881,-2.3754l0 -0.37456zm15.0322 6.02424l0 -19.5206c2.55413,1.09877 4.703,2.51213 6.43646,4.24878 1.73839,1.73317 2.9733,3.68766 3.70881,5.86637l-0.253183 -9.80432 1.94435 0 0 19.2097 -1.94435 0c0.0101389,-0.157587 0.0139048,-0.327631 0.0188294,-0.511001 0.00492461,-0.183369 0.00984922,-0.455671 0.00984922,-0.813429 0,-3.31658 -0.66714,-6.23658 -1.99997,-8.76522 -1.33544,-2.53009 -3.32701,-4.64101 -5.97674,-6.34l0 16.4297 -1.94406 0zm15.3294 0l0 -19.2097 2.00142 0 0 19.2097 -2.00142 0zm21.0828 -3.06977l0 1.971c-0.811981,0.473342 -1.69609,0.826755 -2.64973,1.06111 -0.954795,0.233195 -1.9962,0.348778 -3.11235,0.348778 -1.44812,0 -2.82701,-0.247679 -4.14015,-0.736663 -1.3169,-0.489854 -2.48229,-1.20103 -3.49908,-2.13322 -1.03533,-0.932199 -1.81776,-1.99649 -2.35831,-3.19317 -0.535624,-1.19668 -0.802421,-2.48229 -0.802421,-3.85336 0,-2.81774 1.05039,-5.17663 3.14596,-7.07087 2.10049,-1.89453 4.73168,-2.8444 7.89212,-2.8444 0.978259,0 1.90959,0.106603 2.79747,0.323286 0.882664,0.217552 1.7943,0.561985 2.72649,1.03446l0 2.02314c-0.92235,-0.638751 -1.82877,-1.09877 -2.72273,-1.38005 -0.886719,-0.276647 -1.90466,-0.417723 -3.03935,-0.417723 -2.4736,0 -4.56048,0.801263 -6.25918,2.40553 -1.70478,1.60571 -2.55442,3.58106 -2.55442,5.92662 0,2.34672 0.84964,4.32207 2.55442,5.92662 1.6987,1.60542 3.78558,2.40553 6.25918,2.40553 1.13469,0 2.17639,-0.148897 3.12597,-0.442346 0.944945,-0.294318 1.82413,-0.745354 2.63611,-1.35427zm4.06599 -5.68763l9.16556 0c-0.33835,-1.43132 -0.882664,-2.8444 -1.63671,-4.24443 -0.758679,-1.4012 -1.73839,-2.80674 -2.94115,-4.21112 -1.16539,1.32443 -2.12395,2.67783 -2.878,4.07004 -0.754913,1.39656 -1.32298,2.85656 -1.70971,4.38551zm-2.51474 8.7574c-0.00984922,-0.165409 -0.0147738,-0.348778 -0.0196984,-0.548659 -0.00376588,-0.200171 -0.00869049,-0.494489 -0.00869049,-0.88556 0,-3.92549 0.572703,-7.32318 1.71232,-10.1977 1.14077,-2.87336 2.94984,-5.48341 5.41852,-7.83766 2.47244,2.35425 4.28296,4.95995 5.42373,7.82549 1.14077,2.86554 1.71347,6.23774 1.71347,10.112 0,0.404397 -0.00492461,0.714358 -0.00984922,0.927854 -0.00376588,0.212048 -0.0136151,0.413377 -0.0321548,0.604278l-1.81921 0 0 -0.68539c0,-1.35774 -0.0333135,-2.55442 -0.10023,-3.60221 -0.0634405,-1.04228 -0.157587,-1.95333 -0.276647,-2.73779l-9.83531 0c-0.11906,0.94118 -0.209441,1.98896 -0.271433,3.15117 -0.0619921,1.16221 -0.0906707,2.45217 -0.0906707,3.87422l-1.80414 0zm32.0131 -3.06977l0 1.971c-0.811981,0.473342 -1.69493,0.826755 -2.64973,1.06111 -0.954795,0.233195 -1.9962,0.348778 -3.11235,0.348778 -1.44697,0 -2.82701,-0.247679 -4.14015,-0.736663 -1.3169,-0.489854 -2.48113,-1.20103 -3.49792,-2.13322 -1.03649,-0.932199 -1.81892,-1.99649 -2.35831,-3.19317 -0.535624,-1.19668 -0.802421,-2.48229 -0.802421,-3.85336 0,-2.81774 1.05039,-5.17663 3.14596,-7.07087 2.10049,-1.89453 4.73023,-2.8444 7.89096,-2.8444 0.979707,0 1.90959,0.106603 2.79863,0.323286 0.881505,0.217552 1.7943,0.561985 2.72534,1.03446l0 2.02314c-0.921191,-0.638751 -1.82877,-1.09877 -2.72157,-1.38005 -0.887878,-0.276647 -1.90582,-0.417723 -3.04051,-0.417723 -2.47244,0 -4.55932,0.801263 -6.25918,2.40553 -1.70362,1.60571 -2.55442,3.58106 -2.55442,5.92662 0,2.34672 0.850798,4.32207 2.55442,5.92662 1.69986,1.60542 3.78673,2.40553 6.25918,2.40553 1.13469,0 2.1761,-0.148897 3.12597,-0.442346 0.946104,-0.294318 1.82413,-0.745354 2.63611,-1.35427zm-9.53781 7.89762l0 -1.14454c0.724207,0.148897 1.39251,0.263322 1.99389,0.340088 0.60283,0.0811112 1.09384,0.11877 1.47564,0.11877 0.458858,0 0.812271,-0.0799525 1.05531,-0.242175 0.247969,-0.162222 0.371953,-0.387596 0.371953,-0.681044 0,-0.332266 -0.137599,-0.578786 -0.410481,-0.745644 -0.276647,-0.165409 -0.692052,-0.250865 -1.24129,-0.250865 -0.167437,0 -0.309961,0.00434524 -0.435104,0.00869049 -0.117901,0.00463493 -0.243044,0.00898017 -0.362104,0.0168016l-0.0136151 -2.24794 1.00694 0 0 1.15004 0.376877 0c0.951029,0 1.68624,0.170044 2.20072,0.510131 0.52085,0.340957 0.778957,0.826465 0.778957,1.46116 0,0.727683 -0.276647,1.27663 -0.832259,1.64308 -0.557929,0.36558 -1.38874,0.548949 -2.49591,0.548949 -0.487247,0 -1.02664,-0.0422937 -1.62309,-0.123405 -0.597616,-0.0854564 -1.21261,-0.204226 -1.84644,-0.362104zm13.605 -13.5853l9.16556 0c-0.339508,-1.43132 -0.883822,-2.8444 -1.63787,-4.24443 -0.757521,-1.4012 -1.73723,-2.80674 -2.94115,-4.21112 -1.16424,1.32443 -2.12395,2.67783 -2.878,4.07004 -0.755203,1.39656 -1.32298,2.85656 -1.70855,4.38551zm-2.5159 8.7574c-0.00984922,-0.165409 -0.0147738,-0.348778 -0.0199881,-0.548659 -0.00347619,-0.200171 -0.0084008,-0.494489 -0.0084008,-0.88556 0,-3.92549 0.572703,-7.32318 1.71232,-10.1977 1.14193,-2.87336 2.951,-5.48341 5.41852,-7.83766 2.4736,2.35425 4.28412,4.95995 5.42344,7.82549 1.14077,2.86554 1.71376,6.23774 1.71376,10.112 0,0.404397 -0.00492461,0.714358 -0.00984922,0.927854 -0.00376588,0.212048 -0.0136151,0.413377 -0.0324445,0.604278l-1.81892 0 0 -0.68539c0,-1.35774 -0.0336032,-2.55442 -0.10052,-3.60221 -0.0619921,-1.04228 -0.157298,-1.95333 -0.276357,-2.73779l-9.83531 0c-0.117901,0.94118 -0.20973,1.98896 -0.271723,3.15117 -0.0619921,1.16221 -0.090381,2.45217 -0.090381,3.87422l-1.80414 0zm11.0604 -23.9107c-0.156139,0.813429 -0.462623,1.43103 -0.916267,1.85223 -0.453933,0.422358 -1.03533,0.63006 -1.75693,0.63006 -0.137889,0 -0.286496,-0.00782144 -0.439159,-0.0289683 -0.152373,-0.0223056 -0.324734,-0.0599643 -0.510711,-0.106603l-1.39888 -0.348778c-0.0518532,-0.0179603 -0.11877,-0.030127 -0.195826,-0.0391072 -0.0718413,-0.00869049 -0.189742,-0.0121667 -0.348488,-0.0121667 -0.252893,0 -0.482322,0.072131 -0.691763,0.212338 -0.209441,0.141076 -0.371953,0.340957 -0.482322,0.596457l-1.20276 0c0.234353,-0.805318 0.586318,-1.40989 1.05502,-1.81428 0.472473,-0.404397 1.05531,-0.604568 1.75722,-0.604568 0.12775,0 0.252893,0.00463493 0.367028,0.0168016 0.120218,0.0133254 0.224504,0.0344723 0.314885,0.0599643l1.72361 0.409032c0.0185397,0 0.0469286,0.00434524 0.0805318,0.0121667 0.177286,0.0254921 0.305036,0.0388175 0.378036,0.0388175 0.291421,0 0.524616,-0.076766 0.700743,-0.225663 0.177286,-0.148897 0.296346,-0.366449 0.363262,-0.647731l1.20276 0zm6.37824 14.3054c0,2.35454 0.868179,4.32989 2.60164,5.93097 1.73201,1.60108 3.86611,2.40118 6.39185,2.40118 2.51705,0 4.63608,-0.800104 6.35361,-2.40118 1.72477,-1.60108 2.58281,-3.57642 2.58281,-5.93097 0,-2.34556 -0.873104,-4.32091 -2.62018,-5.92662 -1.752,-1.60426 -3.88233,-2.40553 -6.4017,-2.40553 -2.52603,0 -4.64014,0.796628 -6.34985,2.39336 -1.70362,1.59673 -2.55819,3.57671 -2.55819,5.93879zm-1.98636 0c0,-1.1877 0.205964,-2.32007 0.614997,-3.39334 0.411639,-1.07212 1.01679,-2.05211 1.81921,-2.94086 1.04518,-1.15902 2.29139,-2.04458 3.73836,-2.65668 1.45073,-0.617893 3.02661,-0.924378 4.72183,-0.924378 1.28938,0 2.52459,0.187714 3.71866,0.56662 1.19407,0.378905 2.2827,0.936545 3.2598,1.66423 1.29923,0.94118 2.28763,2.06891 2.96577,3.389 0.682203,1.31545 1.02171,2.74996 1.02171,4.29542 0,1.19668 -0.205675,2.3334 -0.62108,3.41102 -0.415405,1.07675 -1.02171,2.05211 -1.81399,2.92435 -1.06024,1.16684 -2.31022,2.0524 -3.74734,2.66566 -1.43712,0.608913 -2.993,0.915398 -4.66969,0.915398 -1.49389,0 -2.91131,-0.250865 -4.25776,-0.749989 -1.3505,-0.497675 -2.53588,-1.21319 -3.56136,-2.14539 -1.04633,-0.927854 -1.83891,-1.9878 -2.37801,-3.17985 -0.539389,-1.18799 -0.811112,-2.47013 -0.811112,-3.84119zm122.256 6.53553l0 1.99649c-0.961168,0.481163 -1.88236,0.834576 -2.76531,1.05242 -0.877739,0.221028 -1.80038,0.331977 -2.75894,0.331977 -3.16189,0 -5.79163,-0.94987 -7.89212,-2.8444 -2.09557,-1.89424 -3.14596,-4.25312 -3.14596,-7.07203 0,-2.81774 1.05039,-5.17663 3.14596,-7.07087 2.10049,-1.89453 4.73023,-2.8444 7.89212,-2.8444 0.978549,0 1.90959,0.106603 2.79747,0.323286 0.882953,0.217552 1.7943,0.561985 2.72678,1.03446l0 2.02314c-0.92264,-0.638751 -1.82906,-1.09877 -2.72302,-1.38005 -0.886719,-0.276647 -1.90466,-0.417723 -3.03906,-0.417723 -2.27807,0 -4.23082,0.685679 -5.86376,2.05211 -1.62831,1.36672 -2.60657,3.15117 -2.92145,5.35681l10.2779 0 0 1.65988 -10.2779 0c0.252893,2.25228 1.199,4.08337 2.84063,5.48891 1.64192,1.40438 3.62335,2.10657 5.94458,2.10657 1.1344,0 2.15234,-0.139917 3.03906,-0.416564 0.893961,-0.281282 1.80038,-0.741298 2.72302,-1.38005zm16.2211 -14.1942l0 9.93293c1.71347,-0.0599643 3.08744,-0.541128 4.12392,-1.44755 1.03533,-0.906707 1.55125,-2.07326 1.55125,-3.50893 0,-1.40438 -0.52954,-2.57094 -1.58457,-3.50342 -1.06024,-0.932199 -2.42551,-1.42205 -4.09061,-1.47304zm-1.86266 17.2639l0 -19.2097 0.311409 0c2.82093,0 5.0541,0.63006 6.70065,1.89018 1.64801,1.25983 2.46868,2.96317 2.46868,5.10885 0,1.86874 -0.686838,3.41884 -2.06689,4.64535 -1.37889,1.22565 -3.23141,1.929 -5.55119,2.10339l0 5.46197 -1.86266 0zm11.8057 0l0 -19.2097 1.99997 0 0 17.5499 5.95791 0 0 1.65988 -7.95788 0zm11.0804 -8.7574l9.16556 0c-0.33835,-1.43132 -0.882953,-2.8444 -1.63671,-4.24443 -0.758969,-1.4012 -1.73839,-2.80674 -2.94115,-4.21112 -1.16568,1.32443 -2.12395,2.67783 -2.878,4.07004 -0.755203,1.39656 -1.32298,2.85656 -1.70971,4.38551zm-2.5159 8.7574c-0.0101389,-0.165409 -0.0150635,-0.348778 -0.0199881,-0.548659 -0.00376588,-0.200171 -0.00869049,-0.494489 -0.00869049,-0.88556 0,-3.92549 0.574151,-7.32318 1.71376,-10.1977 1.14077,-2.87336 2.94984,-5.48341 5.41852,-7.83766 2.47244,2.35425 4.28267,4.95995 5.42228,7.82549 1.14193,2.86554 1.71492,6.23774 1.71492,10.112 0,0.404397 -0.00492461,0.714358 -0.00984922,0.927854 -0.00376588,0.212048 -0.0136151,0.413377 -0.0324445,0.604278l-1.81892 0 0 -0.68539c0,-1.35774 -0.0336032,-2.55442 -0.101679,-3.60221 -0.0619921,-1.04228 -0.156139,-1.95333 -0.276647,-2.73779l-9.83386 0c-0.11906,0.94118 -0.20973,1.98896 -0.271723,3.15117 -0.0631509,1.16221 -0.0915398,2.45217 -0.0915398,3.87422l-1.80414 0zm16.4305 0l0 -19.5206c2.55442,1.09877 4.70329,2.51213 6.43675,4.24878 1.73839,1.73317 2.9733,3.68766 3.70852,5.86637l-0.252893 -9.80432 1.94435 0 0 19.2097 -1.94435 0c0.00984922,-0.157587 0.0136151,-0.327631 0.0185397,-0.511001 0.00492461,-0.183369 0.00984922,-0.455671 0.00984922,-0.813429 0,-3.31658 -0.66685,-6.23658 -1.99997,-8.76522 -1.3366,-2.53009 -3.32672,-4.64101 -5.97645,-6.34l0 16.4297 -1.94435 0zm30.9703 -3.06977l0 1.99649c-0.960878,0.481163 -1.88091,0.834576 -2.76502,1.05242 -0.878029,0.221028 -1.80038,0.331977 -2.75894,0.331977 -3.16073,0 -5.79192,-0.94987 -7.89241,-2.8444 -2.09528,-1.89424 -3.14567,-4.25312 -3.14567,-7.07203 0,-2.81774 1.05039,-5.17663 3.14567,-7.07087 2.10049,-1.89453 4.73168,-2.8444 7.89241,-2.8444 0.978259,0 1.90959,0.106603 2.79747,0.323286 0.882664,0.217552 1.79401,0.561985 2.72649,1.03446l0 2.02314c-0.92235,-0.638751 -1.82877,-1.09877 -2.72273,-1.38005 -0.886719,-0.276647 -1.90466,-0.417723 -3.03935,-0.417723 -2.27778,0 -4.22937,0.685679 -5.86376,2.05211 -1.62802,1.36672 -2.60628,3.15117 -2.92116,5.35681l10.2779 0 0 1.65988 -10.2779 0c0.252893,2.25228 1.199,4.08337 2.84063,5.48891 1.64163,1.40438 3.62306,2.10657 5.94429,2.10657 1.13469,0 2.15263,-0.139917 3.03935,-0.416564 0.893961,-0.281282 1.80038,-0.741298 2.72273,-1.38005zm1.11615 3.38089l0 -1.74534c1.80907,-0.324445 3.19781,-1.18017 4.16738,-2.57238 0.969568,-1.38758 1.45681,-3.20998 1.45681,-5.47414l0 -9.729 1.97158 0 0 9.70322c0,2.77111 -0.63962,4.9811 -1.92436,6.63663 -1.27953,1.6567 -3.16942,2.71665 -5.67141,3.18101zm12.0969 -9.06852l9.16585 0c-0.338639,-1.43132 -0.882953,-2.8444 -1.63671,-4.24443 -0.758969,-1.4012 -1.73868,-2.80674 -2.94144,-4.21112 -1.16539,1.32443 -2.12395,2.67783 -2.87771,4.07004 -0.755203,1.39656 -1.32298,2.85656 -1.71,4.38551zm-2.51474 8.7574c-0.00984922,-0.165409 -0.0147738,-0.348778 -0.0196984,-0.548659 -0.00376588,-0.200171 -0.00869049,-0.494489 -0.00869049,-0.88556 0,-3.92549 0.572993,-7.32318 1.71232,-10.1977 1.14077,-2.87336 2.94984,-5.48341 5.41852,-7.83766 2.47273,2.35425 4.28296,4.95995 5.42373,7.82549 1.14077,2.86554 1.71347,6.23774 1.71347,10.112 0,0.404397 -0.00492461,0.714358 -0.00984922,0.927854 -0.00376588,0.212048 -0.0136151,0.413377 -0.0321548,0.604278l-1.81892 0 0 -0.68539c0,-1.35774 -0.0336032,-2.55442 -0.10052,-3.60221 -0.0631509,-1.04228 -0.157587,-1.95333 -0.276647,-2.73779l-9.83531 0c-0.11906,0.94118 -0.209441,1.98896 -0.271433,3.15117 -0.0619921,1.16221 -0.0906707,2.45217 -0.0906707,3.87422l-1.80414 0zm16.4297 0l0 -19.2097c2.16364,0.225663 3.97387,0.838921 5.41968,1.83891 1.45073,1.00114 2.44029,2.31225 2.97475,3.93447 0.676989,-1.71232 1.68393,-3.04428 3.02052,-4.00226 1.33167,-0.957691 3.01792,-1.54546 5.06018,-1.77112l0 19.2097 -1.95652 0 0 -16.9407c-1.68016,0.532147 -2.9649,1.48984 -3.86263,2.87423 -0.891354,1.38787 -1.34152,3.1167 -1.34152,5.19778l0 0.647731 -1.71753 0c0,-0.0854564 0.00521429,-0.199881 0.0139048,-0.357758 0.00984922,-0.153242 0.0147738,-0.26448 0.0147738,-0.340957 0,-2.15466 -0.492171,-3.92549 -1.47564,-5.31336 -0.984342,-1.38787 -2.3867,-2.28994 -4.20591,-2.70767l0 16.9407 -1.94406 0zm35.6113 -3.06977l0 1.99649c-0.960878,0.481163 -1.88207,0.834576 -2.76502,1.05242 -0.877739,0.221028 -1.80038,0.331977 -2.75894,0.331977 -3.16189,0 -5.79192,-0.94987 -7.89212,-2.8444 -2.09557,-1.89424 -3.14596,-4.25312 -3.14596,-7.07203 0,-2.81774 1.05039,-5.17663 3.14596,-7.07087 2.1002,-1.89453 4.73023,-2.8444 7.89212,-2.8444 0.978259,0 1.90959,0.106603 2.79747,0.323286 0.882664,0.217552 1.79401,0.561985 2.72649,1.03446l0 2.02314c-0.92235,-0.638751 -1.82877,-1.09877 -2.72273,-1.38005 -0.886719,-0.276647 -1.90466,-0.417723 -3.03935,-0.417723 -2.27778,0 -4.23053,0.685679 -5.86376,2.05211 -1.62802,1.36672 -2.60628,3.15117 -2.92116,5.35681l10.2779 0 0 1.65988 -10.2779 0c0.252893,2.25228 1.199,4.08337 2.84063,5.48891 1.64163,1.40438 3.62306,2.10657 5.94429,2.10657 1.13469,0 2.15263,-0.139917 3.03935,-0.416564 0.893961,-0.281282 1.80038,-0.741298 2.72273,-1.38005zm2.66711 3.06977l0 -19.5206c2.55442,1.09877 4.70329,2.51213 6.43559,4.24878 1.73839,1.73317 2.97446,3.68766 3.70997,5.86637l-0.253183 -9.80432 1.94319 0 0 19.2097 -1.94319 0c0.0101389,-0.157587 0.0136151,-0.327631 0.0188294,-0.511001 0.00492461,-0.183369 0.00984922,-0.455671 0.00984922,-0.813429 0,-3.31658 -0.668298,-6.23658 -2.00142,-8.76522 -1.33544,-2.53009 -3.32672,-4.64101 -5.97645,-6.34l0 16.4297 -1.94319 0zm13.8639 -17.7752c0.783882,-0.541128 1.69899,-0.966672 2.74909,-1.27663 1.04518,-0.311119 2.09557,-0.468707 3.15088,-0.468707 1.05502,0 2.1002,0.157587 3.13698,0.468707 1.04025,0.309961 1.95275,0.735505 2.73519,1.27663l-0.825596 1.44783c-0.596457,-0.392231 -1.23144,-0.711171 -1.9009,-0.953346 -0.672064,-0.247679 -1.40235,-0.422358 -2.19464,-0.519981l0 17.8007 -1.91451 0 0 -17.8007c-0.782433,0.0976231 -1.50925,0.272302 -2.17262,0.519981 -0.668298,0.242175 -1.29923,0.561116 -1.89568,0.953346l-0.868179 -1.44783zm14.8237 8.16993c0,2.35454 0.868179,4.32989 2.60164,5.93097 1.73201,1.60108 3.86611,2.40118 6.39185,2.40118 2.51705,0 4.63608,-0.800104 6.35361,-2.40118 1.72477,-1.60108 2.58281,-3.57642 2.58281,-5.93097 0,-2.34556 -0.873104,-4.32091 -2.62018,-5.92662 -1.75316,-1.60426 -3.88204,-2.40553 -6.4017,-2.40553 -2.52574,0 -4.63985,0.796628 -6.34985,2.39336 -1.70362,1.59673 -2.55819,3.57671 -2.55819,5.93879zm-1.98636 0c0,-1.1877 0.205964,-2.32007 0.614997,-3.39334 0.411639,-1.07212 1.01679,-2.05211 1.81921,-2.94086 1.04518,-1.15902 2.29139,-2.04458 3.73836,-2.65668 1.45073,-0.617893 3.02661,-0.924378 4.72183,-0.924378 1.28938,0 2.52459,0.187714 3.71866,0.56662 1.19262,0.378905 2.2827,0.936545 3.2598,1.66423 1.29952,0.94118 2.28763,2.06891 2.96577,3.389 0.682203,1.31545 1.02171,2.74996 1.02171,4.29542 0,1.19668 -0.205675,2.3334 -0.62108,3.41102 -0.415405,1.07675 -1.02171,2.05211 -1.81399,2.92435 -1.06024,1.16684 -2.31138,2.0524 -3.74734,2.66566 -1.43828,0.608913 -2.99445,0.915398 -4.6694,0.915398 -1.49418,0 -2.9116,-0.250865 -4.25805,-0.749989 -1.3505,-0.497675 -2.53588,-1.21319 -3.56136,-2.14539 -1.04633,-0.927854 -1.83862,-1.9878 -2.37801,-3.17985 -0.539389,-1.18799 -0.811112,-2.47013 -0.811112,-3.84119zm46.6311 9.6053c-3.88117,-1.67321 -6.81247,-4.12972 -8.80259,-7.3788 -1.99012,-3.24763 -2.98808,-7.1908 -2.98808,-11.8309l1.91451 0 0 0.123405c0,3.70765 0.64831,6.88895 1.9429,9.53665 1.29807,2.64886 3.30325,4.89651 6.0199,6.7444l0 -16.4044 1.91336 0 0 19.2097zm3.32295 0l0 -19.2097 2.00142 0 0 19.2097 -2.00142 0zm7.2525 0c0.958561,-0.583132 1.68885,-1.28098 2.19493,-2.1031 0.50202,-0.817775 0.754913,-1.72014 0.754913,-2.69897 0,-0.655552 -0.162222,-1.27779 -0.492171,-1.86556 -0.323576,-0.586608 -0.86789,-1.21783 -1.63671,-1.88989 -0.0521429,-0.0509842 -0.139048,-0.12775 -0.247969,-0.238988 -2.00634,-1.77865 -3.00951,-3.40986 -3.00951,-4.8997 0,-1.61353 0.617604,-2.99793 1.84876,-4.14681 1.23144,-1.15439 2.74532,-1.72883 4.54454,-1.72883 0.596457,0 1.18799,0.0677858 1.77691,0.199881 0.586318,0.132385 1.19784,0.341246 1.83253,0.622239l0 1.83456c-0.510711,-0.348778 -1.05502,-0.616735 -1.62802,-0.800104 -0.577917,-0.183369 -1.16047,-0.272012 -1.75693,-0.272012 -1.28851,0 -2.3586,0.391072 -3.20302,1.17872 -0.850509,0.783302 -1.2746,1.77112 -1.2746,2.96346 0,0.672064 0.185976,1.3111 0.554453,1.91973 0.367028,0.608913 0.996799,1.28561 1.89453,2.0356 0.988108,0.821251 1.71,1.63439 2.15263,2.43449 0.448719,0.805608 0.673223,1.67784 0.673223,2.62771 0,0.864414 -0.167437,1.70652 -0.505786,2.5243 -0.333715,0.82241 -0.83081,1.58775 -1.49418,2.30327l-2.97852 0zm9.42251 -6.02424l0 -13.1855 1.97158 0 0 13.5343c0,1.32906 0.339798,2.37105 1.02171,3.1167 0.678148,0.74883 1.60803,1.12455 2.78356,1.12455 1.23144,0 2.18624,-0.357758 2.87423,-1.07791 0.681913,-0.718703 1.02548,-1.73665 1.02548,-3.0521l0 -13.6455 1.97158 0 0 13.6455c0,1.79661 -0.52954,3.22214 -1.58457,4.28325 -1.06024,1.05995 -2.45883,1.5921 -4.19229,1.5921 -0.948711,0 -1.82297,-0.174389 -2.62018,-0.524326 -0.797207,-0.348778 -1.48926,-0.855433 -2.07703,-1.51997 -0.418881,-0.476818 -0.720152,-0.987818 -0.901203,-1.54111 -0.1825,-0.553294 -0.272881,-1.34558 -0.272881,-2.3754l0 -0.37456zm16.2359 -2.73316l9.16585 0c-0.338639,-1.43132 -0.882953,-2.8444 -1.63671,-4.24443 -0.758969,-1.4012 -1.73839,-2.80674 -2.9426,-4.21112 -1.16424,1.32443 -2.12395,2.67783 -2.87771,4.07004 -0.754044,1.39656 -1.32327,2.85656 -1.70884,4.38551zm-2.5159 8.7574c-0.00984922,-0.165409 -0.0147738,-0.348778 -0.0196984,-0.548659 -0.00376588,-0.200171 -0.00869049,-0.494489 -0.00869049,-0.88556 0,-3.92549 0.572703,-7.32318 1.71347,-10.1977 1.14077,-2.87336 2.94984,-5.48341 5.41736,-7.83766 2.47389,2.35425 4.28412,4.95995 5.42373,7.82549 1.14193,2.86554 1.71492,6.23774 1.71492,10.112 0,0.404397 -0.00492461,0.714358 -0.0101389,0.927854 -0.00347619,0.212048 -0.0136151,0.413377 -0.0321548,0.604278l-1.81892 0 0 -0.68539c0,-1.35774 -0.0347619,-2.55442 -0.101679,-3.60221 -0.0619921,-1.04228 -0.156429,-1.95333 -0.276647,-2.73779l-9.83415 0c-0.11877,0.94118 -0.209441,1.98896 -0.271433,3.15117 -0.0631509,1.16221 -0.0918295,2.45217 -0.0918295,3.87422l-1.80414 0zm16.3737 0l0 -19.2097 2.00113 0 0 17.5499 5.95675 0 0 1.65988 -7.95788 0z"/>
  </g>
 </g>
</svg>
