<?xml version="1.0" encoding="UTF-8"?>
<!DOCTYPE svg PUBLIC "-//W3C//DTD SVG 1.1//EN" "http://www.w3.org/Graphics/SVG/1.1/DTD/svg11.dtd">
<!-- Creator: CorelDRAW -->
<svg xmlns="http://www.w3.org/2000/svg" xml:space="preserve" width="385.453mm" height="88.9784mm" style="shape-rendering:geometricPrecision; text-rendering:geometricPrecision; image-rendering:optimizeQuality; fill-rule:evenodd; clip-rule:evenodd"
viewBox="0 0 684.906 158.105"
 xmlns:xlink="http://www.w3.org/1999/xlink">
 <defs>
  <style type="text/css">
   <![CDATA[
    .fil1 {fill:#C2C1C1}
    .fil0 {fill:#DA251D}
   ]]>
  </style>
 </defs>
 <g id="Camada_x0020_1">
  <metadata id="CorelCorpID_0Corel-Layer"/>
  <g id="_168869000">
   <path id="_168869216" class="fil0" d="M332.96 75.6094l0.615336 -6.25998 0.615336 -2.50399 0.615336 -2.50346 0.615336 -1.252 0.614625 -2.50399 0.615336 -0.626353 0.615336 -1.252 0.615514 -0.625642 0.615336 -0.626353 0.615336 -0.625642 0 -1.252 1.23067 0 0.615336 -0.62582 0.615336 -0.626175 0.615336 -0.62582 1.23067 -0.626175 0.615336 -0.62582 1.84548 -0.626353 1.84601 -0.625642 2.46134 -0.626353 9.22951 0 2.46081 0.626353 1.84601 0.625642 1.23067 0.626353 1.23067 0.62582 0.615336 0.626175 1.23067 0.62582 0.615336 0.626175 0.615336 0.62582 1.23014 0 0 1.252 0.615336 0.625642 0.615336 0.626353 0.615336 0.625642 0.615336 0.626353 0.615336 1.252 0.615336 1.252 0.615336 2.50399 0.615336 1.87764 0.615336 2.50417 0.615336 5.00798 0 8.76343 -0.615336 5.00798 -0.615336 3.12981 -0.615336 1.87817 -0.615336 2.50399 -0.615336 1.25217 -0.615336 1.25128 -0.615336 1.25271 -0.615336 0.625642 -0.615336 1.252 -0.615336 0.625642 -0.614803 0.626353 -0.615336 0.625642 -1.23067 0.626353 -0.615336 0.62582 -1.23067 0.626175 -1.23067 0.62582 -1.84601 0.626175 -1.23067 0.62582 -3.07615 0.626175 -7.99884 0 -3.07668 -0.626175 -1.23067 -0.62582 -1.84601 -0.626175 -1.23014 -0.62582 -0.615336 -0.626175 -1.23067 -0.62582 -0.615336 -0.626353 -0.615336 -0.625642 -0.615336 -0.626353 -0.615336 -0.625642 -0.615336 -0.626353 -0.615336 -0.625642 -0.615514 -0.625642 -0.615336 -1.25271 -0.615336 -1.25128 -0.614625 -1.87835 -0.615336 -1.87781 -0.615336 -1.87817 -0.615336 -3.12981 -0.615336 -5.00798 0 -6.8858zm9.22951 -51.9567l-2.46134 0.62582 -1.84601 0.626175 -1.84619 0.626353 -1.22996 0.625642 -1.84601 0.62582 -1.23067 0.626175 -1.23085 0.62582 -1.23067 0.626175 -1.23067 0.62582 -0.615336 0.626175 -1.22996 0.62582 -0.615336 0.626353 -1.23085 0.625642 -0.615336 0.626353 -0.615336 0.625642 -0.615336 0.626353 -0.615336 0.625642 -0.615336 0.626353 -1.23067 0.625642 -0.615336 1.252 -0.615336 0.625642 -0.615336 0.626353 -0.614803 0.62582 -0.615336 0.626175 -0.615336 0.62582 -0.615336 1.252 -0.615336 1.252 -0.615336 0.626175 -0.615336 1.252 -0.615336 0.62582 -0.615336 1.252 -0.615336 1.252 -0.615336 1.252 -0.615336 1.87764 -0.615336 1.252 -0.615336 1.87835 -0.614803 1.87781 -0.615336 1.87764 -0.615336 2.50399 -0.615336 4.38234 -0.615336 4.38181 0 18.7794 0.615336 4.38181 0.615336 5.00798 0.615336 1.87835 0.615336 2.50328 0.614803 1.87835 0.615336 1.252 0.615336 1.252 0.615336 1.87781 0.615336 1.252 0.615336 1.252 0.615336 1.252 0.615336 0.625642 0.615336 1.252 0.615336 0.626353 0.615336 1.252 0.615336 0.625642 0.615336 1.252 0.615336 0.626353 0.614803 0.62582 0.615336 0.625642 0.615336 1.252 0.615336 0.626353 0.615336 0.625642 0.615336 0.626353 0.615336 0.625642 0.615336 0.626353 1.23067 0.625642 0.615336 0.626353 0.615514 0.625642 1.23067 0.626353 0.614625 0.625642 1.23067 0.626353 0.615336 0.625642 1.23067 0.626353 1.84619 0.625642 0.615336 0.626353 1.84601 0.625642 1.23067 0.62582 1.8453 0.626175 2.46152 0.62582 3.69202 0.626353 4.30682 0.625642 15.9977 0 4.30735 -0.625642 3.07615 -0.626353 2.46134 -0.62582 1.23067 -0.626175 1.84601 -0.62582 1.23067 -0.625642 1.23014 -0.626353 1.23067 -0.625642 1.84601 -0.626353 0.615336 -0.625642 0.615336 -0.626353 1.23067 -0.625642 0.615336 -0.626353 1.23067 -0.625642 0.615336 -0.626353 0.615336 -0.625642 0.614803 -0.626353 0.615336 -0.625642 0.615336 -0.626353 0.615336 -0.625642 0.615336 -0.626353 0.615336 -0.625642 0.615336 -0.626353 0.615336 -0.625642 0.615336 -0.62582 0.615336 -1.252 0.615336 -0.626353 0.615336 -1.252 0.615514 -0.625642 0.615336 -1.252 0.614625 -0.626353 0.615336 -1.252 0.615336 -1.252 0.615336 -1.25146 0.615336 -1.252 0.615336 -1.87817 0.615336 -1.87781 0.615336 -1.252 0.615336 -2.50399 0.615514 -1.87835 0.615336 -5.00745 0.615336 -4.38234 0 -21.2834 -0.615336 -3.75545 -0.615336 -4.38234 -0.615514 -2.50346 -0.615336 -1.87817 -0.615336 -1.87781 -0.615336 -1.252 -0.615336 -1.87835 -0.615336 -1.252 -0.615336 -1.25128 -0.615336 -1.25271 -0.615336 -1.25146 -0.614625 -0.626175 -0.615336 -1.252 -0.615514 -0.62582 -0.615336 -1.252 -0.615336 -0.626175 -0.615336 -1.252 -0.615336 -0.62582 -0.615336 -0.626353 -0.615336 -0.625642 -0.615336 -0.626353 -0.615336 -0.625642 -0.615336 -0.625642 -0.615336 -0.626353 -0.615336 -0.625642 -0.614803 -0.626353 -1.23067 0 0 -1.252 -1.23067 -0.625642 -1.23067 -0.626353 -0.615336 -0.62582 -0.615336 -0.626175 -1.23067 -0.62582 -1.23067 -0.626175 -1.23067 -0.62582 -1.23014 -0.626175 -1.84601 -0.62582 -1.84601 -0.625642 -1.84601 -0.626353 -1.84601 -0.626175 -3.07615 -0.62582 -3.07668 -0.625642 -18.459 0 -3.69148 0.625642zm-71.9903 78.2483l-0.615336 1.252 -0.615336 0.62582 -0.615336 1.252 -0.615336 0.626175 -0.615336 0.62582 -1.23085 0.626175 -1.8453 0.62582 -1.84601 0.626175 -4.92287 0.62582 -17.8432 0.625642 0 -21.9367 22.766 0.653184 2.46134 0.626353 1.22996 0.62582 0.615514 0.626175 1.23067 0.62582 0.615336 0.626175 0.615336 0.62582 0.615336 1.252 0.615336 1.252 0.615336 2.50399 0 2.50399 -0.615336 2.50399zm-4.30753 -41.315l-0.614625 1.252 -0.615336 1.252 -1.23067 0.625642 -1.23067 0.626353 -1.23067 0.625642 -1.84619 0.626353 -4.30664 0.625642 -16.6132 0.62582 0 -20.6897 18.4592 0.65887 3.07597 0.625642 2.46152 0.625642 1.23067 0.626353 0.615336 0.625642 0.615336 0.626353 0.615336 0.625642 0.614625 1.252 0.615514 1.25217 0 6.25998 -0.615514 1.252zm-54.1459 69.4841l52.9159 0 5.53749 -0.625642 4.30682 -0.626353 4.30735 -0.625642 3.69202 -0.626353 1.84548 -0.625642 1.84601 -0.626353 1.23067 -0.625642 0.615336 -0.626353 0.615336 -0.625642 1.23067 -0.626353 0.615336 -0.625642 0.615336 -0.626353 0.615336 -0.625642 0.614803 -0.626353 0.615336 -0.625642 0.615336 -0.626353 0.615336 -0.625642 0.615336 -0.626353 0.615336 -1.25146 0.615336 -0.626353 0.615336 -1.252 0.615336 -1.252 0.615336 -1.87764 0.615336 -1.252 0.615336 -1.87835 0.615336 -2.50346 0.615336 -4.38234 0 -5.00798 -0.615336 -5.00745 -0.615336 -2.50399 -0.615336 -1.87835 -0.615336 -1.25128 -0.615336 -1.252 -0.615336 -1.252 -0.615336 -0.626353 -0.615336 -1.252 -0.615336 -0.625642 -0.615336 -0.626353 -0.615336 -0.62582 -0.615336 -0.626175 -0.615336 -0.62582 -1.23014 -0.626175 -1.23067 -0.62582 -1.23067 -0.625642 -1.23067 -0.626353 -1.84601 -0.625642 0 -0.626353 0.615336 -0.625642 1.23067 -0.626353 0.615336 -1.252 0.615336 -0.625642 0.615336 -0.626353 0.615336 -0.625642 0.615336 -0.626353 0.615336 -1.252 0.615336 -0.625642 0.614803 -1.252 0.615336 -1.25217 0.615336 -1.252 0.615336 -1.252 0.615336 -1.87764 0.615336 -3.13034 0 -10.6418 -0.615336 -2.50399 -0.615336 -1.87764 -0.615336 -1.252 -0.615336 -1.252 -0.615336 -1.252 -0.614803 -1.252 -0.615336 -0.62582 -0.615336 -1.252 -0.615336 -0.626353 -0.615336 -0.625642 -0.615336 -0.625642 -0.615336 -0.626353 -0.615336 -0.625642 -0.615336 -0.626353 -0.615336 -0.625642 -0.615336 -0.626353 -0.615336 -0.625642 -1.23067 -0.626353 -0.614803 -0.62582 -1.23067 -0.626175 -0.615336 -0.62582 -1.23067 -0.626175 -0.615336 -0.62582 -1.23067 -0.626175 -1.84601 -0.62582 -1.23067 -0.625642 -1.84548 -0.626353 -1.84601 -0.626175 -59.6841 0 0 105.792zm387.023 3.12981l0.615336 0.626353 27.6885 0 0.615514 -0.626353 0 -42.5669 31.38 0 0 42.5669 25.8379 0 0 -106.417 -25.8379 0 0 4.38234 0.615336 34.4292 -5.53749 0 -26.4579 0.625642 0 -39.4371 -28.9194 0 0 106.417zm-156.901 -110.173l-2.46081 0.625642 -1.84601 0.62582 -1.84601 0.626175 -1.23067 0.626353 -1.23067 0.625642 -1.84548 0.62582 -1.23067 0.626175 -1.23067 0.62582 -1.23067 0.626175 -0.615336 0.62582 -1.23067 0.626175 -0.615336 0.62582 -1.23067 0.626353 -1.23067 0.625642 -0.614803 0.626353 -0.615336 0.625642 -0.615336 0.626353 -0.615336 0.625642 -0.615336 0.626353 -0.615336 0.625642 -0.615336 0.625642 -0.615336 0.626353 -0.615336 1.252 -0.615336 1.252 -0.615336 0.62582 -0.615336 1.252 -0.615336 1.252 -0.615514 1.252 -0.614625 1.252 -0.615336 2.50399 -0.615336 3.12963 0 11.2681 0.615336 2.50399 0.615336 2.50346 0.614625 1.87835 0.615514 1.252 0.615336 1.252 0.615336 0.625642 0.615336 1.252 0.615336 0.626353 0.615336 1.252 0.615336 0.625642 0.615336 0.626353 0.615336 0.625642 1.23067 0 0 1.252 1.23067 0 0 1.252 1.23014 0.62582 0.615336 0.626175 1.23067 0.62582 0.615336 0.626353 0.615336 0.625642 1.23067 0.626353 1.23067 0.625642 1.23067 0.626353 1.23067 0.625642 1.23014 0.626353 1.23067 0.625642 1.23067 0.626353 1.23067 0.625642 1.84601 0.625642 1.84601 0.626353 1.84548 0.62582 1.84601 0.626175 1.84601 0.62582 3.07668 0.626175 2.46081 0.62582 3.69202 0.626175 2.46134 0.62582 2.46081 0.626175 1.84601 0.62582 0.615336 0.626175 1.23067 0.62582 0.615336 0.626353 0.615336 1.25128 0.615336 1.25271 0.615336 1.25128 0 3.75616 -0.615336 1.87817 -0.615336 1.252 -0.615336 0.62582 -0.615336 0.626175 -1.23067 0.62582 -1.23067 0.625642 -2.46134 0.626353 -9.22951 0 -2.46081 -0.626353 -1.84601 -0.625642 -1.84601 -0.62582 -1.23067 -0.626175 -1.84548 -0.62582 -1.84601 -0.626175 -0.615336 -0.62582 -1.23067 -0.626175 -1.23067 -0.62582 -1.23067 -0.626175 -1.23067 -0.62582 -1.23014 -0.626353 -0.615336 -0.625642 -1.23067 -0.626353 -0.615336 -0.625642 -1.23067 -0.626353 -0.615336 -0.625642 -1.23067 -0.625642 -1.84601 0 -1.23067 0.625642 -0.614803 0.625642 -0.615336 1.252 -0.615336 0.626353 -0.615336 0.625642 -0.615336 0.626353 -0.615336 0.62582 -0.615336 0.626175 -0.615336 0.62582 0 1.252 -1.23067 0 0 1.252 -1.23067 0 -0.615336 0.626175 -0.615514 0.62582 -0.614625 1.252 -0.615336 0.625642 -0.615336 0.626353 -0.615336 0.625642 -0.615336 0.626353 -0.615336 0.625642 -0.615336 0.626353 0 1.87764 0.615336 0.626353 0.615336 0.625642 0.615336 0.626353 0.615336 0.62582 0.615336 0.625642 0.615336 0.626353 0.614625 0.625642 0.615514 0.626353 0.615336 0.625642 0.615336 0.626353 0.615336 0.625642 1.23067 0.626353 0.615336 0.625642 0.615336 0.626353 1.23067 0.625642 0.615336 0.626353 0.615336 0.625642 1.23014 0.626353 0.615336 0.625642 1.84601 0.626353 0.615336 0.625642 1.84601 0.626353 1.23067 0.625642 1.23067 0.62582 1.23067 0.626175 1.84548 0.62582 3.07668 0.626353 2.46134 0.625642 3.07615 0.626353 5.53803 0.625642 7.99884 0 7.99884 -0.625642 4.30682 -0.626353 1.84601 -0.625642 2.46134 -0.626353 1.84619 -0.62582 1.22996 -0.626175 1.23067 -0.62582 0.615336 -0.625642 0.615336 -0.626353 1.23067 -0.625642 0.615514 -0.626353 1.23067 -0.625642 0.615336 -0.626353 0.615336 -0.625642 0.615336 -0.626353 0.615336 -0.625642 0.615336 -0.626353 0.614625 -0.625642 0.615336 -0.626353 0.615336 -1.252 0.615514 -0.625642 0.615336 -1.252 0.615336 -0.626353 0.615336 -0.625642 0.615336 -1.25217 0.615336 -1.87764 0.615336 -1.252 0.615336 -1.252 0.615336 -1.87835 0.615336 -1.87764 0.615336 -2.50399 0.614803 -6.26015 0 -3.12963 -0.614803 -3.75599 -0.615336 -1.87781 -0.615336 -1.87817 -0.615336 -1.87781 -0.615336 -0.625642 -0.615336 -1.87835 -0.615336 -1.252 -0.615336 -1.252 -0.615336 -1.252 -0.615336 -1.252 -0.615336 -0.62582 -0.615514 -0.626175 -0.615336 -0.62582 -0.615336 -0.625642 -0.614625 -0.626353 -0.615336 -0.625642 -1.23067 -0.626353 -1.23067 -0.625642 -0.615336 -0.626353 -1.23085 -0.625642 -1.23067 -0.626353 -0.615336 -0.625642 -1.23067 -0.626353 -1.22996 -0.625642 -2.46152 -0.626353 -1.84601 -0.625642 -1.84601 -0.626353 -2.46081 -0.625642 -1.84601 -0.626353 -3.07668 -0.625642 -3.07668 -0.626353 -3.07615 -0.62582 -2.46134 -0.625642 -2.46134 -0.626353 -1.84548 -0.625642 -1.84601 -0.626353 -1.84601 -0.625642 -1.23067 -0.626353 -1.23067 -0.625642 -0.615336 -1.252 -0.615336 -0.626353 -0.614803 -0.625642 -0.615336 -4.38181 0 -1.87817 0.615336 -1.87781 0.614803 -0.626353 0.615336 -0.625642 0.615336 -0.626353 0.615336 -0.625642 0.615336 -0.626353 1.84601 -0.625642 3.07668 -0.625642 5.53749 0 3.07668 0.625642 2.46081 0.625642 1.84601 0.626353 0.615336 0.625642 1.23067 0.626353 1.23067 0.625642 1.23067 0.626353 1.23014 0.625642 0.615336 0.626353 0.615336 0.62582 0.615336 0.626175 0.615336 0.62582 0.615336 0.626175 0.615336 0.62582 0.615336 0.626175 0.615336 0.62582 2.46152 0 0.615336 -0.62582 0.614625 -0.626175 0.615336 -0.62582 0.615336 -0.626175 0.615336 -1.252 0.615336 -0.62582 0.615336 -0.626353 0.615336 -0.625642 1.23085 -0.626353 0.615336 -1.252 0.615336 -0.625642 0.615336 -0.626353 0.615336 -0.625642 0.615336 -0.625642 0.615336 -0.626353 0.614625 -0.626353 0.615336 -0.625642 0.615336 -1.252 1.23085 -0.62582 0.615336 -1.252 0.615336 -0.626175 0.615336 -0.62582 0 -2.50399 -0.615336 -0.626353 -1.23067 -0.625642 -0.615336 -0.626353 -0.615514 -0.625642 -0.615336 -0.625642 -0.615336 -0.626353 -1.22996 -0.625642 -0.615336 -0.626353 -0.615336 -0.625642 -0.615336 -0.626353 -1.23067 -0.625642 -1.23085 -0.626353 -0.615336 -0.62582 -0.615336 -0.626175 -1.23067 -0.62582 -0.615336 -0.626175 -1.22996 -0.62582 -1.23067 -0.626175 -1.23085 -0.62582 -1.23067 -0.625642 -1.84601 -0.626353 -1.84601 -0.626175 -1.84548 -0.62582 -2.46134 -0.625642 -9.22951 -0.626353 -1.84601 0 -9.84485 0.626353zm96.6021 0.625642l-2.46081 0.62582 -2.46134 0.626175 -1.84601 0.626353 -1.23067 0.625642 -1.84601 0.62582 -1.23067 0.626175 -1.23014 0.62582 -1.23067 0.626175 -0.615336 0.62582 -0.615336 0.626175 -1.23067 0.62582 -1.23067 0.626353 -1.23067 0.625642 -0.615336 0.626353 -0.615336 0.625642 -0.614803 0.626353 -0.615336 0.625642 -0.615336 0.626353 -0.615336 0.625642 -0.615336 0.625642 -1.23067 0.626353 -0.615336 0.625642 0 1.25217 -1.23067 0 -0.615336 0.626175 -0.615336 1.252 -0.615336 0.62582 -0.615336 0.626175 0 1.252 -1.23014 0 -0.615336 1.252 -0.615336 1.25146 -0.615336 0.626353 -0.615336 1.252 -0.615336 0.625642 -0.615336 1.252 -0.615336 1.252 -0.615336 1.252 -0.615336 1.87835 -0.615336 1.252 -0.615336 1.252 -0.615336 2.50346 -0.614803 1.87835 -0.615336 2.50399 -0.615336 5.00745 -0.615336 6.88633 0 8.13779 0.615336 6.25944 0.615336 4.38216 0.615336 1.87781 0.614803 2.50399 0.615336 1.252 0.615336 1.87764 0.615336 1.87835 0.615336 1.252 0.615336 1.87781 0.615336 1.252 0.615336 0.626175 0.615336 1.25146 0.615336 1.252 0.615336 1.252 0.615336 0.626353 0.615336 1.252 0.615336 1.252 0.614803 0.625642 0.615336 0.626353 0.615336 0.625642 0.615336 1.25217 0.615336 0.625642 0.615336 0.626353 0.615336 0.625642 0.615336 0.626353 0.615336 0.625642 0.615336 0.626353 0.615336 0.625642 0.615336 0.626353 0.615336 0.625642 1.23014 0.626353 0.615336 0.625642 0.615336 0.626353 0.615336 0.625642 0.615336 0.626353 1.23067 0.625642 1.23067 0.626353 0.615336 0.625642 1.23067 0.626353 1.23067 0.625642 1.23014 0.62582 0.615336 0.626175 1.84601 0.62582 1.23067 0.626353 1.84601 0.625642 1.84601 0.626353 1.84548 0.625642 2.46134 0.626353 4.30753 0.625642 13.5363 0 4.30735 -0.625642 2.46081 -0.626353 2.46134 -0.625642 1.84601 -0.626353 1.84601 -0.625642 1.84548 -0.626353 1.23067 -0.62582 0.615336 -0.626175 1.23067 -0.62582 0.615336 -0.625642 1.23067 -0.626353 0.615336 -0.625642 1.23067 -0.626353 0.615336 -0.625642 0.614803 -0.626353 0.615336 -0.625642 0.615336 -0.626353 0.615336 -0.625642 0.615336 -0.626353 0.615336 -0.625642 0.615336 -0.626353 0.615336 -0.625642 0.615336 -0.626353 0.615336 -0.625642 0.615336 -1.252 0.615336 -0.626353 0.615336 -1.25146 0.615336 -0.626353 0.614803 -1.252 0.615336 -0.625642 0 -3.13034 -0.615336 -0.625642 -1.84548 -0.626353 -0.615336 -0.625642 -0.615336 -0.626353 -0.615336 -0.625642 -0.615336 -0.62582 -1.23067 -0.626175 -0.615336 -0.62582 -1.23067 -0.626175 -0.615336 -0.62582 -0.615336 -0.626175 -0.614803 -0.62582 -1.23067 -0.626175 -0.615336 -0.62582 -1.23067 -0.626353 -0.615336 -0.625642 -0.615336 -0.626353 -0.615336 -0.625642 -0.615336 -0.626353 -1.23067 -0.625642 -1.23067 -0.625642 -0.615336 -0.626353 -1.23014 0 -0.615336 0.626353 -0.615336 0.625642 -0.615336 1.252 -0.615336 0.625642 -0.615336 0.626353 0 1.252 -1.23067 0 -1.23067 0.62582 -0.615336 0.626175 -0.615336 0.62582 -1.23014 0.626175 -1.23067 0.62582 -1.23067 0.626175 -3.07686 0.62582 -2.46134 0.626175 -9.84414 0 -1.84619 -0.626175 -2.46134 -0.62582 -0.615336 -0.626175 -1.23067 -0.62582 -0.615336 -0.626175 -0.615336 -0.62582 -0.614803 -0.626175 -0.615336 -1.25217 -0.615336 -0.625642 -0.615336 -0.626353 -0.615336 -1.252 -0.615336 -0.625642 -0.615336 -1.252 -0.615336 -1.252 -0.615336 -1.252 -0.615336 -1.252 -0.615336 -1.252 -0.615336 -1.87781 -0.615336 -1.87817 -0.615336 -5.00745 0 -10.0161 0.615336 -6.25998 0.615336 -2.50346 0.615336 -1.87835 0.615336 -1.252 0.615336 -1.252 0.615336 -1.252 0.615336 -1.252 0.615336 -0.625642 0.615336 -0.626353 0.615336 -0.625642 0.615336 -0.62582 0.615336 -0.626175 0.615336 -0.62582 0.614803 -0.626175 1.23067 -0.62582 0.615336 -0.626175 1.23067 -0.62582 1.23067 -0.626353 1.84601 -0.625642 1.23085 -0.626353 2.46063 -0.625642 6.76888 0 1.8453 0.625642 1.23067 0.626353 1.84619 0.625642 0.615336 0.626353 0.615336 1.252 1.23067 0.62582 0.615336 0.626175 0.615336 0.62582 0.614625 0.626175 0.615514 0.62582 0.615336 0.625642 0.615336 0.626353 0.615336 0.625642 0.615336 0.626353 1.23067 0 0 1.252 0.615336 0.625642 0.615336 0.626353 1.84601 0 1.23014 -0.626353 0.615336 -0.625642 0.615336 -0.626353 1.23067 -0.625642 1.23067 -0.626353 0.615336 -0.625642 0.615336 -0.626353 1.23067 -0.625642 1.23067 -0.62582 0.615336 -0.626175 1.23014 -0.62582 0.615336 -0.626175 1.23067 -0.62582 0.615336 -0.626175 0.615336 -0.62582 1.23067 -0.626353 1.23067 -0.625642 0.615336 -0.626353 0.615336 -0.625642 1.23067 -0.626353 1.23014 -0.625642 0.615336 -0.626353 0.615336 -0.625642 0 -1.87835 -0.615336 -0.625642 -0.615336 -1.252 -0.615336 -0.62582 -0.614803 -0.626175 -0.615336 -0.62582 -0.615336 -0.626175 -0.615336 -1.252 -0.615336 -0.62582 -1.23067 -0.626175 -0.615336 -0.62582 -0.615336 -0.626353 -0.615336 -0.625642 -0.615336 -0.626353 -0.615336 -0.625642 -0.615336 -0.625642 -1.23014 -0.626353 -0.615336 -0.625642 -0.615336 -0.626353 -0.615336 -0.625642 -0.615336 -0.626353 -1.23067 -0.625642 -0.615336 -0.626353 -0.615336 -0.62582 -1.23067 -0.626175 -1.23067 -0.62582 -1.23067 -0.626175 -0.614803 -0.62582 -1.84601 -0.626175 -1.84601 -0.62582 -1.84601 -0.625642 -1.84601 -0.626353 -2.46081 -0.626175 -3.69202 -0.62582 -5.53749 -0.625642 -8.61435 0 -4.30735 0.625642z"/>
   <path id="_168869096" class="fil1" d="M49.9641 96.2974l0 -31.7311 55.4853 -0.275951 0 32.5592 -55.4853 0 0 -0.552079zm-19.3231 -20.1423l0.275951 -1.93148 0.276128 -2.48356 0.276128 -1.10345 0.276128 -1.37958 0.275951 -1.37975 0.276128 -1.10362 0.275951 -1.3794 0.275951 -0.82803 0.276306 -0.551901 0.275773 -1.10362 0.275951 -0.827674 0.276128 -0.552079 0.276128 -1.10362 0.276128 -0.827674 0.275951 -0.551724 0.276128 -0.551901 0.275951 -0.552079 0.276128 -0.551724 0.275951 -0.551901 0.276128 -0.551724 0.276128 -0.275951 0.275773 -0.551724 0.275951 -0.276128 0.276306 -0.551724 0.275951 -0.275951 0.276128 -0.82803 0.275951 -0.275773 0.276128 -0.275951 0.275951 -0.551901 0.276128 -0.551546 0.275951 -0.276128 0.276128 -0.551724 -0.124027 55.7778 -0.152102 -0.593125 -0.275951 -0.275773 -0.276128 -0.551901 -0.275951 -0.275951 -0.276128 -0.551901 -0.275951 -0.275773 -0.276128 -0.551901 -0.275951 -0.551901 -0.276306 -0.551901 -0.275951 -0.551724 -0.275773 -0.275951 -0.276128 -0.551724 -0.276128 -0.276128 -0.275951 -0.551724 -0.276128 -0.552079 -0.275951 -0.551901 -0.276128 -0.551724 -0.275951 -0.551901 -0.276128 -0.827674 -0.276128 -1.1038 -0.276128 -0.551724 -0.275951 -0.827674 -0.275773 -1.10362 -0.276306 -0.827852 -0.275951 -0.827852 -0.275951 -1.37958 -0.276128 -1.10362 -0.275951 -0.82803 -0.276128 -1.3794 -0.276128 -1.6557 -0.276128 -1.65535 -0.275951 -3.31123 0 -4.69063zm96.3398 8.82953l-0.276128 1.6557 -0.275773 1.65553 -0.276128 1.37958 -0.275951 1.10362 -0.276128 0.827674 -0.276128 0.827852 -0.275951 1.37975 -0.276128 0.551724 -0.275951 0.827674 -0.276128 0.827852 -0.276128 0.552079 -0.276128 0.827497 -0.275951 0.827674 -0.276128 0.551901 -0.275951 0.827852 -0.275773 0.552079 -0.276128 0.551724 -0.276128 0.551901 -0.275951 0.275773 -0.276128 0.551901 -0.275951 0.551724 -0.276306 0.276128 -0.275951 0.275773 -0.276128 0.551901 -0.275951 0.551901 -0.276128 0.551901 -0.275951 0.275773 -0.276128 0.275951 -0.275951 0.551901 -0.275951 0.275773 -0.275951 0.551901 -0.276306 0.275951 -0.275951 0.551724 -0.276128 0.276128 -0.275951 0.275773 -0.276128 0.551901 -0.151924 -59.9168 0.151924 0.593125 0.276128 0.551901 0.275951 0.275951 0.276128 0.275773 0.275951 0.552079 0.276306 0.275951 0.275951 0.551901 0.275951 0.275773 0.275951 0.551901 0.276128 0.275773 0.275951 0.275951 0.276128 0.551901 0.275951 0.551901 0.276128 0.275951 0.275951 0.551724 0.276306 0.276128 0.275951 0.275773 0.276128 0.551901 0.275951 0.551724 0.276128 0.275773 0.276128 0.551901 0.275773 0.552079 0.275951 0.827852 0.276128 0.551724 0.275951 1.1038 0.276128 0.551724 0.276128 0.827852 0.276128 0.551901 0.275951 0.827497 0.276128 0.827852 0.275951 1.10398 0.276128 1.10345 0.276128 0.827852 0.275951 0.827497 0.276128 1.37993 0.275773 1.65535 0.276128 1.93165 0.276128 3.0351 0 3.587 -0.276128 5.24253zm-77.0167 -57.944l-0.828207 0 -0.275951 0.275951 -0.551901 0.275773 -0.276128 0.276128 -0.276128 0.275773 -0.275951 0.275951 -0.552079 0.275773 -0.276128 0.276128 -0.275951 0.275773 -0.276128 0.275773 -0.552079 0.276128 -0.276306 0.275951 -0.275951 0.275951 -0.551901 0.275773 -0.275951 0.276128 -0.276128 0.275773 -0.275951 0.276128 -0.552079 0.275773 -0.276128 0.275951 -0.552257 0.275773 -0.276128 0.276128 -0.275951 0.275773 -0.552079 0.275951 -0.276128 0.276128 -0.275951 0.275773 0 0.551724 -0.551901 0 -0.275951 0.276128 -0.276306 0.275773 -0.276128 0.275951 -0.275951 0.275951 0 0.551724 -0.552079 0 -0.276128 0.276128 -0.275951 0.275773 -0.276128 0.275951 -0.275951 0.275773 0 0.552079 -0.552257 0 -0.275773 0.276128 -0.276128 0.275773 -0.276128 0.275951 -0.275951 0.275773 -0.276128 0.551901 -0.552079 0.275773 -0.275951 0.551901 -0.276128 0.275951 -0.276128 0.275951 -0.276128 0.551901 -0.275951 0.275951 -0.275773 0.275951 -0.276306 0.551724 -0.275951 0.276128 -0.275951 0.275773 -0.276128 0.275773 -0.275951 0.551901 -0.276128 0.275951 -0.276128 0.275951 -0.276128 0.551901 -0.275951 0.275951 -0.276128 0.275773 -0.275951 0.551901 -0.276128 0.551901 -0.275951 0.275951 -0.275951 0.275773 -0.276306 0.552079 -0.275773 0.275951 -0.276128 0.551724 -0.276128 0.551724 -0.275951 0.551901 -0.276128 0.275951 -0.275951 0.551901 -0.276128 0.275773 -0.275951 0.552079 -0.276128 0.551724 -0.275951 0.276128 -0.276128 0.551546 -0.276306 0.551901 -0.275773 0.551724 -0.276306 0.276128 -0.275773 0.827852 -0.275951 0.827852 -0.276128 0.551724 -0.275951 0.551724 -0.276128 0.827852 -0.275951 0.551724 -0.276128 0.827852 -0.276128 1.10362 -0.276128 0.82803 -0.276128 0.827497 -0.275951 0.827852 -0.276128 0.551901 -0.275951 1.10362 -0.275773 1.93148 -0.276128 1.37975 -0.275951 1.10362 -0.276128 1.93148 -0.275951 1.3794 -0.276306 4.96693 0 4.41468 0.276306 3.86295 0.275951 3.0351 0.276128 1.6557 0.275951 1.3794 0.276128 1.37975 0.275773 1.37975 0.275951 0.827497 0.276128 1.1038 0.275951 0.82803 0.276128 0.827497 0.276128 0.827674 0.276128 1.10362 0.276128 0.828207 0.275951 0.551724 0.276128 0.827674 0.275951 0.551901 0.276128 0.551724 0.275951 0.551901 0.275773 0.551901 0.276306 0.827674 0.275773 0.276128 0.276306 0.551724 0.276128 0.551901 0.275951 0.551901 0.276128 0.551724 0.275951 0.275951 0.276128 0.551901 0.275951 0.551901 0.276128 0.275773 0.275951 0.275951 0.276128 0.551901 0.276128 0.551724 0.275773 0.275951 0.276306 0.551901 0.275951 0.276128 0.275951 0.551546 0.276128 0.275951 0.275951 0.551901 0.276128 0.275773 0.275951 0.276128 0.276128 0.551724 0.276128 0.275773 0.276128 0.276306 0.275951 0.551901 0.276128 0.275773 0.275951 0.275951 0.275951 0.275773 0.276306 0.276128 0.275773 0.275773 0.275951 0.275951 0.276128 0.551724 0.276128 0.275951 0.276128 0.275773 0.275951 0.276306 0.276128 0.275773 0.275951 0.275951 0.276128 0.551901 0.275951 0.275773 0.276128 0.276128 0.276128 0.551724 0.275773 0.275773 0.275951 0.276128 0.276306 0.275773 0.275951 0.275773 0.276128 0.276306 0.275951 0.275773 0.276128 0.275951 0.275951 0.275773 0.276128 0.276128 0.275951 0.275773 0.276128 0.276128 0.276306 0.275773 0.275951 0.275951 0.276128 0.275773 0.275773 0.276128 0.275951 0.275773 0.552079 0.275951 0.276128 0.276128 0.275951 0.275773 0.276128 0.275951 0.552257 0.276128 0.276128 0.275773 0.275951 0.275773 0.276128 0.275951 0.552079 0.275951 0.275951 0.275951 0.275773 0.275773 0.276128 0.276128 0.275951 0.275773 0.552257 0.276128 0.276128 0.275773 0.276128 0.276128 0.275951 0.275773 0.552079 0.276128 0.276128 0.275773 0.552079 0.275951 0.276128 0.275773 0.551901 0.275773 0.275951 0.276128 0.276128 0.275773 0.552079 0 0 -24.0052 56.0374 0 0 24.8333 1.10398 0 0.552257 -0.276128 0.275951 -0.275773 0.276128 -0.276128 0.275951 -0.275773 0.276128 -0.276128 0.276128 -0.275773 0.552079 -0.275773 0.275951 -0.275951 0.552257 -0.275773 0.276128 -0.276128 0.551724 -0.275773 0.276128 -0.276128 0.275951 -0.275773 0.552257 -0.276128 0.552257 -0.275773 0.275951 -0.276128 0.276128 -0.275773 0.275951 -0.275951 0.552079 -0.275951 0.276128 -0.275951 0.551724 -0.275773 0.276128 -0.275773 0.276306 -0.276128 0.552079 -0.275951 0.275951 -0.275773 0.276128 -0.276128 0.275951 -0.275951 0.276128 -0.275773 0.275951 -0.276128 0.552079 -0.275773 0.276306 -0.275951 0.275951 -0.275773 0.275951 -0.276128 0.552079 -0.275773 0.275951 -0.276128 0.276128 -0.275773 0.275951 -0.551724 0.552079 -0.276306 0.276306 -0.275773 0.275951 -0.275773 0.276128 -0.276128 0.275951 -0.275773 0.276128 -0.551724 0.276128 -0.276128 0.275773 -0.275773 0.275951 -0.275951 0.276128 -0.275951 0.275951 -0.275951 0.276128 -0.552079 0.276128 -0.275773 0.276128 -0.275951 0.275951 -0.275773 0.276128 -0.275951 0.275951 -0.551724 0.276128 -0.276128 0.276128 -0.275773 0.275951 -0.551724 0.276128 -0.276128 0.275773 -0.552079 0.276128 -0.275773 0.276128 -0.275951 0.275951 -0.551901 0.276128 -0.275773 0.275951 -0.551901 0.276128 -0.275951 0.275951 -0.275773 0.276128 -0.551901 0.276128 -0.551901 0.275951 -0.275951 0.276306 -0.551724 0.275951 -0.276128 0.276128 -0.551724 0.275951 -0.275773 0.275773 -0.551901 0.276128 -0.551901 0.275951 -0.551901 0.276128 -0.275773 0.275951 -0.551901 0.276128 -0.551901 0.276306 -0.551724 0.275951 -0.827852 0.276128 -0.827852 0.275951 -0.551901 0.276128 -0.551724 0.275951 -0.827674 0.276128 -0.551901 0.275951 -0.82803 0.275773 -0.827674 0.276128 -0.551724 0.276128 -0.827674 0.276128 -0.827852 0.276128 -0.827852 0.275951 -1.10362 0.276128 -1.37958 0.275951 -1.1038 0.276128 -1.37975 0.275951 -1.3794 0.276128 -1.6557 0.275951 -1.65553 0.276306 -2.4832 0 -9.38161 -0.276306 -2.75933 -0.275951 -1.9313 -0.276128 -1.93148 -0.275951 -1.10362 -0.276128 -0.827852 -0.275951 -1.10362 -0.276128 -1.65553 -0.275951 -0.827852 -0.276128 -1.10362 -0.276128 -0.827852 -0.276128 -0.827674 -0.276128 -0.827852 -0.275773 -0.827852 -0.275951 -0.827852 -0.276128 -0.827497 -0.275951 -0.551901 -0.276128 -0.551901 -0.275951 -0.551724 -0.276128 -0.552079 -0.275951 -0.827674 -0.276306 -0.551724 -0.276128 -0.551901 -0.275951 -0.551901 -0.276128 -0.275773 -0.275951 -0.551901 -0.276128 -0.551901 -0.275773 -0.551901 -0.275951 -0.551724 -0.276128 -0.551901 -0.275951 -0.275951 -0.276306 -0.275773 -0.275951 -0.551901 -0.276128 -0.552079 -0.276128 -0.275773 -0.275951 -0.551724 -0.276128 -0.276128 -0.275951 -0.551901 -0.276128 -0.275773 -0.275951 -0.551724 -0.276128 -0.276128 -0.276128 -0.551901 -0.275773 -0.275951 -0.276128 -0.275951 -0.275951 -0.275773 -0.276128 -0.551901 -0.276128 -0.275773 -0.275951 -0.551901 -0.552079 -0.275951 -0.276128 -0.551901 -0.276128 -0.275951 -0.276128 -0.275951 -0.275951 -0.275773 -0.276128 -0.276128 -0.275951 -0.275773 -0.275773 -0.551901 -0.276128 -0.275773 -0.276128 -0.275951 -0.275951 -0.275773 -0.276128 -0.276128 -0.275951 -0.275773 -0.276306 -0.276306 -0.275951 -0.275773 -0.276128 -0.275951 -0.275951 -0.275773 -0.276128 -0.276128 -0.552079 -0.275773 -0.275951 -0.275951 -0.275951 -0.275951 -0.275951 -0.551724 -0.276306 -0.276128 -0.552079 -0.275773 -0.275951 -0.275951 -0.552079 -0.275773 -0.276128 -0.276128 -0.275951 -0.275951 -0.276128 -0.275773 -0.275951 -0.276128 -0.552434 -0.275773 -0.275773 -0.275951 -0.275951 -0.275773 -0.552079 -0.276128 -0.276128 -0.275773 -0.275951 -0.276128 -0.552079 -0.275773 -0.276306 -0.275951 -0.552079 -0.275951 -0.276128 -0.276128 -0.275951 -0.275773 -0.276128 -0.275773 -0.551724 -0.276128 -0.552079 -0.275773 -0.276306 -0.275951 -0.275951 -0.275773 -0.552079 -0.276128 -0.276128 -0.275773 -0.552079 -0.275951 -0.276128 -0.275951 -0.552079 -0.275951 -0.276128 -0.275951 -0.275773 -0.276128 -0.828207 0 0 28.1443 -56.0374 0 0 -27.0403zm0 69.2567l0 0.552079 55.4853 0 0 -32.5592 -55.4853 0.275951 55.2091 0 0 31.7311 -55.2091 0zm97.168 -11.5889l-0.275951 2.20761 -0.276128 1.9313 -0.276128 2.75933 -0.275773 1.10362 -0.276128 1.10398 -0.275951 0.827497 -0.276128 0.827852 -0.276128 1.10398 -0.275951 0.827497 -0.276128 1.37958 -0.275951 0.827852 -0.276128 0.827852 -0.276128 0.827852 -0.276128 0.827674 -0.275951 0.551724 -0.276128 1.1038 -0.275951 0.827674 -0.275951 0.551901 -0.275951 0.551724 -0.276128 0.551901 -0.275951 0.551901 -0.276128 0.827674 -0.275951 0.551901 -0.276306 0.551901 -0.275951 0.551724 -0.276128 0.551901 -0.275951 0.551901 -0.276128 0.551901 -0.275951 0.551901 -0.276128 0.551724 -0.275951 0.275951 -0.275951 0.551724 -0.275951 0.551901 -0.276306 0.551724 -0.275951 0.552079 -0.276128 0.276128 -0.275951 0.551724 -0.276128 0.275773 -0.275951 0.551901 -0.276128 0.551901 -0.275951 0.275773 -0.276128 0.275951 -0.276128 0.552079 -0.276128 0.275773 -0.276128 0.551901 -0.275773 0.275951 -0.275951 0.551901 -0.276128 0.275773 -0.275951 0.275951 -0.276128 0.551901 -0.275951 0.275773 -0.276128 0.275773 -0.275951 0.276306 -0.276306 0.551724 -0.276128 0.275773 0 0.551901 -0.552079 0 -0.275951 0.551901 -0.276128 0.275951 -0.275773 0.275773 0 0.551901 -0.552079 0 -0.275951 0.275951 -0.276306 0.276128 -0.275951 0.551724 -0.276128 0.276128 -0.276128 0.275773 -0.275951 0.275773 -0.276128 0.275951 -0.275951 0.275951 -0.276128 0.275951 -0.275951 0.275773 -0.276128 0.276128 -0.276128 0.275773 -0.275773 0.276128 -0.276128 0.275773 -0.275951 0.276128 -0.276128 0.275773 -0.276128 0.276128 -0.275951 0.275773 -0.552079 0.275951 -0.276128 0.275773 -0.276128 0.275773 -0.276128 0.276128 -0.275951 0.275773 -0.276128 0.276128 -0.551724 0.275773 -0.276128 0.276128 -0.276128 0.275773 -0.275951 0.276128 -0.276128 0.275773 -0.552257 0.275951 -0.275951 0.275951 -0.276128 0.275951 -0.552079 0.275773 -0.275951 0.276128 -0.276128 0.275773 -0.551901 0.275773 -0.275951 0.275951 -0.552257 0.276128 -0.276128 0.275951 -0.552079 0.275773 -0.275951 0.276128 -0.552079 0.275773 -0.276128 0.275951 -0.552257 0.275773 -0.551901 0.276128 -0.275951 0.275773 -0.552079 0.276128 -0.552079 0.275773 -0.276128 0.275951 -0.552257 0.275773 -0.828207 0.276306 -0.275951 0.275773 -0.551901 0.275951 -0.275951 0.275951 -0.828385 0.275773 -0.275951 0.275951 -0.828207 0.275773 -0.552079 0.276128 -0.552079 0.275773 -0.552257 0.275951 -0.827852 0.275951 -0.276128 0.275951 -1.10416 0.275773 -0.552079 0.276306 -0.552257 0.275773 -0.827852 0.275951 -0.552079 0.275773 -0.828207 0.276128 -0.828385 0.275773 -0.82803 0.275773 -0.82803 0.276128 -0.828207 0.275773 -0.828207 0.275951 -1.38011 0.275773 -0.828207 0.276128 -1.65624 0.275773 -1.10434 0.276306 -1.10398 0.275773 -1.65641 0.275951 -1.65624 0.275773 -1.65624 0.276128 -13.8023 0 -2.48444 -0.276128 -1.38029 -0.275773 -1.65606 -0.275951 -1.65641 -0.275773 -1.10434 -0.276306 -1.65588 -0.275773 -0.828385 -0.276128 -1.10416 -0.275773 -0.827852 -0.275951 -1.10451 -0.275773 -0.552079 -0.276128 -0.82803 -0.275773 -0.828385 -0.275773 -0.827852 -0.276128 -0.828207 -0.275773 -0.552079 -0.275951 -0.552257 -0.275773 -0.82803 -0.276306 -0.82803 -0.275773 -0.552079 -0.275951 -0.552079 -0.275951 -0.552257 -0.275951 -0.552079 -0.275773 -0.552079 -0.276128 -0.828207 -0.275773 -0.551901 -0.275951 -0.552079 -0.275773 -0.276128 -0.275951 -0.552079 -0.275951 -0.552079 -0.275773 -0.552079 -0.276306 -0.552257 -0.275773 -0.551901 -0.275951 -0.275951 -0.275773 -0.552079 -0.276128 -0.552079 -0.275773 -0.276128 -0.276128 -0.552257 -0.275773 -0.552079 -0.275951 -0.276128 -0.275773 -0.552079 -0.276128 -0.275951 -0.275773 -0.275773 -0.275951 -0.552079 -0.276128 -0.552434 -0.275951 -0.275951 -0.275773 -0.276128 -0.275773 -0.552079 -0.276128 -0.275951 -0.275773 -0.276128 -0.275951 -0.552257 -0.275951 -0.275951 -0.275951 -0.275773 -0.275773 -0.552257 -0.276128 -0.275951 -0.275773 -0.276128 -0.276128 -0.552079 -0.275773 -0.275951 -0.276128 -0.276128 -0.275773 -0.276128 -0.276128 -0.276128 -0.275773 -0.275951 -0.275773 -0.275773 -0.275951 -0.276306 -0.275773 -0.551901 0 0 -0.551901 -0.276128 -0.276128 -0.275951 -0.275773 -0.276128 -0.276128 -0.552257 -0.275773 -0.275951 -0.276128 -0.276128 -0.275773 -0.275951 -0.551901 -0.276128 -0.275951 -0.551901 -0.275773 -0.276306 -0.275773 -0.275773 -0.552079 -0.276128 -0.275773 -0.276128 -0.276128 -0.275951 -0.275951 -0.276128 -0.275773 -0.275951 -0.276128 -0.276128 -0.275773 -0.275951 -0.551724 -0.276128 -0.276128 -0.275951 -0.275773 -0.276128 -0.276128 -0.276306 -0.275773 -0.275773 -0.551724 -0.276306 -0.276306 -0.275773 -0.275773 -0.275951 -0.551901 -0.276128 -0.275773 -0.275951 -0.275951 -0.276128 -0.551901 -0.275951 -0.275773 -0.276128 -0.551901 -0.276128 -0.275951 -0.276128 -0.552079 -0.276128 -0.275773 -0.275951 -0.275951 -0.276128 -0.551724 -0.275951 -0.551724 -0.275773 -0.276128 -0.276128 -0.551724 -0.275951 -0.275773 -0.276128 -0.551901 -0.275951 -0.552079 -0.276306 -0.551724 -0.276128 -0.551901 -0.275951 -0.275951 -0.276128 -0.551901 -0.275951 -0.551546 -0.276128 -0.552079 -0.275951 -0.551901 -0.276128 -0.551724 -0.275951 -0.551901 -0.275773 -0.551724 -0.276484 -0.551901 -0.275773 -0.551901 -0.276128 -0.551901 -0.276128 -0.827674 -0.275951 -0.551901 -0.276128 -0.827852 -0.275951 -0.551724 -0.276128 -0.827852 -0.275951 -0.551901 -0.276128 -1.10362 -0.276128 -0.827674 -0.276128 -0.82803 -0.275951 -0.827674 -0.275773 -0.827852 -0.276128 -0.827674 -0.276128 -1.1038 -0.275951 -1.10362 -0.276128 -1.10362 -0.275951 -1.37975 -0.276128 -0.827497 -0.276128 -1.1038 -0.276128 -1.6557 -0.275951 -3.0351 -0.276128 -2.48302 0 -8.55394 0.276128 -3.31123 0.275951 -3.03492 0.276128 -1.6557 0.276128 -1.3794 0.276128 -1.1038 0.275951 -1.1038 0.276128 -1.10362 0.275951 -0.827852 0.276128 -1.3794 0.276128 -1.10362 0.275773 -0.827852 0.275951 -0.827852 0.276128 -0.827852 0.276128 -0.551724 0.276128 -0.827852 0.275951 -0.827674 0.276128 -0.551901 0.275951 -0.551901 0.276128 -0.827852 0.275951 -0.551546 0.276128 -0.827852 0.276128 -0.552079 0.275773 -0.551724 0.276484 -0.551901 0.275773 -0.551901 0.275951 -0.551724 0.276128 -0.551724 0.275951 -0.552257 0.276128 -0.551546 0.275951 -0.275951 0.276128 -0.551901 0.275951 -0.551901 0.276128 -0.551724 0.276306 -0.551901 0.275951 -0.551901 0.276128 -0.275951 0.275951 -0.275951 0.276128 -0.551546 0.275773 -0.551901 0.275951 -0.551901 0.276128 -0.275951 0.275951 -0.275773 0.276128 -0.552079 0.276128 -0.275951 0.276128 -0.551901 0.276128 -0.275773 0.275951 -0.551901 0.276128 -0.275773 0.275951 -0.551724 0.276128 -0.276128 0.275951 -0.275773 0.275773 -0.276306 0.276306 -0.551724 0.275773 -0.275773 0.276306 -0.276128 0.276128 -0.275773 0.275951 -0.275951 0.276128 -0.551901 0.275951 -0.275773 0.276128 -0.276128 0.275951 -0.275773 0.276128 -0.275951 0.275951 -0.551901 0.276128 -0.275951 0.276128 -0.275773 0.275773 -0.276128 0.276306 -0.551724 0.551901 -0.275773 0.276128 -0.276128 0.275951 -0.551901 0.276128 -0.275773 0.275951 -0.275951 0.552257 -0.275951 0.276128 -0.276128 0.275951 -0.275773 0.276128 -0.275773 0.275951 -0.276128 0.275951 -0.275773 0.276306 -0.275951 0.275773 -0.275773 0.552079 -0.276128 0.276128 -0.275773 0.276128 -0.275951 0.552079 -0.275951 0.275951 -0.275951 0.276128 -0.275951 0.275951 -0.276128 0.276128 -0.275773 0.551901 -0.275951 0.552257 -0.275773 0.275951 -0.275951 0.276128 -0.275951 0.275951 -0.276128 0.276128 -0.275773 0.552079 -0.275773 0.275951 -0.275951 0.276128 -0.275773 0.552257 -0.276128 0.276128 -0.275951 0.551724 -0.276128 0.276128 -0.275773 0.552079 -0.275951 0.275951 -0.275773 0.552079 -0.276128 0.276306 -0.275773 0.552079 -0.276128 0.276128 -0.275773 0.552079 -0.275951 0.551724 -0.275773 0.552079 -0.275773 0.552257 -0.276306 0.276128 -0.275773 0.552079 -0.275951 0.552079 -0.275951 0.552079 -0.275951 0.552257 -0.275773 0.827852 -0.276128 0.552257 -0.275773 0.275951 -0.275951 0.828207 -0.275773 0.552257 -0.276128 0.552079 -0.275773 0.827852 -0.276128 0.552079 -0.275951 0.552079 -0.275773 0.552257 -0.275951 0.828207 -0.275773 0.82803 -0.276128 0.551901 -0.275773 0.828385 -0.276128 0.82803 -0.275773 0.828207 -0.275951 1.10416 -0.275773 1.38011 -0.276128 1.10451 -0.275773 1.10416 -0.276128 1.1038 -0.275951 0.828385 -0.275951 1.38029 -0.275773 2.48427 -0.276128 2.20849 -0.275773 3.03652 -0.275951 7.72928 0 3.31247 0.275951 2.48427 0.275773 2.20867 0.276128 1.65588 0.275773 1.38046 0.275951 1.10416 0.275951 1.10398 0.276128 0.828385 0.275773 1.38011 0.276128 1.10434 0.275773 0.82803 0.275951 0.82803 0.275773 0.552079 0.276128 0.828385 0.275773 0.828207 0.276128 0.827852 0.275773 0.552257 0.275951 0.82803 0.275773 0.552257 0.275951 0.552079 0.276128 0.552079 0.275773 0.82803 0.276128 0.552079 0.275773 0.552079 0.275951 0.552079 0.275773 0.276128 0.276128 0.552257 0.275773 0.82803 0.275951 0.275773 0.275951 0.552079 0.275951 0.552257 0.275773 0.552257 0.276306 0.275951 0.275773 0.552079 0.275773 0.552079 0.275951 0.552079 0.275773 0.275773 0.276128 0.276128 0.275773 0.552257 0.276128 0.276128 0.275773 0.552079 0.275951 0.552079 0.275773 0.275951 0.276128 0.552079 0.275951 0.276306 0.276128 0.275951 0.275773 0.551901 0.275951 0.552079 0.275773 0.276128 0.275773 0.275951 0.276128 0.276128 0.275951 0.552257 0.275951 0.275951 0.275773 0.552079 0.275951 0.276128 0.275773 0.276128 0.276128 0.275773 0.275951 0.552079 0.275951 0.275951 0.275951 0.276128 0.275951 0.276128 0.275773 0.276128 0.276128 0.275951 0.275773 0.276128 0.275951 0.275951 0.275773 0.276128 0.276128 0.276128 0.275773 0.552079 0.275773 0.275773 0.276128 0.276128 0.275951 0.276128 0.275951 0.275951 0.275773 0.276128 0.276128 0.275951 0.275773 0.276128 0.276128 0.275951 0.275773 0.276128 0.275951 0.276128 0.275773 0.275951 0.551901 0.276306 0.275951 0.275951 0.276128 0.276128 0.275773 0.275951 0.551724 0.275773 0.276128 0.276128 0.275773 0.275951 0.275951 0.276128 0.551901 0.275951 0.275773 0.276128 0.276128 0.276306 0.275773 0.275951 0.551724 0.276128 0.276306 0.275951 0.275773 0.276128 0.276128 0.275951 0.275773 0.276128 0.551724 0.275951 0.551901 0.275773 0.275773 0.276128 0.276128 0.276128 0.275773 0.276128 0.275951 0.276128 0.552079 0.275951 0.551724 0.276128 0.275951 0.275951 0.551724 0.276128 0.551901 0.275951 0.275773 0.276128 0.275951 0.275951 0.827852 0.276306 0.276128 0.275951 0.551724 0.275951 0.551901 0.275951 0.551901 0.276128 0.275773 0.275951 0.827497 0.276128 0.552257 0.275951 0.551724 0.276128 0.275951 0.275951 0.551901 0.276306 0.827674 0.275951 0.275951 0.276128 1.1038 0.275951 0.551901 0.276128 0.275773 0.275951 0.827674 0.275951 0.551724 0.275951 0.551901 0.276128 1.1038 0.275951 0.551901 0.276128 0.827674 0.276128 0.827852 0.276128 0.827852 0.275951 0.827852 0.276128 1.10362 0.275951 0.827674 0.276128 0.827674 0.276128 1.1038 0.275951 1.10362 0.276128 1.1038 0.275773 1.37958 0.276128 1.65535 0.276128 3.03528 0.275951 1.93165 0.276128 4.1389 0 4.4145 -0.276128 3.0351zm-77.0167 -84.4324l-2.48427 0.275773 -1.65624 0.275951 -1.65659 0.275773 -1.37993 0.275773 -0.828385 0.276128 -1.10416 0.276128 -1.37993 0.275951 -0.828385 0.275773 -1.10416 0.275951 -0.82803 0.275773 -1.10416 0.276128 -0.828207 0.275773 -1.10434 0.275951 -0.82803 0.275951 -0.82803 0.275951 -0.552079 0.275773 -0.828207 0.276128 -0.552079 0.275773 -0.552079 0.276128 -1.10434 0.275773 -0.275773 0.276128 -0.552257 0.275773 -0.82803 0.275773 -0.552079 0.276128 -0.276128 0.275773 -0.828385 0.275951 -0.552079 0.275773 -0.551724 0.276128 -0.552079 0.275773 -0.552079 0.276128 -0.276128 0.275951 -0.552257 0.275951 -0.828207 0.275773 -0.275951 0.276128 -0.552079 0.275773 -0.551901 0.275951 -0.275951 0.275951 -0.552434 0.275773 -0.552079 0.275951 -0.552079 0.275773 -0.275951 0.276128 -0.552079 0.275773 -0.276306 0.275951 -0.551724 0.275951 -0.552257 0.276128 -0.275951 0.275773 -0.552079 0.276128 -0.276128 0.275773 -0.552079 0.275951 -0.276128 0.275773 -0.276128 0.276128 -0.551724 0.275773 -0.552257 0.276128 -0.275951 0.275773 -0.276128 0.275951 -0.552079 0.275773 -0.276128 0.275951 -0.276128 0.276128 -0.552079 0.275773 -0.275951 0.276128 -0.276128 0.275773 -0.275951 0.275951 -0.275951 0.275773 -0.552079 0.276128 -0.276128 0.275773 -0.276128 0.275951 -0.275951 0.275951 -0.552079 0.275951 -0.276128 0.275773 -0.275951 0.276306 -0.276128 0.275773 -0.275951 0.275773 -0.276128 0.275951 -0.276306 0.275773 -0.275773 0.276128 -0.276306 0.275773 -0.275773 0.276128 -0.552079 0.275773 -0.275951 0.275951 0 0.551901 -0.552079 0 -0.276128 0.552079 -0.276128 0.275773 -0.552257 0.275951 -0.275951 0.275773 -0.276128 0.551901 -0.275951 0.275951 -0.275773 0.275951 -0.276128 0.275773 -0.275951 0.275951 -0.276128 0.275773 -0.275951 0.276128 -0.276306 0.275951 -0.276128 0.275951 -0.275951 0.275951 -0.276128 0.275951 -0.275951 0.551901 -0.276128 0.275773 -0.275951 0.275951 -0.276128 0.275773 -0.275951 0.276128 -0.275773 0.275773 -0.276484 0.551901 -0.275773 0.275951 -0.276128 0.275951 -0.276128 0.551901 -0.275951 0.275773 -0.276128 0.276128 -0.275951 0.551724 -0.276128 0.275773 -0.275951 0.276128 -0.276128 0.275773 -0.276128 0.552079 -0.276128 0.551724 -0.275951 0.275773 -0.275773 0.276128 -0.276128 0.551724 -0.276128 0.275951 -0.275951 0.551724 -0.276128 0.276128 -0.275951 0.551724 -0.276128 0.552079 -0.276128 0.275773 -0.276128 0.551901 -0.275951 0.275951 -0.276128 0.827674 -0.275951 0.275773 -0.276128 0.551901 -0.275951 0.275951 -0.275951 0.552079 -0.275951 0.551724 -0.276128 0.275951 -0.276128 0.827852 -0.276128 0.551546 -0.275951 0.275951 -0.276128 0.827852 -0.275951 0.551901 -0.276128 0.551724 -0.275951 0.551901 -0.276128 0.551901 -0.275951 0.551724 -0.276128 0.552079 -0.276306 0.551901 -0.275773 0.827497 -0.275951 0.551901 -0.276128 0.827852 -0.275951 0.551901 -0.276128 0.827674 -0.275951 0.551901 -0.276128 0.827674 -0.275951 0.827852 -0.276128 1.1038 -0.275951 0.827674 -0.276306 0.827674 -0.276128 0.827852 -0.275951 1.1038 -0.276128 0.827674 -0.275773 1.37975 -0.275951 1.10345 -0.276128 1.37975 -0.275951 1.37958 -0.276128 1.37958 -0.275951 1.37975 -0.276306 2.75897 -0.275951 4.13908 0 9.38161 0.275951 4.69063 0.276306 1.93148 0.275951 1.9313 0.276128 1.1038 0.275951 1.10362 0.276128 1.37958 0.275951 1.37975 0.275773 1.37958 0.276128 0.827497 0.275951 0.828207 0.276128 1.10362 0.276306 1.10345 0.275951 0.827852 0.276128 0.827852 0.275951 0.827852 0.276128 0.551724 0.275951 0.827674 0.276128 0.827852 0.275951 0.551724 0.276128 0.82803 0.275951 0.827497 0.275773 0.551901 0.276306 0.551901 0.276128 0.551901 0.275951 0.827674 0.276128 0.275951 0.275951 0.827674 0.276128 0.551901 0.275951 0.551724 0.276128 0.552079 0.275951 0.551901 0.276128 0.551724 0.276128 0.551901 0.276128 0.551901 0.275951 0.551724 0.275951 0.275773 0.275951 0.276306 0.276128 0.551724 0.275951 0.551901 0.276128 0.551901 0.275951 0.275773 0.276128 0.551724 0.276128 0.276128 0.276128 0.551546 0.275951 0.276306 0.276128 0.551724 0.275951 0.551901 0.276128 0.275773 0.276128 0.276128 0.275773 0.551724 0.275951 0.275773 0.276128 0.551901 0.276128 0.275951 0.276128 0.276128 0.275951 0.551724 0.276128 0.276128 0.275951 0.551546 0.276128 0.275951 0.275951 0.551901 0.276128 0.275773 0.276128 0.276128 0.275773 0.275773 0.276484 0.276128 0.275773 0.551901 0.275951 0.275773 0.276128 0.276128 0.275951 0.275773 0.276128 0.551724 0.275951 0.275773 0.276128 0.276128 0.275951 0.275773 0.276128 0.276128 0.276306 0.275773 0.275951 0.276128 0.276128 0.551901 0.275951 0.275773 0.276128 0.275951 0.275773 0.275951 0.275951 0.275951 0.276128 0.275773 0.275951 0.276128 0.276128 0.275773 0.276128 0.275773 0.276128 0.275951 0.276128 0.276128 0.275951 0.275951 0.276128 0.275773 0.275951 0.276128 0.276128 0.275773 0.275951 0.275951 0.275773 0.275773 0.276306 0.276128 0.275773 0.275773 0.276306 0.276128 0.276128 0.275773 0.275951 0.275951 0.552079 0.275773 0.276128 0.276306 0.275951 0.275773 0.276128 0.275951 0.275951 0.275951 0.552257 0 0 0.551724 0.552079 0.275773 0.275951 0.276128 0.552079 0.275773 0.275951 0.275951 0.276128 0.275951 0.275951 0.275951 0.276128 0.275773 0.552257 0.276306 0.275951 0.275773 0.552079 0.275951 0.275951 0.275773 0.276306 0.276128 0.551724 0.275773 0.276128 0.275773 0.552257 0.276128 0.275951 0.275773 0.552079 0.275951 0.276128 0.275773 0.275951 0.276128 0.552257 0.275773 0.551724 0.276306 0.276306 0.275773 0.552079 0.275951 0.552079 0.275773 0.275951 0.276128 0.552079 0.275773 0.552434 0.275951 0.552079 0.275951 0.551724 0.275773 0.276128 0.275951 0.552079 0.276128 0.552079 0.275773 0.552257 0.275773 0.552079 0.276128 0.552079 0.275951 0.552079 0.275951 0.551901 0.275773 0.552257 0.276128 0.552079 0.275773 0.552079 0.275951 1.10416 0.275773 0.276128 0.276128 0.82803 0.275773 0.552079 0.276128 0.552079 0.275773 0.828207 0.276128 0.828207 0.275773 0.827852 0.275773 0.552257 0.276128 0.82803 0.275773 0.552257 0.276128 0.828207 0.275773 0.82803 0.275951 1.10416 0.275773 1.10416 0.276128 0.828207 0.275773 1.10416 0.275951 1.10416 0.275951 1.10434 0.276128 1.38029 0.275773 1.65606 0.276128 1.93237 0.275773 1.93237 0.275773 2.76022 0.275951 2.76075 0.276128 8.28136 0 3.31247 -0.276128 2.48427 -0.275951 1.65659 -0.275773 2.20814 -0.275773 1.10434 -0.276128 1.65588 -0.275773 1.10451 -0.276128 1.10416 -0.275951 1.10434 -0.275951 1.10398 -0.275773 0.82803 -0.276128 1.38046 -0.275773 1.10398 -0.275951 0.552079 -0.275773 0.828207 -0.276128 0.552079 -0.275773 0.552257 -0.276128 0.82803 -0.275773 0.82803 -0.275773 0.552079 -0.276128 0.552079 -0.275773 0.828207 -0.276128 0.552079 -0.275773 0.552257 -0.276128 0.827852 -0.275773 0.552079 -0.275951 0.552257 -0.275773 0.828207 -0.276128 0.276128 -0.275773 0.82803 -0.275951 0.552079 -0.275951 0.551901 -0.276128 0.552257 -0.275773 0.552079 -0.275773 0.276128 -0.276128 0.552079 -0.275951 0.552079 -0.275773 0.552257 -0.275951 0.551901 -0.275951 0.275951 -0.275773 0.552079 -0.276128 0.276128 -0.275773 0.275951 -0.275951 0.552079 -0.275773 0.552257 -0.276306 0.276128 -0.275773 0.552079 -0.276128 0.276128 -0.275773 0.551724 -0.275951 0.276128 -0.275773 0.552079 -0.276128 0.276128 -0.275773 0.552079 -0.275773 0.276128 -0.276128 0.275951 -0.275773 0.552257 -0.275951 0.275951 -0.275773 0.551901 -0.276306 0.276128 -0.275773 0.276128 -0.275951 0.275951 -0.275951 0.276128 -0.275951 0.552079 -0.275773 0.275951 -0.276128 0.276128 -0.275773 0.276128 -0.275951 0.275951 -0.275773 0.552257 -0.275951 0.276128 -0.275951 0.275951 -0.275773 0.275773 -0.276306 0.276128 -0.275773 0.552079 -0.275951 0.275951 -0.275773 0.276128 -0.276128 0.276306 -0.275773 0.275951 -0.276128 0.276128 -0.275773 0.275951 -0.275951 0.276128 -0.275773 0.275951 -0.276128 0.276128 -0.275773 0.275951 -0.275951 0.275773 -0.276128 0.276128 -0.275951 0.276128 -0.275773 0.276128 -0.275773 0.276128 -0.276128 0.275951 -0.275773 0.276128 -0.275951 0.275951 -0.275951 0.276128 -0.275951 0.275951 -0.275773 0.276128 -0.276128 0.275951 -0.275773 0.276306 -0.551901 0.275951 -0.276128 0.275951 -0.275773 0.275951 -0.276128 0.276128 -0.275773 0.275951 -0.275773 0.276128 -0.551724 0.275951 -0.276128 0.276128 -0.275773 0.275951 -0.276128 0.276306 -0.275773 0.275951 -0.551901 0.276128 -0.276128 0.275951 -0.275773 0.276128 -0.551901 0.275951 -0.275951 0.275951 -0.275773 0.275951 -0.275773 0.276128 -0.552079 0.275951 -0.275773 0.276128 -0.552079 0.276128 -0.275773 0.276128 -0.551901 0.275951 -0.275951 0.276128 -0.551901 0.275951 -0.275773 0.276128 -0.551901 0.276128 -0.275951 0.275951 -0.552079 0.276128 -0.275773 0.275773 -0.551901 0.276128 -0.275773 0.276128 -0.551724 0.275951 -0.551901 0.276128 -0.551901 0.275951 -0.275951 0.276128 -0.552079 0.275951 -0.275773 0.276128 -0.551724 0.276128 -0.827674 0.275951 -0.276128 0.276306 -0.551724 0.275951 -0.551901 0.276128 -0.552079 0.275773 -0.551724 0.275951 -0.551901 0.276128 -0.551724 0.275951 -0.551901 0.276128 -0.551546 0.275951 -0.552079 0.276128 -0.551901 0.276306 -0.827852 0.275951 -0.551724 0.276128 -0.551901 0.275951 -0.827674 0.276128 -0.551901 0.275951 -0.551901 0.276128 -0.827674 0.275951 -1.37958 0.275773 -0.827852 0.276128 -0.827852 0.275951 -0.827674 0.276306 -0.827674 0.276128 -1.1038 0.275951 -1.37975 0.276128 -0.827674 0.275951 -0.827497 0.276128 -1.10398 0.275951 -1.37958 0.276128 -1.65553 0.275951 -1.37975 0.276306 -3.0351 0.275951 -2.20743 0.275773 -3.31105 0 -3.0351 -0.275773 -6.89806 -0.275951 -3.0351 -0.276306 -2.20743 -0.275951 -2.20743 -0.276128 -1.37958 -0.275951 -1.10362 -0.276128 -1.10398 -0.275951 -0.827497 -0.276128 -1.1038 -0.275951 -1.37958 -0.276128 -0.827852 -0.276306 -0.827852 -0.275951 -1.10345 -0.276128 -0.827852 -0.275773 -0.827852 -0.275951 -1.10362 -0.276128 -0.551901 -0.275951 -0.827674 -0.276128 -0.551901 -0.275951 -0.551901 -0.276128 -0.827852 -0.275951 -0.827674 -0.276306 -0.827674 -0.276128 -0.552257 -0.275951 -0.551546 -0.276128 -0.551724 -0.275951 -0.551901 -0.276128 -0.551901 -0.275951 -0.827852 -0.275773 -0.551901 -0.276128 -0.551901 -0.275951 -0.275773 -0.276306 -0.551901 -0.275951 -0.551724 -0.276128 -0.551901 -0.276128 -0.551901 -0.275951 -0.551901 -0.276128 -0.275773 -0.275951 -0.551901 -0.276128 -0.276128 -0.275951 -0.551546 -0.276128 -0.551724 -0.276128 -0.276128 -0.275773 -0.552079 -0.276128 -0.551724 -0.275951 -0.275773 -0.276128 -0.276128 -0.276128 -0.551724 -0.275951 -0.551901 -0.276128 -0.275773 -0.275951 -0.276128 -0.276128 -0.551724 -0.276128 -0.275773 -0.276128 -0.552079 -0.275951 -0.275773 -0.276128 -0.551901 -0.275951 -0.275951 -0.275951 -0.275773 -0.275951 -0.551901 -0.276128 -0.276128 -0.275951 -0.275773 -0.276128 -0.551901 -0.275951 -0.276128 -0.276306 -0.275773 -0.275951 -0.275773 -0.276128 -0.276128 -0.275951 -0.551724 -0.276128 -0.275773 -0.275951 -0.276128 -0.276128 -0.275773 -0.275951 -0.275951 -0.275951 -0.275951 -0.275951 -0.275951 -0.276306 -0.552079 -0.275951 -0.275773 -0.276128 -0.275951 -0.552079 -0.275773 -0.275951 -0.551901 -0.276128 -0.276128 -0.275951 -0.275773 -0.276128 -0.275773 -0.276128 -0.275951 -0.276128 -0.275773 -0.276128 -0.276128 -0.275773 -0.275951 -0.275951 -0.276128 -0.276128 -0.275773 -0.275951 -0.275951 -0.552079 -0.275773 -0.276128 -0.551901 -0.275951 -0.276128 -0.276306 -0.275773 -0.276128 -0.275951 -0.275951 -0.275773 -0.552079 -0.275773 -0.276128 -0.276306 -0.275773 -0.275773 -0.275951 -0.275951 -0.552079 -0.275951 -0.276306 -0.275951 -0.275951 -0.275773 -0.276128 -0.276128 -0.276128 -0.275773 -0.275951 -0.275951 -0.552079 -0.275773 -0.276128 -0.276128 -0.275951 -0.275773 -0.552257 -0.276128 -0.275773 -0.275951 -0.276128 -0.275773 -0.275951 -0.275951 -0.552257 -0.275773 -0.275951 -0.276128 -0.552079 -0.275773 -0.276128 -0.276128 -0.552257 -0.275773 -0.275951 -0.275951 -0.276128 -0.275773 -0.275951 -0.276128 -0.551901 -0.275773 -0.552079 -0.276128 -0.276128 -0.275951 -0.552257 -0.275951 -0.275951 -0.275773 -0.552079 -0.276128 -0.276128 -0.275773 -0.82803 -0.275951 -0.275951 -0.275773 -0.552257 -0.275951 -0.275951 -0.275951 -0.552079 -0.275773 -0.552079 -0.276128 -0.552079 -0.275773 -0.552079 -0.275951 -0.552434 -0.275951 -0.551724 -0.276128 -0.552079 -0.275773 -0.552079 -0.276128 -0.552079 -0.275773 -0.828385 -0.275951 -0.552079 -0.275773 -0.276128 -0.276128 -0.827852 -0.275773 -0.552257 -0.275773 -0.552079 -0.276128 -0.828207 -0.275773 -0.552079 -0.276128 -0.828207 -0.275773 -0.551901 -0.276128 -0.552079 -0.275773 -0.828207 -0.275951 -1.10434 -0.275951 -1.1038 -0.275951 -0.828207 -0.275773 -0.828385 -0.276128 -0.82803 -0.275773 -1.10416 -0.275951 -0.828207 -0.275773 -1.10416 -0.275951 -1.38011 -0.276128 -1.38029 -0.276128 -1.10416 -0.275773 -1.38046 -0.275773 -1.37993 -0.275951 -3.0367 -0.275773 -4.96853 -0.276128 -9.66183 0 -3.03652 0.276128z"/>
  </g>
 </g>
</svg>
